<svg width="148" height="21" viewBox="0 0 148 21" fill="none" xmlns="http://www.w3.org/2000/svg">
<path d="M4.83496 8.15332C4.83496 8.30566 4.95508 8.38184 5.19531 8.38184H8.44727C9.02734 8.38184 9.53711 8.10938 9.97656 7.56445C10.0938 7.41797 10.1787 7.28906 10.2314 7.17773C10.2842 7.06641 10.3428 7.01074 10.4072 7.01074H10.5039C10.5918 7.01074 10.6357 7.04004 10.6357 7.09863C10.6357 7.10449 10.6328 7.11328 10.627 7.125C10.627 7.13672 10.6211 7.1748 10.6094 7.23926C10.5977 7.30371 10.5771 7.40332 10.5479 7.53809C10.5186 7.67285 10.4805 7.86328 10.4336 8.10938C10.1055 9.68555 9.92383 10.4971 9.88867 10.5439C9.85938 10.5908 9.80957 10.6143 9.73926 10.6143C9.6748 10.6143 9.63379 10.5996 9.61621 10.5703C9.58105 10.5176 9.56055 10.415 9.55469 10.2627C9.54883 10.1045 9.52832 9.95508 9.49316 9.81445C9.45801 9.66797 9.39941 9.54199 9.31738 9.43652C9.24121 9.33105 9.14453 9.24902 9.02734 9.19043C8.83398 9.09082 8.5498 9.04102 8.1748 9.04102H4.9668C4.75586 9.04102 4.62402 9.12891 4.57129 9.30469C4.55371 9.35156 4.52441 9.46875 4.4834 9.65625C4.44824 9.83789 4.40137 10.0605 4.34277 10.3242C4.29004 10.582 4.23145 10.8662 4.16699 11.1768C4.10254 11.4873 4.03809 11.7949 3.97363 12.0996C3.73926 13.1953 3.62207 13.8135 3.62207 13.9541C3.62207 14.0889 3.67188 14.209 3.77148 14.3145C3.87695 14.4199 4.00879 14.4961 4.16699 14.543C4.38379 14.6133 4.74707 14.6484 5.25684 14.6484C5.29199 14.6484 5.30957 14.6719 5.30957 14.7188L5.26562 14.9297C5.24805 14.9766 5.22168 15 5.18652 15H0.475586C0.43457 15 0.414062 14.9766 0.414062 14.9297L0.458008 14.7188C0.481445 14.6719 0.551758 14.6484 0.668945 14.6484C0.791992 14.6484 0.938477 14.6367 1.1084 14.6133C1.28418 14.584 1.43945 14.5254 1.57422 14.4375C1.86133 14.25 2.05762 13.9014 2.16309 13.3916C2.41504 12.2139 2.63477 11.1768 2.82227 10.2803C3.01562 9.37793 3.18262 8.5957 3.32324 7.93359C3.46973 7.26562 3.58984 6.70312 3.68359 6.24609C3.7832 5.78906 3.8623 5.41113 3.9209 5.1123C3.98535 4.80762 4.03516 4.57324 4.07031 4.40918C4.10547 4.24512 4.12891 4.12207 4.14062 4.04004C4.16406 3.92285 4.17578 3.85254 4.17578 3.8291C4.17578 3.24902 3.61328 2.95898 2.48828 2.95898C2.45312 2.95898 2.43555 2.93555 2.43555 2.88867L2.47949 2.67773C2.49121 2.63086 2.52051 2.60742 2.56738 2.60742H11.7607C11.9072 2.60742 12.0156 2.61621 12.0859 2.63379C12.1621 2.65137 12.2002 2.69531 12.2002 2.76562C12.2002 2.83008 12.1973 2.87402 12.1914 2.89746L11.6992 5.20898C11.6641 5.35547 11.6055 5.42871 11.5234 5.42871C11.3711 5.42871 11.2832 5.36133 11.2598 5.22656C11.2422 5.13867 11.2334 5.03906 11.2334 4.92773C11.2334 4.81055 11.2217 4.67871 11.1982 4.53223C11.1807 4.37988 11.1309 4.20996 11.0488 4.02246C10.9668 3.8291 10.8584 3.66504 10.7236 3.53027C10.4307 3.2373 10.0527 3.09082 9.58984 3.09082H6.61035C6.26465 3.09082 6.05664 3.11719 5.98633 3.16992C5.89844 3.24023 5.81934 3.43359 5.74902 3.75L4.84375 8.05664C4.83789 8.08008 4.83496 8.1123 4.83496 8.15332ZM13.3867 14.1826C13.3867 14.3115 13.46 14.376 13.6064 14.376C13.8408 14.376 14.2539 14.0654 14.8457 13.4443C14.9102 13.3799 14.957 13.333 14.9863 13.3037L15.1533 13.4707C15.0361 13.6992 14.7051 14.0361 14.1602 14.4814C13.5332 14.9854 13.0615 15.2373 12.7451 15.2373C12.5693 15.2373 12.4141 15.167 12.2793 15.0264C12.1504 14.8916 12.0859 14.751 12.0859 14.6045C12.0859 14.4521 12.0947 14.335 12.1123 14.2529L14.6963 2.19434C14.7197 2.10059 14.7314 2.02441 14.7314 1.96582C14.7314 1.81934 14.667 1.74609 14.5381 1.74609C14.4268 1.74609 14.2773 1.79004 14.0898 1.87793C13.9082 1.96582 13.7119 2.05957 13.501 2.15918L13.3867 1.88672C15.0391 0.990234 15.9209 0.541992 16.0322 0.541992C16.1494 0.541992 16.208 0.612305 16.208 0.75293C16.208 0.887695 16.1143 1.37988 15.9268 2.22949C15.7451 3.07324 15.5225 4.10742 15.2588 5.33203C15.001 6.55664 14.7725 7.62305 14.5732 8.53125C14.3799 9.43945 14.2158 10.21 14.0811 10.8428C13.9463 11.4756 13.835 12 13.7471 12.416C13.6592 12.832 13.5889 13.1572 13.5361 13.3916C13.4893 13.6201 13.4541 13.79 13.4307 13.9014C13.4131 14.0127 13.3984 14.0947 13.3867 14.1475V14.1826ZM22.3779 7.08984C22.7236 7.08984 23.0547 7.39453 23.3711 8.00391C23.7051 8.63672 23.8721 9.27246 23.8721 9.91113C23.8721 10.5439 23.7988 11.0801 23.6523 11.5195C23.5059 11.9531 23.3066 12.3574 23.0547 12.7324C22.8086 13.1074 22.5156 13.4502 22.1758 13.7607C21.8359 14.0654 21.4727 14.3262 21.0859 14.543C20.2832 15.0059 19.4834 15.2373 18.6865 15.2373C18.3701 15.2373 18.0479 14.9297 17.7197 14.3145C17.3916 13.6875 17.2275 13.1045 17.2275 12.5654C17.2275 12.0264 17.2979 11.5225 17.4385 11.0537C17.585 10.5791 17.7812 10.1426 18.0273 9.74414C18.2793 9.33984 18.5723 8.97363 18.9062 8.64551C19.2402 8.31738 19.5977 8.03906 19.9785 7.81055C20.7812 7.33008 21.5811 7.08984 22.3779 7.08984ZM18.8711 10.3506C18.7656 10.6963 18.6836 11.0537 18.625 11.4229C18.5723 11.7861 18.5459 12.0967 18.5459 12.3545C18.5459 12.6123 18.5693 12.8643 18.6162 13.1104C18.6631 13.3506 18.7393 13.582 18.8447 13.8047C19.0967 14.3262 19.4424 14.5869 19.8818 14.5869C20.6787 14.5869 21.3379 14.0771 21.8594 13.0576C22.3223 12.1494 22.5537 11.1562 22.5537 10.0781C22.5537 9.35742 22.3926 8.74219 22.0703 8.23242C21.8594 7.9043 21.6074 7.74023 21.3145 7.74023C21.0215 7.74023 20.749 7.81055 20.4971 7.95117C20.251 8.0918 20.0254 8.28223 19.8203 8.52246C19.6211 8.75684 19.4395 9.03223 19.2754 9.34863C19.1172 9.66504 18.9824 9.99902 18.8711 10.3506ZM29.3125 13.6729C29.3359 13.5615 29.3594 13.459 29.3828 13.3652C29.4062 13.2656 29.4209 13.166 29.4268 13.0664C29.4326 12.9668 29.4121 12.917 29.3652 12.917C29.3008 12.917 29.1572 13.0166 28.9346 13.2158C28.7119 13.4092 28.5068 13.5879 28.3193 13.752C28.1318 13.916 27.9326 14.0859 27.7217 14.2617C27.5166 14.4375 27.3145 14.5957 27.1152 14.7363C26.6641 15.0703 26.333 15.2373 26.1221 15.2373C25.9111 15.2373 25.7383 15.1494 25.6035 14.9736C25.4746 14.7979 25.375 14.5898 25.3047 14.3496C25.1875 13.9395 25.1289 13.5439 25.1289 13.1631C25.1289 11.9443 25.5918 10.7754 26.5176 9.65625C27.4023 8.60156 28.4893 7.85449 29.7783 7.41504C30.417 7.19824 31.0674 7.08984 31.7295 7.08984C31.8291 7.08984 31.8789 7.17188 31.8789 7.33594L30.5518 13.418C30.5459 13.4648 30.54 13.5117 30.5342 13.5586C30.5225 13.6406 30.5166 13.7197 30.5166 13.7959C30.5166 13.8662 30.54 13.9365 30.5869 14.0068C30.6338 14.0771 30.6836 14.1123 30.7363 14.1123C30.7949 14.1123 30.8652 14.0801 30.9473 14.0156C31.0352 13.9453 31.123 13.8691 31.2109 13.7871C31.457 13.5762 31.6094 13.4707 31.668 13.4707C31.7617 13.4707 31.8086 13.5234 31.8086 13.6289C31.8086 13.7402 31.4922 14.0391 30.8594 14.5254C30.2207 15.0234 29.8193 15.2725 29.6553 15.2725C29.4736 15.2725 29.3477 15.1523 29.2773 14.9121C29.2422 14.7832 29.2246 14.6396 29.2246 14.4814C29.2246 14.3174 29.2334 14.168 29.251 14.0332C29.2686 13.8984 29.2891 13.7783 29.3125 13.6729ZM30.4639 8.23242C30.4639 8.13867 30.3525 8.0918 30.1299 8.0918C29.9072 8.0918 29.6465 8.13281 29.3477 8.21484C29.0488 8.29102 28.7617 8.40234 28.4863 8.54883C27.4727 9.08203 26.8223 9.98438 26.5352 11.2559C26.4121 11.8066 26.3418 12.249 26.3242 12.583C26.3125 12.917 26.3125 13.1631 26.3242 13.3213C26.3359 13.4795 26.3652 13.6289 26.4121 13.7695C26.5293 14.0977 26.7461 14.2617 27.0625 14.2617C27.4844 14.0449 27.9385 13.7168 28.4248 13.2773C28.917 12.8379 29.3066 12.4893 29.5938 12.2314L30.4639 8.23242ZM34.3135 15.2373C33.792 15.2373 33.5312 15 33.5312 14.5254C33.5312 14.4258 33.543 14.3262 33.5664 14.2266L34.9199 7.83691C34.9316 7.77832 34.9375 7.73145 34.9375 7.69629C34.9375 7.6084 34.8936 7.56445 34.8057 7.56445H34.4102C34.2578 7.56445 34.1816 7.51172 34.1816 7.40625C34.1816 7.29492 34.2227 7.22461 34.3047 7.19531C34.3926 7.16602 34.4658 7.14551 34.5244 7.13379C34.583 7.12207 34.6533 7.10156 34.7354 7.07227C34.8232 7.03711 34.9375 6.9668 35.0781 6.86133C35.2188 6.75 35.3594 6.62402 35.5 6.4834C35.6465 6.33691 35.79 6.18457 35.9307 6.02637C36.0713 5.86816 36.2031 5.71289 36.3262 5.56055C36.6426 5.17969 36.8389 4.95117 36.915 4.875C37.0439 4.9043 37.1465 4.95117 37.2227 5.01562C37.1758 5.13867 37.1143 5.28223 37.0381 5.44629C36.9619 5.61035 36.8887 5.77734 36.8184 5.94727C36.6367 6.36328 36.5312 6.66797 36.502 6.86133V6.89648C36.502 7.02539 36.5723 7.08984 36.7129 7.08984H37.8555L37.7588 7.56445H36.4844C36.3262 7.56445 36.2266 7.66699 36.1855 7.87207L34.9639 13.585C34.9346 13.708 34.9141 13.8076 34.9023 13.8838C34.8906 13.9541 34.8789 14.0098 34.8672 14.0508C34.8613 14.0918 34.8584 14.1211 34.8584 14.1387V14.1738C34.8584 14.3086 34.9229 14.376 35.0518 14.376C35.2744 14.376 35.5234 14.2383 35.7988 13.9629L36.7744 12.9873L36.8975 13.1191C36.8154 13.3711 36.4844 13.7637 35.9043 14.2969C35.2422 14.9238 34.7119 15.2373 34.3135 15.2373ZM41.4941 7.86328L40.1846 14.1914C40.1846 14.3203 40.2549 14.3848 40.3955 14.3848C40.6299 14.3848 41.043 14.0742 41.6348 13.4531C41.6992 13.3887 41.7461 13.3418 41.7754 13.3125L41.9424 13.4795C41.8369 13.6904 41.6025 13.9453 41.2393 14.2441C40.876 14.543 40.6094 14.748 40.4395 14.8594C40.0645 15.1113 39.7656 15.2373 39.543 15.2373C39.3262 15.2373 39.1621 15.1582 39.0508 15C38.9395 14.8359 38.8838 14.6953 38.8838 14.5781C38.8838 14.4141 38.8984 14.2705 38.9277 14.1475L40.1934 8.17969V8.14453C40.1934 8.01562 40.1201 7.95117 39.9736 7.95117C39.7217 7.95117 39.3379 8.22949 38.8223 8.78613C38.7168 8.90332 38.6406 8.98242 38.5938 9.02344L38.4268 8.85645C38.5439 8.62793 38.875 8.29102 39.4199 7.8457C40.0469 7.3418 40.4922 7.08984 40.7559 7.08984C41.0195 7.08984 41.207 7.17188 41.3184 7.33594C41.4355 7.49414 41.4941 7.66992 41.4941 7.86328ZM41.1338 4.7959C41.0635 4.69043 41.0166 4.59961 40.9932 4.52344C40.9756 4.44141 40.9668 4.35352 40.9668 4.25977C40.9668 4.16602 40.9844 4.03125 41.0195 3.85547C41.0605 3.67969 41.1191 3.50977 41.1953 3.3457C41.3711 2.95898 41.6025 2.76562 41.8896 2.76562C42.1533 2.76562 42.3262 2.91211 42.4082 3.20508C42.4316 3.28711 42.4434 3.375 42.4434 3.46875C42.4434 3.5625 42.4199 3.69434 42.373 3.86426C42.3262 4.03418 42.2617 4.20117 42.1797 4.36523C41.9688 4.75195 41.7344 4.94531 41.4766 4.94531C41.3242 4.94531 41.21 4.89551 41.1338 4.7959ZM46.0469 7.08984C46.2578 7.08984 46.3633 7.28613 46.3633 7.67871C46.3633 7.85449 46.3516 7.98926 46.3281 8.08301C46.3105 8.17676 46.2842 8.30273 46.249 8.46094C46.2197 8.61914 46.1729 8.85645 46.1084 9.17285C46.0439 9.4834 45.9531 9.92871 45.8359 10.5088C45.8359 10.5732 45.8594 10.6055 45.9062 10.6055C45.959 10.6055 46.0059 10.582 46.0469 10.5352C46.0938 10.4824 46.1641 10.4033 46.2578 10.2979C46.3516 10.1924 46.4951 10.0283 46.6885 9.80566C46.8877 9.57715 47.0986 9.34277 47.3213 9.10254C47.5498 8.85645 47.7842 8.61328 48.0244 8.37305C48.2705 8.13281 48.5137 7.91602 48.7539 7.72266C49.2988 7.30078 49.75 7.08984 50.1074 7.08984C50.2832 7.08984 50.4355 7.16016 50.5645 7.30078C50.6992 7.43555 50.7666 7.5791 50.7666 7.73145C50.7666 7.88379 50.7578 7.99805 50.7402 8.07422L49.1758 14.1562V14.1914C49.1758 14.3203 49.249 14.3848 49.3955 14.3848C49.6299 14.3848 50.043 14.0742 50.6348 13.4531C50.6992 13.3887 50.7461 13.3418 50.7754 13.3125L50.9424 13.4795C50.8252 13.708 50.4941 14.0449 49.9492 14.4902C49.3223 14.9941 48.8506 15.2461 48.5342 15.2461C48.3584 15.2461 48.2031 15.1758 48.0684 15.0352C47.9395 14.9004 47.875 14.7598 47.875 14.6133C47.875 14.4609 47.8838 14.3438 47.9014 14.2617L49.4658 8.17969V8.14453C49.4658 8.0918 49.4395 8.04785 49.3867 8.0127C49.3398 7.97168 49.2754 7.9541 49.1934 7.95996C49.1172 7.95996 48.9854 8.03027 48.7979 8.1709C48.6162 8.30566 48.4141 8.48145 48.1914 8.69824C47.9688 8.91504 47.7344 9.15527 47.4883 9.41895C47.248 9.68262 47.0166 9.94336 46.7939 10.2012C46.1846 10.9043 45.8271 11.335 45.7217 11.4932C45.6221 11.6455 45.5547 11.8066 45.5195 11.9766L44.8867 14.9033C44.4824 15.1377 44.1719 15.2549 43.9551 15.2549C43.7383 15.2549 43.6299 15.1699 43.6299 15C43.6299 14.9238 43.6445 14.8242 43.6738 14.7012C43.7266 14.4668 43.7588 14.3174 43.7705 14.2529L44.9482 8.68066V8.64551C44.9482 8.48145 44.8809 8.39941 44.7461 8.39941C44.6582 8.39941 44.5117 8.50488 44.3066 8.71582C44.1016 8.9209 43.832 9.19336 43.498 9.5332L43.2871 9.31348C43.416 9.0498 43.8848 8.57812 44.6934 7.89844C45.3379 7.35938 45.7891 7.08984 46.0469 7.08984ZM58.9756 7.78418C58.9756 7.87207 58.9229 7.91602 58.8174 7.91602H57.7803C57.8037 8.01562 57.833 8.12695 57.8682 8.25C57.9092 8.36719 57.9473 8.50195 57.9824 8.6543C58.0645 9 58.1055 9.37207 58.1055 9.77051C58.1055 10.1631 58.0439 10.5322 57.9209 10.8779C57.8037 11.2236 57.6455 11.543 57.4463 11.8359C57.1182 12.3164 56.6201 12.8291 55.9521 13.374C55.7236 13.5615 55.3809 13.7549 54.9238 13.9541C54.4727 14.1533 54.1709 14.2998 54.0186 14.3936C53.8662 14.4873 53.79 14.6191 53.79 14.7891C53.79 14.9531 53.8779 15.1377 54.0537 15.3428C54.2295 15.5479 54.4492 15.75 54.7129 15.9492C54.9824 16.1484 55.2695 16.3506 55.5742 16.5557C55.8848 16.7607 56.1719 16.9746 56.4355 17.1973C57.0566 17.7129 57.3672 18.2139 57.3672 18.7002C57.3672 19.5498 56.6406 20.1328 55.1875 20.4492C54.666 20.5664 54.1357 20.625 53.5967 20.625C53.0576 20.625 52.5479 20.6045 52.0674 20.5635C51.5869 20.5225 51.168 20.4434 50.8105 20.3262C50.0195 20.0801 49.624 19.6465 49.624 19.0254C49.624 18.5449 49.9932 18.0498 50.7314 17.54C51.1299 17.2646 51.4961 17.0361 51.8301 16.8545C52.1641 16.6729 52.3867 16.5469 52.498 16.4766C52.8262 16.2773 53.0166 16.1514 53.0693 16.0986C53.04 15.9873 53.002 15.873 52.9551 15.7559C52.9082 15.6445 52.8848 15.5273 52.8848 15.4043C52.8848 15.2812 52.9053 15.1729 52.9463 15.0791C52.9873 14.9854 53.04 14.8975 53.1045 14.8154C53.1748 14.7334 53.2539 14.6484 53.3418 14.5605C53.5586 14.3555 53.667 14.2354 53.667 14.2002C53.667 14.165 53.6348 14.1152 53.5703 14.0508C53.5117 13.9805 53.4414 13.9043 53.3594 13.8223C53.1836 13.6699 53.0371 13.5322 52.9199 13.4092C52.8086 13.2803 52.7061 13.1279 52.6123 12.9521C52.5244 12.7764 52.4512 12.5889 52.3926 12.3896C52.2871 12.0029 52.2344 11.625 52.2344 11.2559C52.2344 10.8809 52.2988 10.5293 52.4277 10.2012C52.5566 9.87305 52.7324 9.55664 52.9551 9.25195C53.1777 8.94727 53.4326 8.66309 53.7197 8.39941C54.0127 8.13574 54.3232 7.90723 54.6514 7.71387C55.3545 7.29785 56.0254 7.08984 56.6641 7.08984C57.9531 7.08984 58.7061 7.1543 58.9229 7.2832C58.958 7.30078 58.9756 7.33301 58.9756 7.37988V7.78418ZM51.2676 17.7422C51.1035 17.9062 50.9717 18.0762 50.8721 18.252C50.7666 18.4336 50.7139 18.6533 50.7139 18.9111C50.7139 19.1689 50.7871 19.3975 50.9336 19.5967C51.0742 19.8018 51.2793 19.9629 51.5488 20.0801C52.0059 20.2734 52.7471 20.3701 53.7725 20.3701C54.6221 20.3701 55.3281 20.2002 55.8906 19.8604C56.2598 19.6377 56.4443 19.3564 56.4443 19.0166C56.4443 18.6299 56.0605 18.1758 55.293 17.6543C55.082 17.5078 54.8652 17.3613 54.6426 17.2148L53.3418 16.3359C53.248 16.4062 53.1162 16.4883 52.9463 16.582C52.7822 16.6758 52.6035 16.7812 52.4102 16.8984C52.2168 17.0215 52.0176 17.1533 51.8125 17.2939C51.6133 17.4346 51.4316 17.584 51.2676 17.7422ZM56.9629 9.33984C56.9629 8.12695 56.5674 7.52051 55.7764 7.52051C55.3428 7.52051 54.9355 7.75781 54.5547 8.23242C54.0566 8.87695 53.7227 9.74414 53.5527 10.834C53.5 11.1562 53.4736 11.4375 53.4736 11.6777C53.4736 11.9121 53.4912 12.1406 53.5264 12.3633C53.5674 12.5801 53.6348 12.7793 53.7285 12.9609C53.9453 13.3945 54.2676 13.6113 54.6953 13.6113C54.9707 13.6113 55.2578 13.459 55.5566 13.1543C55.8613 12.8438 56.0928 12.5449 56.251 12.2578C56.415 11.9707 56.5498 11.6689 56.6553 11.3525C56.8604 10.7373 56.9629 10.0664 56.9629 9.33984ZM66.877 7.7666C66.877 7.63184 66.7686 7.56445 66.5518 7.56445H65.752L65.8311 7.22168C66.6455 7.19824 67.0791 7.07227 67.1318 6.84375C67.1377 6.80273 67.1523 6.72656 67.1758 6.61523C67.1992 6.50391 67.2227 6.38379 67.2461 6.25488C67.2754 6.12598 67.3018 6.00293 67.3252 5.88574C67.3486 5.7627 67.375 5.625 67.4043 5.47266C67.4395 5.31445 67.501 5.0625 67.5889 4.7168C67.6768 4.36523 67.7939 4.00195 67.9404 3.62695C68.0928 3.25195 68.2773 2.87988 68.4941 2.51074C68.7109 2.1416 68.9775 1.81055 69.2939 1.51758C69.9971 0.867188 70.8584 0.541992 71.8779 0.541992C72.2119 0.541992 72.4609 0.609375 72.625 0.744141C72.9004 0.960938 73.0381 1.15137 73.0381 1.31543C73.0381 1.70215 72.8857 1.89551 72.5811 1.89551C72.3701 1.89551 72.1504 1.81055 71.9219 1.64062C71.6992 1.46484 71.5234 1.33887 71.3945 1.2627C71.2656 1.18066 71.0986 1.13965 70.8936 1.13965C70.6885 1.13965 70.498 1.17188 70.3223 1.23633C70.1523 1.30078 70.0059 1.38867 69.8828 1.5C69.707 1.66406 69.5312 1.95117 69.3555 2.36133C69.1035 3.08789 68.9043 3.82324 68.7578 4.56738C68.6113 5.31152 68.5264 5.73926 68.5029 5.85059C68.4795 5.96191 68.4561 6.08203 68.4326 6.21094C68.3682 6.55664 68.3359 6.75 68.3359 6.79102C68.3359 6.99023 68.4268 7.08984 68.6084 7.08984H69.7334L69.6279 7.56445H68.3711C68.2715 7.56445 68.2041 7.61426 68.1689 7.71387C68.1396 7.80762 68.1133 7.91309 68.0898 8.03027L66.499 15.5361C66.2705 16.6201 65.8223 17.6572 65.1543 18.6475C64.6211 19.4443 63.9824 20.0098 63.2383 20.3438C62.8457 20.5254 62.4883 20.6162 62.166 20.6162C61.8438 20.6162 61.6123 20.5898 61.4717 20.5371C61.3252 20.4844 61.1992 20.417 61.0938 20.335C60.8887 20.1709 60.7861 20.0068 60.7861 19.8428C60.7861 19.4561 60.9385 19.2627 61.2432 19.2627C61.4541 19.2627 61.6914 19.3477 61.9551 19.5176C62.2188 19.6934 62.4268 19.8193 62.5791 19.8955C62.7256 19.9775 62.8809 20.0186 63.0449 20.0186C63.2031 20.0186 63.3555 19.9775 63.502 19.8955C63.6426 19.8135 63.7715 19.708 63.8887 19.5791C64.1172 19.3389 64.3105 19.0254 64.4688 18.6387C64.8145 17.6426 65.0928 16.6113 65.3037 15.5449L66.8682 7.83691C66.874 7.81934 66.877 7.7959 66.877 7.7666ZM75.1826 7.08984C75.5283 7.08984 75.8594 7.39453 76.1758 8.00391C76.5098 8.63672 76.6768 9.27246 76.6768 9.91113C76.6768 10.5439 76.6035 11.0801 76.457 11.5195C76.3105 11.9531 76.1113 12.3574 75.8594 12.7324C75.6133 13.1074 75.3203 13.4502 74.9805 13.7607C74.6406 14.0654 74.2773 14.3262 73.8906 14.543C73.0879 15.0059 72.2881 15.2373 71.4912 15.2373C71.1748 15.2373 70.8525 14.9297 70.5244 14.3145C70.1963 13.6875 70.0322 13.1045 70.0322 12.5654C70.0322 12.0264 70.1025 11.5225 70.2432 11.0537C70.3896 10.5791 70.5859 10.1426 70.832 9.74414C71.084 9.33984 71.377 8.97363 71.7109 8.64551C72.0449 8.31738 72.4023 8.03906 72.7832 7.81055C73.5859 7.33008 74.3857 7.08984 75.1826 7.08984ZM71.6758 10.3506C71.5703 10.6963 71.4883 11.0537 71.4297 11.4229C71.377 11.7861 71.3506 12.0967 71.3506 12.3545C71.3506 12.6123 71.374 12.8643 71.4209 13.1104C71.4678 13.3506 71.5439 13.582 71.6494 13.8047C71.9014 14.3262 72.2471 14.5869 72.6865 14.5869C73.4834 14.5869 74.1426 14.0771 74.6641 13.0576C75.127 12.1494 75.3584 11.1562 75.3584 10.0781C75.3584 9.35742 75.1973 8.74219 74.875 8.23242C74.6641 7.9043 74.4121 7.74023 74.1191 7.74023C73.8262 7.74023 73.5537 7.81055 73.3018 7.95117C73.0557 8.0918 72.8301 8.28223 72.625 8.52246C72.4258 8.75684 72.2441 9.03223 72.0801 9.34863C71.9219 9.66504 71.7871 9.99902 71.6758 10.3506ZM79.498 14.1826C79.498 14.3115 79.5713 14.376 79.7178 14.376C79.9521 14.376 80.3652 14.0654 80.957 13.4443C81.0215 13.3799 81.0684 13.333 81.0977 13.3037L81.2646 13.4707C81.1475 13.6992 80.8164 14.0361 80.2715 14.4814C79.6445 14.9854 79.1729 15.2373 78.8564 15.2373C78.6807 15.2373 78.5254 15.167 78.3906 15.0264C78.2617 14.8916 78.1973 14.751 78.1973 14.6045C78.1973 14.4521 78.2061 14.335 78.2236 14.2529L80.8076 2.19434C80.8311 2.10059 80.8428 2.02441 80.8428 1.96582C80.8428 1.81934 80.7783 1.74609 80.6494 1.74609C80.5381 1.74609 80.3887 1.79004 80.2012 1.87793C80.0195 1.96582 79.8232 2.05957 79.6123 2.15918L79.498 1.88672C81.1504 0.990234 82.0322 0.541992 82.1436 0.541992C82.2607 0.541992 82.3193 0.612305 82.3193 0.75293C82.3193 0.887695 82.2256 1.37988 82.0381 2.22949C81.8564 3.07324 81.6338 4.10742 81.3701 5.33203C81.1123 6.55664 80.8838 7.62305 80.6846 8.53125C80.4912 9.43945 80.3271 10.21 80.1924 10.8428C80.0576 11.4756 79.9463 12 79.8584 12.416C79.7705 12.832 79.7002 13.1572 79.6475 13.3916C79.6006 13.6201 79.5654 13.79 79.542 13.9014C79.5244 14.0127 79.5098 14.0947 79.498 14.1475V14.1826ZM88.4189 1.88672C90.0713 0.990234 90.9531 0.541992 91.0645 0.541992C91.1816 0.541992 91.2402 0.638672 91.2402 0.832031C91.2402 0.896484 91.2344 0.987305 91.2227 1.10449L88.542 13.418C88.5361 13.4648 88.5303 13.5117 88.5244 13.5586C88.5127 13.6406 88.5068 13.7197 88.5068 13.7959C88.5068 13.8662 88.5303 13.9365 88.5771 14.0068C88.624 14.0771 88.6738 14.1123 88.7266 14.1123C88.7852 14.1123 88.8555 14.0801 88.9375 14.0156C89.0254 13.9453 89.1133 13.8691 89.2012 13.7871C89.4473 13.5762 89.5996 13.4707 89.6582 13.4707C89.752 13.4707 89.7988 13.5234 89.7988 13.6289C89.7988 13.7402 89.4824 14.0391 88.8496 14.5254C88.2109 15.0234 87.8096 15.2725 87.6455 15.2725C87.4639 15.2725 87.3379 15.1523 87.2676 14.9121C87.2324 14.7832 87.2148 14.6396 87.2148 14.4814C87.2148 14.3174 87.2236 14.168 87.2412 14.0332C87.2588 13.8984 87.2793 13.7783 87.3027 13.6729C87.3262 13.5615 87.3496 13.459 87.373 13.3652C87.3965 13.2656 87.4111 13.166 87.417 13.0664C87.4229 12.9668 87.4023 12.917 87.3555 12.917C87.291 12.917 87.1475 13.0166 86.9248 13.2158C86.7021 13.4092 86.4971 13.5879 86.3096 13.752C86.1221 13.916 85.9229 14.0859 85.7119 14.2617C85.5068 14.4375 85.3047 14.5957 85.1055 14.7363C84.6543 15.0703 84.3232 15.2373 84.1123 15.2373C83.9014 15.2373 83.7285 15.1494 83.5938 14.9736C83.4648 14.7979 83.3652 14.5898 83.2949 14.3496C83.1777 13.9395 83.1191 13.5264 83.1191 13.1104C83.1191 12.6885 83.1719 12.2666 83.2773 11.8447C83.3887 11.417 83.541 10.9863 83.7344 10.5527C83.9336 10.1133 84.168 9.68848 84.4375 9.27832C84.7129 8.8623 85.0176 8.49316 85.3516 8.1709C86.0898 7.45605 86.8428 7.09863 87.6104 7.09863C87.8096 7.09863 87.9648 7.14258 88.0762 7.23047C88.2871 7.38867 88.4307 7.46777 88.5068 7.46777C88.583 7.46777 88.627 7.43555 88.6387 7.37109L89.7285 2.19434C89.752 2.10059 89.7637 2.02441 89.7637 1.96582C89.7637 1.81934 89.6992 1.74609 89.5703 1.74609C89.459 1.74609 89.3096 1.79004 89.1221 1.87793C88.9404 1.96582 88.7441 2.05957 88.5332 2.15918L88.4189 1.88672ZM85.1494 9.73535C84.5166 11.1123 84.2383 12.3076 84.3145 13.3213C84.3438 13.6787 84.4287 13.9248 84.5693 14.0596C84.71 14.1943 84.8711 14.2617 85.0527 14.2617C85.4746 14.0449 85.9287 13.7168 86.415 13.2773C86.9072 12.8379 87.2969 12.4893 87.584 12.2314L88.3311 8.84766C88.3486 8.75391 88.3574 8.67188 88.3574 8.60156C88.3574 8.52539 88.3311 8.43164 88.2783 8.32031C88.2314 8.20898 88.1611 8.10352 88.0674 8.00391C87.8389 7.76367 87.5576 7.64355 87.2236 7.64355C86.8955 7.64355 86.6113 7.75195 86.3711 7.96875C85.9082 8.38477 85.501 8.97363 85.1494 9.73535ZM94.7031 7.86328L93.3936 14.1914C93.3936 14.3203 93.4639 14.3848 93.6045 14.3848C93.8389 14.3848 94.252 14.0742 94.8438 13.4531C94.9082 13.3887 94.9551 13.3418 94.9844 13.3125L95.1514 13.4795C95.0459 13.6904 94.8115 13.9453 94.4482 14.2441C94.085 14.543 93.8184 14.748 93.6484 14.8594C93.2734 15.1113 92.9746 15.2373 92.752 15.2373C92.5352 15.2373 92.3711 15.1582 92.2598 15C92.1484 14.8359 92.0928 14.6953 92.0928 14.5781C92.0928 14.4141 92.1074 14.2705 92.1367 14.1475L93.4023 8.17969V8.14453C93.4023 8.01562 93.3291 7.95117 93.1826 7.95117C92.9307 7.95117 92.5469 8.22949 92.0312 8.78613C91.9258 8.90332 91.8496 8.98242 91.8027 9.02344L91.6357 8.85645C91.7529 8.62793 92.084 8.29102 92.6289 7.8457C93.2559 7.3418 93.7012 7.08984 93.9648 7.08984C94.2285 7.08984 94.416 7.17188 94.5273 7.33594C94.6445 7.49414 94.7031 7.66992 94.7031 7.86328ZM94.3428 4.7959C94.2725 4.69043 94.2256 4.59961 94.2021 4.52344C94.1846 4.44141 94.1758 4.35352 94.1758 4.25977C94.1758 4.16602 94.1934 4.03125 94.2285 3.85547C94.2695 3.67969 94.3281 3.50977 94.4043 3.3457C94.5801 2.95898 94.8115 2.76562 95.0986 2.76562C95.3623 2.76562 95.5352 2.91211 95.6172 3.20508C95.6406 3.28711 95.6523 3.375 95.6523 3.46875C95.6523 3.5625 95.6289 3.69434 95.582 3.86426C95.5352 4.03418 95.4707 4.20117 95.3887 4.36523C95.1777 4.75195 94.9434 4.94531 94.6855 4.94531C94.5332 4.94531 94.4189 4.89551 94.3428 4.7959ZM99.2559 7.08984C99.4668 7.08984 99.5723 7.28613 99.5723 7.67871C99.5723 7.85449 99.5605 7.98926 99.5371 8.08301C99.5195 8.17676 99.4932 8.30273 99.458 8.46094C99.4287 8.61914 99.3818 8.85645 99.3174 9.17285C99.2529 9.4834 99.1621 9.92871 99.0449 10.5088C99.0449 10.5732 99.0684 10.6055 99.1152 10.6055C99.168 10.6055 99.2148 10.582 99.2559 10.5352C99.3027 10.4824 99.373 10.4033 99.4668 10.2979C99.5605 10.1924 99.7041 10.0283 99.8975 9.80566C100.097 9.57715 100.308 9.34277 100.53 9.10254C100.759 8.85645 100.993 8.61328 101.233 8.37305C101.479 8.13281 101.723 7.91602 101.963 7.72266C102.508 7.30078 102.959 7.08984 103.316 7.08984C103.492 7.08984 103.645 7.16016 103.773 7.30078C103.908 7.43555 103.976 7.5791 103.976 7.73145C103.976 7.88379 103.967 7.99805 103.949 8.07422L102.385 14.1562V14.1914C102.385 14.3203 102.458 14.3848 102.604 14.3848C102.839 14.3848 103.252 14.0742 103.844 13.4531C103.908 13.3887 103.955 13.3418 103.984 13.3125L104.151 13.4795C104.034 13.708 103.703 14.0449 103.158 14.4902C102.531 14.9941 102.06 15.2461 101.743 15.2461C101.567 15.2461 101.412 15.1758 101.277 15.0352C101.148 14.9004 101.084 14.7598 101.084 14.6133C101.084 14.4609 101.093 14.3438 101.11 14.2617L102.675 8.17969V8.14453C102.675 8.0918 102.648 8.04785 102.596 8.0127C102.549 7.97168 102.484 7.9541 102.402 7.95996C102.326 7.95996 102.194 8.03027 102.007 8.1709C101.825 8.30566 101.623 8.48145 101.4 8.69824C101.178 8.91504 100.943 9.15527 100.697 9.41895C100.457 9.68262 100.226 9.94336 100.003 10.2012C99.3936 10.9043 99.0361 11.335 98.9307 11.4932C98.8311 11.6455 98.7637 11.8066 98.7285 11.9766L98.0957 14.9033C97.6914 15.1377 97.3809 15.2549 97.1641 15.2549C96.9473 15.2549 96.8389 15.1699 96.8389 15C96.8389 14.9238 96.8535 14.8242 96.8828 14.7012C96.9355 14.4668 96.9678 14.3174 96.9795 14.2529L98.1572 8.68066V8.64551C98.1572 8.48145 98.0898 8.39941 97.9551 8.39941C97.8672 8.39941 97.7207 8.50488 97.5156 8.71582C97.3105 8.9209 97.041 9.19336 96.707 9.5332L96.4961 9.31348C96.625 9.0498 97.0938 8.57812 97.9023 7.89844C98.5469 7.35938 98.998 7.08984 99.2559 7.08984ZM112.185 7.78418C112.185 7.87207 112.132 7.91602 112.026 7.91602H110.989C111.013 8.01562 111.042 8.12695 111.077 8.25C111.118 8.36719 111.156 8.50195 111.191 8.6543C111.273 9 111.314 9.37207 111.314 9.77051C111.314 10.1631 111.253 10.5322 111.13 10.8779C111.013 11.2236 110.854 11.543 110.655 11.8359C110.327 12.3164 109.829 12.8291 109.161 13.374C108.933 13.5615 108.59 13.7549 108.133 13.9541C107.682 14.1533 107.38 14.2998 107.228 14.3936C107.075 14.4873 106.999 14.6191 106.999 14.7891C106.999 14.9531 107.087 15.1377 107.263 15.3428C107.438 15.5479 107.658 15.75 107.922 15.9492C108.191 16.1484 108.479 16.3506 108.783 16.5557C109.094 16.7607 109.381 16.9746 109.645 17.1973C110.266 17.7129 110.576 18.2139 110.576 18.7002C110.576 19.5498 109.85 20.1328 108.396 20.4492C107.875 20.5664 107.345 20.625 106.806 20.625C106.267 20.625 105.757 20.6045 105.276 20.5635C104.796 20.5225 104.377 20.4434 104.02 20.3262C103.229 20.0801 102.833 19.6465 102.833 19.0254C102.833 18.5449 103.202 18.0498 103.94 17.54C104.339 17.2646 104.705 17.0361 105.039 16.8545C105.373 16.6729 105.596 16.5469 105.707 16.4766C106.035 16.2773 106.226 16.1514 106.278 16.0986C106.249 15.9873 106.211 15.873 106.164 15.7559C106.117 15.6445 106.094 15.5273 106.094 15.4043C106.094 15.2812 106.114 15.1729 106.155 15.0791C106.196 14.9854 106.249 14.8975 106.313 14.8154C106.384 14.7334 106.463 14.6484 106.551 14.5605C106.768 14.3555 106.876 14.2354 106.876 14.2002C106.876 14.165 106.844 14.1152 106.779 14.0508C106.721 13.9805 106.65 13.9043 106.568 13.8223C106.393 13.6699 106.246 13.5322 106.129 13.4092C106.018 13.2803 105.915 13.1279 105.821 12.9521C105.733 12.7764 105.66 12.5889 105.602 12.3896C105.496 12.0029 105.443 11.625 105.443 11.2559C105.443 10.8809 105.508 10.5293 105.637 10.2012C105.766 9.87305 105.941 9.55664 106.164 9.25195C106.387 8.94727 106.642 8.66309 106.929 8.39941C107.222 8.13574 107.532 7.90723 107.86 7.71387C108.563 7.29785 109.234 7.08984 109.873 7.08984C111.162 7.08984 111.915 7.1543 112.132 7.2832C112.167 7.30078 112.185 7.33301 112.185 7.37988V7.78418ZM104.477 17.7422C104.312 17.9062 104.181 18.0762 104.081 18.252C103.976 18.4336 103.923 18.6533 103.923 18.9111C103.923 19.1689 103.996 19.3975 104.143 19.5967C104.283 19.8018 104.488 19.9629 104.758 20.0801C105.215 20.2734 105.956 20.3701 106.981 20.3701C107.831 20.3701 108.537 20.2002 109.1 19.8604C109.469 19.6377 109.653 19.3564 109.653 19.0166C109.653 18.6299 109.27 18.1758 108.502 17.6543C108.291 17.5078 108.074 17.3613 107.852 17.2148L106.551 16.3359C106.457 16.4062 106.325 16.4883 106.155 16.582C105.991 16.6758 105.812 16.7812 105.619 16.8984C105.426 17.0215 105.227 17.1533 105.021 17.2939C104.822 17.4346 104.641 17.584 104.477 17.7422ZM110.172 9.33984C110.172 8.12695 109.776 7.52051 108.985 7.52051C108.552 7.52051 108.145 7.75781 107.764 8.23242C107.266 8.87695 106.932 9.74414 106.762 10.834C106.709 11.1562 106.683 11.4375 106.683 11.6777C106.683 11.9121 106.7 12.1406 106.735 12.3633C106.776 12.5801 106.844 12.7793 106.938 12.9609C107.154 13.3945 107.477 13.6113 107.904 13.6113C108.18 13.6113 108.467 13.459 108.766 13.1543C109.07 12.8438 109.302 12.5449 109.46 12.2578C109.624 11.9707 109.759 11.6689 109.864 11.3525C110.069 10.7373 110.172 10.0664 110.172 9.33984ZM123.821 1.88672C125.474 0.990234 126.355 0.541992 126.467 0.541992C126.584 0.541992 126.643 0.638672 126.643 0.832031C126.643 0.896484 126.637 0.987305 126.625 1.10449L123.944 13.418C123.938 13.4648 123.933 13.5117 123.927 13.5586C123.915 13.6406 123.909 13.7197 123.909 13.7959C123.909 13.8662 123.933 13.9365 123.979 14.0068C124.026 14.0771 124.076 14.1123 124.129 14.1123C124.188 14.1123 124.258 14.0801 124.34 14.0156C124.428 13.9453 124.516 13.8691 124.604 13.7871C124.85 13.5762 125.002 13.4707 125.061 13.4707C125.154 13.4707 125.201 13.5234 125.201 13.6289C125.201 13.7402 124.885 14.0391 124.252 14.5254C123.613 15.0234 123.212 15.2725 123.048 15.2725C122.866 15.2725 122.74 15.1523 122.67 14.9121C122.635 14.7832 122.617 14.6396 122.617 14.4814C122.617 14.3174 122.626 14.168 122.644 14.0332C122.661 13.8984 122.682 13.7783 122.705 13.6729C122.729 13.5615 122.752 13.459 122.775 13.3652C122.799 13.2656 122.813 13.166 122.819 13.0664C122.825 12.9668 122.805 12.917 122.758 12.917C122.693 12.917 122.55 13.0166 122.327 13.2158C122.104 13.4092 121.899 13.5879 121.712 13.752C121.524 13.916 121.325 14.0859 121.114 14.2617C120.909 14.4375 120.707 14.5957 120.508 14.7363C120.057 15.0703 119.726 15.2373 119.515 15.2373C119.304 15.2373 119.131 15.1494 118.996 14.9736C118.867 14.7979 118.768 14.5898 118.697 14.3496C118.58 13.9395 118.521 13.5264 118.521 13.1104C118.521 12.6885 118.574 12.2666 118.68 11.8447C118.791 11.417 118.943 10.9863 119.137 10.5527C119.336 10.1133 119.57 9.68848 119.84 9.27832C120.115 8.8623 120.42 8.49316 120.754 8.1709C121.492 7.45605 122.245 7.09863 123.013 7.09863C123.212 7.09863 123.367 7.14258 123.479 7.23047C123.689 7.38867 123.833 7.46777 123.909 7.46777C123.985 7.46777 124.029 7.43555 124.041 7.37109L125.131 2.19434C125.154 2.10059 125.166 2.02441 125.166 1.96582C125.166 1.81934 125.102 1.74609 124.973 1.74609C124.861 1.74609 124.712 1.79004 124.524 1.87793C124.343 1.96582 124.146 2.05957 123.936 2.15918L123.821 1.88672ZM120.552 9.73535C119.919 11.1123 119.641 12.3076 119.717 13.3213C119.746 13.6787 119.831 13.9248 119.972 14.0596C120.112 14.1943 120.273 14.2617 120.455 14.2617C120.877 14.0449 121.331 13.7168 121.817 13.2773C122.31 12.8379 122.699 12.4893 122.986 12.2314L123.733 8.84766C123.751 8.75391 123.76 8.67188 123.76 8.60156C123.76 8.52539 123.733 8.43164 123.681 8.32031C123.634 8.20898 123.563 8.10352 123.47 8.00391C123.241 7.76367 122.96 7.64355 122.626 7.64355C122.298 7.64355 122.014 7.75195 121.773 7.96875C121.311 8.38477 120.903 8.97363 120.552 9.73535ZM129.824 14.5254C130.381 14.5254 131.061 14.2793 131.863 13.7871L131.986 14.0068C131.371 14.4814 130.674 14.8389 129.895 15.0791C129.555 15.1846 129.206 15.2373 128.849 15.2373C128.497 15.2373 128.198 15.1611 127.952 15.0088C127.706 14.8623 127.504 14.6631 127.346 14.4111C127.053 13.9307 126.906 13.3096 126.906 12.5479C127.023 11.2471 127.492 10.043 128.312 8.93555C128.869 8.18555 129.537 7.65234 130.316 7.33594C130.715 7.17188 131.072 7.08984 131.389 7.08984C131.711 7.08984 131.96 7.11914 132.136 7.17773C132.312 7.23047 132.467 7.3125 132.602 7.42383C132.9 7.66406 133.05 7.96875 133.05 8.33789C133.05 8.70117 132.971 9.01465 132.812 9.27832C132.66 9.54199 132.458 9.77051 132.206 9.96387C131.954 10.1572 131.667 10.3242 131.345 10.4648C131.022 10.6055 130.694 10.7285 130.36 10.834C130.032 10.9395 129.707 11.0361 129.385 11.124C129.068 11.2061 128.79 11.291 128.55 11.3789C128.362 11.8184 128.269 12.2666 128.269 12.7236C128.269 13.5439 128.547 14.0947 129.104 14.376C129.303 14.4756 129.543 14.5254 129.824 14.5254ZM128.673 10.8516C128.673 10.9512 128.752 11.001 128.91 11.001C129.795 10.7432 130.428 10.4824 130.809 10.2188C131.189 9.94922 131.477 9.66797 131.67 9.375C131.869 9.08203 131.969 8.73047 131.969 8.32031C131.969 7.9043 131.84 7.63184 131.582 7.50293C131.494 7.45605 131.354 7.43262 131.16 7.43262C130.973 7.43262 130.771 7.49121 130.554 7.6084C130.337 7.71973 130.141 7.87207 129.965 8.06543C129.789 8.25293 129.631 8.4668 129.49 8.70703C129.35 8.94727 129.227 9.19336 129.121 9.44531C128.945 9.86719 128.796 10.3359 128.673 10.8516ZM133.7 15.0176C133.577 14.9473 133.472 14.8594 133.384 14.7539C133.302 14.6484 133.255 14.5166 133.243 14.3584C133.237 14.2002 133.296 14.0654 133.419 13.9541C133.548 13.8369 133.688 13.7783 133.841 13.7783C133.993 13.7783 134.166 13.8252 134.359 13.9189C134.553 14.0068 134.755 14.1064 134.966 14.2178C135.522 14.5107 135.936 14.6572 136.205 14.6572C136.475 14.6572 136.7 14.5518 136.882 14.3408C137.069 14.1299 137.163 13.8809 137.163 13.5938C137.163 13.3008 137.107 13.04 136.996 12.8115C136.885 12.583 136.744 12.3662 136.574 12.1611C136.41 11.9502 136.231 11.748 136.038 11.5547C135.845 11.3555 135.666 11.1504 135.502 10.9395C135.109 10.4473 134.913 10.0049 134.913 9.6123C134.913 9.21387 135.013 8.87109 135.212 8.58398C135.411 8.29688 135.663 8.04492 135.968 7.82812C136.618 7.36523 137.283 7.13379 137.963 7.13379C138.215 7.13379 138.408 7.21289 138.543 7.37109C138.789 7.6582 138.912 7.92188 138.912 8.16211C138.912 8.68945 138.719 8.95312 138.332 8.95312C138.168 8.95312 138.039 8.87695 137.945 8.72461C137.852 8.57227 137.781 8.44336 137.734 8.33789C137.688 8.22656 137.635 8.12695 137.576 8.03906C137.447 7.82227 137.301 7.71387 137.137 7.71387C136.979 7.71387 136.82 7.75488 136.662 7.83691C136.504 7.91309 136.363 8.0127 136.24 8.13574C135.953 8.41113 135.81 8.67773 135.81 8.93555C135.81 9.19336 135.862 9.41602 135.968 9.60352C136.079 9.79102 136.214 9.97559 136.372 10.1572C136.536 10.3389 136.712 10.5264 136.899 10.7197C137.087 10.9072 137.26 11.1094 137.418 11.3262C137.799 11.8359 137.989 12.3604 137.989 12.8994C137.989 13.6318 137.649 14.2207 136.97 14.666C136.765 14.8008 136.583 14.8945 136.425 14.9473C136.272 14.9941 136.155 15.0322 136.073 15.0615C135.997 15.0908 135.9 15.1172 135.783 15.1406C135.502 15.2051 135.197 15.2373 134.869 15.2373C134.541 15.2373 134.295 15.2168 134.131 15.1758C133.973 15.1406 133.829 15.0879 133.7 15.0176ZM142.41 9.76172C142.41 9.84375 142.448 9.88477 142.524 9.88477C142.56 9.88477 142.738 9.75293 143.061 9.48926C143.389 9.22559 143.685 8.98828 143.948 8.77734C144.218 8.56055 144.493 8.34668 144.774 8.13574C145.056 7.9248 145.325 7.73438 145.583 7.56445C146.157 7.17773 146.55 6.98438 146.761 6.98438C146.978 6.98438 147.147 7.04004 147.271 7.15137C147.399 7.25684 147.508 7.38867 147.596 7.54688C147.771 7.85156 147.859 8.16211 147.859 8.47852C147.859 8.78906 147.78 9.09082 147.622 9.38379C147.47 9.67676 147.232 9.94336 146.91 10.1836C146.178 10.7227 145.155 10.9922 143.843 10.9922C143.802 10.9922 143.761 11.0098 143.72 11.0449C143.685 11.0801 143.667 11.1152 143.667 11.1504C143.667 11.1855 143.69 11.2383 143.737 11.3086C143.784 11.373 143.872 11.502 144.001 11.6953C144.13 11.8828 144.273 12.085 144.432 12.3018C144.59 12.5186 144.76 12.7383 144.941 12.9609C145.129 13.1836 145.316 13.3828 145.504 13.5586C145.932 13.9688 146.295 14.1738 146.594 14.1738C146.77 14.1738 146.934 14.0859 147.086 13.9102C147.238 13.7285 147.347 13.5967 147.411 13.5146C147.481 13.4326 147.552 13.3916 147.622 13.3916C147.698 13.3916 147.736 13.4385 147.736 13.5322C147.736 13.5674 147.522 13.8076 147.095 14.2529C146.667 14.6924 146.418 14.9355 146.348 14.9824C146.283 15.0234 146.219 15.0439 146.154 15.0439C145.838 15.0439 145.513 14.918 145.179 14.666C144.845 14.4082 144.587 14.1768 144.405 13.9717C144.229 13.7666 144.068 13.5527 143.922 13.3301C143.775 13.1074 143.632 12.8818 143.491 12.6533C143.14 12.085 142.82 11.6602 142.533 11.3789C142.533 11.3789 142.48 11.3262 142.375 11.2207C142.311 11.1562 142.264 11.124 142.234 11.124C142.146 11.124 142.091 11.1797 142.067 11.291L141.312 14.9033C141.241 14.9326 141.165 14.9678 141.083 15.0088C141.007 15.0498 140.928 15.0879 140.846 15.123C140.641 15.2109 140.479 15.2549 140.362 15.2549C140.198 15.2549 140.116 15.1582 140.116 14.9648C140.116 14.7363 140.143 14.499 140.195 14.2529L142.762 2.19434C142.785 2.13574 142.797 2.05957 142.797 1.96582C142.797 1.81934 142.732 1.74609 142.604 1.74609C142.469 1.74609 142.287 1.80762 142.059 1.93066C141.836 2.04785 141.678 2.12402 141.584 2.15918L141.47 1.88672C141.728 1.74023 141.982 1.60254 142.234 1.47363C142.486 1.34473 142.659 1.25684 142.753 1.20996C142.847 1.15723 142.964 1.09277 143.104 1.0166C143.245 0.93457 143.383 0.858398 143.518 0.788086C143.822 0.624023 144.013 0.541992 144.089 0.541992C144.224 0.541992 144.291 0.635742 144.291 0.823242C144.291 0.881836 144.273 0.972656 144.238 1.0957L142.437 9.60352C142.419 9.67383 142.41 9.72656 142.41 9.76172ZM142.173 10.8076C142.425 10.8252 142.688 10.834 142.964 10.834C143.849 10.834 144.464 10.7754 144.81 10.6582C145.161 10.5352 145.454 10.4004 145.688 10.2539C145.923 10.1074 146.125 9.94336 146.295 9.76172C146.652 9.38086 146.831 8.98242 146.831 8.56641C146.831 8.20898 146.723 7.95117 146.506 7.79297C146.436 7.74609 146.333 7.72266 146.198 7.72266C145.776 7.72266 145.07 8.11816 144.08 8.90918C143.875 9.07324 143.629 9.27246 143.342 9.50684C143.061 9.74121 142.7 10.0371 142.261 10.3945L142.173 10.8076Z" fill="black"/>
</svg>
