<svg width="72" height="21" viewBox="0 0 72 21" fill="none" xmlns="http://www.w3.org/2000/svg">
<path d="M43.6714 5.67627C43.7935 5.66162 43.9448 5.6543 44.1255 5.6543C44.3062 5.6543 44.5063 5.67139 44.7261 5.70557V4.58496H45.1362V5.77881C45.9175 5.95459 46.4619 6.24023 46.7695 6.63574C46.8867 6.78223 46.9575 6.95068 46.9819 7.14111C46.9819 7.28271 46.9331 7.3999 46.8354 7.49268C46.7378 7.58545 46.6279 7.63184 46.5059 7.63184C46.3887 7.63184 46.2788 7.58301 46.1763 7.48535C46.0737 7.38281 45.9712 7.26318 45.8687 7.12646C45.7661 6.98486 45.6587 6.83838 45.5464 6.68701C45.4341 6.53076 45.3389 6.42578 45.2607 6.37207C45.1875 6.31836 45.146 6.28662 45.1362 6.27686V9.93164C45.2046 9.9707 45.3193 10.0342 45.4805 10.1221C45.9688 10.376 46.4058 10.7227 46.7915 11.1621C47.1772 11.5967 47.3701 12.0288 47.3701 12.4585C47.3701 13.2007 47.165 13.7842 46.7549 14.209C46.3496 14.6338 45.8101 14.9243 45.1362 15.0806V16.604H44.7261V15.1538C44.311 15.2075 43.9595 15.2173 43.6714 15.1831V16.604H43.2686V15.1099C42.4141 14.9194 41.7964 14.5557 41.4155 14.0186C41.2837 13.833 41.2129 13.6426 41.2031 13.4473C41.1934 13.2471 41.2446 13.0957 41.3569 12.9932C41.4741 12.8906 41.5986 12.8394 41.7305 12.8394C41.8623 12.8394 41.9648 12.8711 42.0381 12.9346C42.1455 13.0322 42.2554 13.2349 42.3677 13.5425C42.5679 14.0845 42.8682 14.458 43.2686 14.6631V10.188C42.7021 9.83643 42.3115 9.53369 42.0967 9.27979C41.6865 8.80615 41.4814 8.33496 41.4814 7.86621C41.4814 7.39258 41.6475 6.96045 41.9795 6.56982C42.3115 6.17432 42.7412 5.90332 43.2686 5.75684V4.58496H43.6714V5.67627ZM43.6714 14.8096C43.9692 14.8975 44.3208 14.9146 44.7261 14.8608V11.0449C44.5552 10.9424 44.3794 10.8423 44.1987 10.7446C44.0229 10.6421 43.8472 10.5371 43.6714 10.4297V14.8096ZM44.7261 6.07178C44.5454 6.01807 44.3159 5.99121 44.0376 5.99121C43.9009 5.99121 43.7788 5.99854 43.6714 6.01318V9.00879C43.9888 9.23828 44.3403 9.46777 44.7261 9.69727V6.07178ZM46.418 13.0371C46.418 12.5439 46.1592 12.0923 45.6416 11.6821C45.4854 11.5552 45.3169 11.4307 45.1362 11.3086V14.751C45.5122 14.6143 45.8125 14.397 46.0371 14.0991C46.2666 13.8013 46.3936 13.4473 46.418 13.0371ZM42.353 7.36084C42.353 7.61963 42.4141 7.83203 42.5361 7.99805C42.6631 8.16406 42.9072 8.40088 43.2686 8.7085V6.10107C42.6582 6.2915 42.353 6.71143 42.353 7.36084Z" fill="black"/>
<path d="M50.8696 6.18896L50.7524 8.91357C50.7524 8.97217 50.7549 8.99902 50.7598 8.99414C50.9014 8.85254 51.1626 8.75 51.5435 8.68652C51.9243 8.62305 52.2148 8.59131 52.415 8.59131C52.8398 8.59131 53.311 8.70605 53.8286 8.93555C54.3462 9.16016 54.7881 9.50195 55.1543 9.96094C55.5205 10.415 55.7036 10.9204 55.7036 11.4771C55.7036 12.4243 55.5059 13.1689 55.1104 13.7109C54.7197 14.2529 54.2314 14.6362 53.6455 14.8608C53.0645 15.0854 52.459 15.1978 51.8291 15.1978C51.2041 15.1978 50.6621 15.083 50.2031 14.8535C49.8955 14.7021 49.7246 14.5117 49.6904 14.2822C49.6904 14.1113 49.7466 13.9746 49.8589 13.8721C49.9761 13.7646 50.1079 13.7109 50.2544 13.7109C50.4058 13.7109 50.562 13.7695 50.7231 13.8867C50.8843 13.999 51.0454 14.126 51.2065 14.2676C51.3726 14.4043 51.5386 14.5312 51.7046 14.6484C51.8755 14.7607 52.0732 14.8169 52.2979 14.8169C52.752 14.8169 53.1499 14.6704 53.4917 14.3774C53.8384 14.0796 54.0947 13.7231 54.2607 13.3081C54.4268 12.8931 54.5098 12.5073 54.5098 12.1509C54.5098 11.4868 54.3633 10.9668 54.0703 10.5908C53.7822 10.2148 53.4502 9.96338 53.0742 9.83643C52.7031 9.70459 52.3833 9.63867 52.1147 9.63867C51.8462 9.63867 51.624 9.66797 51.4482 9.72656C51.2725 9.78516 51.1138 9.85107 50.9722 9.92432C50.8354 9.99268 50.7207 10.0586 50.6279 10.1221C50.54 10.1807 50.4814 10.2173 50.4521 10.2319C50.4229 10.2466 50.3911 10.2539 50.3569 10.2539C50.3276 10.2539 50.313 10.2173 50.313 10.144L50.5327 5.2002H54.2607C54.4951 5.2002 54.6367 5.1416 54.6855 5.02441C54.7002 4.98535 54.7197 4.94385 54.7441 4.8999H55.0444L54.8687 6.1377H51.0234C50.9209 6.1377 50.8696 6.15479 50.8696 6.18896ZM60.9404 8.91357C60.999 8.90381 61.0869 8.89893 61.2041 8.89893C61.7705 8.89893 62.2905 9.13574 62.7642 9.60938C63.2378 10.083 63.4746 10.6885 63.4746 11.4258C63.4746 12.1582 63.2793 12.8052 62.8887 13.3667C62.5029 13.9282 62.0195 14.375 61.4385 14.707C60.8623 15.0342 60.3032 15.1978 59.7612 15.1978C58.5747 15.1978 57.7666 14.9585 57.3369 14.48C57.2246 14.3579 57.144 14.2114 57.0952 14.0405C57.0952 13.7134 57.2979 13.5498 57.7031 13.5498C57.8057 13.5498 58.0107 13.6719 58.3184 13.916C58.6309 14.1553 58.9238 14.353 59.1973 14.5093C59.4707 14.6655 59.7783 14.7388 60.1201 14.729C60.7598 14.7095 61.2798 14.4019 61.6802 13.8062C62.0854 13.2056 62.2881 12.5513 62.2881 11.8433C62.2881 11.1304 62.1123 10.5933 61.7607 10.2319C61.4092 9.87061 60.9917 9.68994 60.5083 9.68994C60.2495 9.68994 60.0347 9.73877 59.8638 9.83643C59.6929 9.9292 59.5928 9.99512 59.5635 10.0342C59.5342 10.0732 59.5073 10.0928 59.4829 10.0928C59.4634 10.0928 59.4365 10.0732 59.4023 10.0342C59.3682 9.99512 59.3511 9.96094 59.3511 9.93164C59.3511 9.90234 59.3657 9.87305 59.395 9.84375C59.4292 9.80957 59.4683 9.77539 59.5122 9.74121C59.5562 9.70215 59.6001 9.66553 59.644 9.63135C60.8599 8.68408 61.4678 7.854 61.4678 7.14111C61.4678 6.73096 61.314 6.38916 61.0063 6.11572C60.6987 5.84229 60.3716 5.70557 60.0249 5.70557C59.1265 5.70557 58.4014 6.21094 57.8496 7.22168C57.8447 7.22656 57.8252 7.229 57.791 7.229C57.7617 7.229 57.7153 7.21436 57.6519 7.18506C57.5884 7.15576 57.5566 7.13379 57.5566 7.11914C57.5566 7.10449 57.5615 7.08252 57.5713 7.05322C57.5859 7.02393 57.625 6.92871 57.6885 6.76758C57.752 6.60645 57.8838 6.40137 58.084 6.15234C58.2891 5.89844 58.5137 5.67871 58.7578 5.49316C59.2803 5.09766 59.7515 4.8999 60.1714 4.8999C60.9429 4.8999 61.5288 5.05371 61.9292 5.36133C62.3296 5.66895 62.5298 6.09863 62.5298 6.65039C62.5298 7.19727 62.2319 7.76855 61.6362 8.36426C61.5337 8.44238 61.3872 8.54736 61.1968 8.6792C61.0112 8.80615 60.9185 8.88184 60.9185 8.90625V8.91357H60.9404ZM64.9468 12.0996C64.8296 12.0996 64.771 12.0557 64.771 11.9678C64.771 11.875 64.7905 11.7993 64.8296 11.7407L69.3706 5.06836C69.4438 4.95605 69.5293 4.8999 69.627 4.8999C69.7246 4.8999 69.8003 4.90723 69.854 4.92188C69.9126 4.93652 69.9419 4.99268 69.9419 5.09033V11.1108C69.9419 11.189 69.9541 11.2402 69.9785 11.2646C70.0029 11.2842 70.0518 11.2939 70.125 11.2939H71.3042C71.3579 11.2939 71.4092 11.2988 71.458 11.3086C71.5068 11.3184 71.5312 11.3574 71.5312 11.4258V11.9238C71.5312 12.041 71.4824 12.0996 71.3848 12.0996H70.1323C70.0396 12.0996 69.9834 12.1118 69.9639 12.1362C69.9492 12.1606 69.9419 12.207 69.9419 12.2754V15.1099C69.9419 15.2173 69.9004 15.271 69.8174 15.271H69.0264C68.9287 15.271 68.8799 15.2148 68.8799 15.1025V12.2754C68.8799 12.207 68.8677 12.1606 68.8433 12.1362C68.8237 12.1118 68.7725 12.0996 68.6895 12.0996H64.9468ZM68.8799 7.08984C68.8799 6.89941 68.8213 6.8042 68.7041 6.8042C68.665 6.8042 68.5942 6.85547 68.4917 6.95801L65.6792 11.1475C65.6597 11.1719 65.6499 11.2036 65.6499 11.2427C65.6499 11.2769 65.7256 11.2939 65.877 11.2939H68.6895C68.7725 11.2939 68.8237 11.2769 68.8433 11.2427C68.8677 11.2085 68.8799 11.1621 68.8799 11.1035V7.08984Z" fill="black"/>
<path d="M11.4502 9.07471C12.1045 9.07471 12.4316 8.75488 12.4316 8.11523C12.4316 8.07617 12.4512 8.05664 12.4902 8.05664H12.666C12.7051 8.05664 12.7246 8.07617 12.7246 8.11523V10.8398C12.7246 10.8789 12.7051 10.8984 12.666 10.8984H12.4902C12.4512 10.8984 12.4316 10.8789 12.4316 10.8398C12.4316 10.3906 12.3047 10.0806 12.0508 9.90967C11.9141 9.81689 11.7188 9.77051 11.4648 9.77051H8.5791C8.46191 9.77051 8.40332 9.83643 8.40332 9.96826V13.7329C8.40332 14.0649 8.60107 14.3115 8.99658 14.4727C9.39697 14.6289 9.64844 14.707 9.75098 14.707C9.8584 14.707 9.91211 14.7266 9.91211 14.7656V14.9414C9.91211 14.9805 9.89258 15 9.85352 15H5.85449C5.81543 15 5.7959 14.9805 5.7959 14.9414V14.7656C5.7959 14.7266 5.8374 14.707 5.92041 14.707C6.00342 14.707 6.13281 14.668 6.30859 14.5898C6.48438 14.5117 6.63818 14.397 6.77002 14.2456C6.90674 14.0894 6.9751 13.9014 6.9751 13.6816V5.77148C6.9751 5.4541 6.80664 5.22705 6.46973 5.09033C6.27441 5.00732 6.08154 4.96582 5.89111 4.96582H5.86182C5.82275 4.96582 5.80322 4.94629 5.80322 4.90723V4.73145C5.80322 4.69238 5.82275 4.67285 5.86182 4.67285H12.7686C12.8271 4.68262 12.8711 4.69727 12.9004 4.7168C12.9297 4.73145 12.9443 4.77295 12.9443 4.84131V6.61377C12.9443 6.67236 12.9346 6.70898 12.915 6.72363C12.9004 6.73828 12.8711 6.74561 12.8271 6.74561H12.7393C12.7295 6.74072 12.6953 6.60889 12.6367 6.3501C12.583 6.08643 12.4976 5.88379 12.3804 5.74219C12.1802 5.52734 11.9531 5.40771 11.6992 5.3833C11.5967 5.37354 11.4722 5.36865 11.3257 5.36865H8.5498C8.45215 5.36865 8.40332 5.41748 8.40332 5.51514V8.90625C8.40332 9.01855 8.46191 9.07471 8.5791 9.07471H11.4502ZM18.6865 9.74854C18.6279 9.73877 18.5425 9.70703 18.4302 9.65332C18.0249 9.46777 17.7075 9.375 17.478 9.375C17.2485 9.375 17.0068 9.51904 16.7529 9.80713C16.5039 10.0903 16.3794 10.3467 16.3794 10.5762V13.8867C16.3794 14.2529 16.5918 14.4971 17.0166 14.6191C17.2021 14.668 17.3755 14.7046 17.5366 14.729C17.6978 14.7485 17.8003 14.7681 17.8442 14.7876C17.8931 14.8071 17.9175 14.8462 17.9175 14.9048C17.9175 14.9585 17.8931 14.9902 17.8442 15H14.1748C14.126 14.9902 14.1016 14.9561 14.1016 14.8975C14.1016 14.8096 14.2163 14.751 14.4458 14.7217C14.9731 14.6436 15.2368 14.3652 15.2368 13.8867V10.0122C15.2368 9.80713 15.1245 9.66553 14.8999 9.5874C14.8022 9.55322 14.6973 9.52637 14.585 9.50684C14.4727 9.48242 14.3823 9.46045 14.314 9.44092C14.2505 9.42139 14.209 9.4043 14.1895 9.38965C14.1748 9.37012 14.1675 9.3335 14.1675 9.27979C14.1675 9.22119 14.2041 9.17236 14.2773 9.1333L16.145 8.25439C16.2036 8.2251 16.2402 8.21045 16.2549 8.21045C16.3379 8.21045 16.3794 8.26904 16.3794 8.38623V9.57275C16.3794 9.63135 16.394 9.66064 16.4233 9.66064C16.4624 9.66064 16.5625 9.5459 16.7236 9.31641C17.1875 8.66699 17.5708 8.34229 17.8735 8.34229C18.0444 8.34229 18.3057 8.41064 18.6572 8.54736C19.0137 8.68408 19.1919 8.79883 19.1919 8.8916C19.1919 9.00391 19.1357 9.1748 19.0234 9.4043C18.9111 9.63379 18.7988 9.74854 18.6865 9.74854ZM19.7485 11.7114C19.7485 10.7495 20.0879 9.92432 20.7666 9.23584C21.4502 8.54248 22.2681 8.1958 23.2202 8.1958C24.1724 8.1958 25 8.53271 25.7031 9.20654C26.4062 9.87549 26.7578 10.7031 26.7578 11.6895C26.7578 12.6758 26.4233 13.5083 25.7544 14.187C25.0903 14.8608 24.2554 15.1978 23.2495 15.1978C22.2437 15.1978 21.4087 14.856 20.7446 14.1724C20.0806 13.4888 19.7485 12.6685 19.7485 11.7114ZM21.5723 13.5938C22.0508 14.3994 22.7026 14.8022 23.5278 14.8022C24.1675 14.8022 24.6558 14.5459 24.9927 14.0332C25.3345 13.5205 25.5054 12.8906 25.5054 12.1436C25.5054 11.3965 25.2661 10.6299 24.7876 9.84375C24.314 9.05762 23.6743 8.66455 22.8687 8.66455C22.2778 8.66455 21.8115 8.9209 21.4697 9.43359C21.1328 9.94141 20.9644 10.5884 20.9644 11.3745C20.9644 12.1558 21.167 12.8955 21.5723 13.5938ZM37.4805 12.6929L37.4658 11.1475C37.4658 10.5176 37.4121 10.0757 37.3047 9.82178C37.1973 9.56787 37.0605 9.37744 36.8945 9.25049C36.7285 9.11865 36.5039 9.05273 36.2207 9.05273C35.9424 9.05273 35.3491 9.27246 34.4409 9.71191C34.3188 9.78516 34.2554 9.85352 34.2505 9.91699V13.8574C34.2505 14.3506 34.5142 14.6338 35.0415 14.707C35.271 14.7412 35.3857 14.7974 35.3857 14.8755C35.3857 14.9487 35.3613 14.9902 35.3125 15H32.0459C31.9971 14.9902 31.9727 14.9561 31.9727 14.8975C31.9727 14.8047 32.0874 14.7412 32.3169 14.707C32.8442 14.6338 33.1079 14.3506 33.1079 13.8574V10.21C33.1079 9.44336 32.6343 9.06006 31.687 9.06006C31.3403 9.06006 30.8594 9.26514 30.2441 9.67529C30.0879 9.77783 29.9731 9.87305 29.8999 9.96094V13.8574C29.8999 14.3506 30.1636 14.6338 30.6909 14.707C30.9204 14.7412 31.0352 14.7974 31.0352 14.8755C31.0352 14.9487 31.0107 14.9902 30.9619 15H27.6953C27.6465 14.9902 27.6221 14.9561 27.6221 14.8975C27.6221 14.8047 27.7368 14.7412 27.9663 14.707C28.4937 14.6338 28.7573 14.3555 28.7573 13.8721V9.65332C28.7573 9.44824 28.645 9.30664 28.4204 9.22852C28.3228 9.19434 28.2178 9.16748 28.1055 9.14795C27.9932 9.12354 27.9028 9.10156 27.8345 9.08203C27.771 9.0625 27.7295 9.04541 27.71 9.03076C27.6953 9.01123 27.688 8.97461 27.688 8.9209C27.688 8.8623 27.7246 8.81348 27.7979 8.77441L29.6655 7.89551C29.7241 7.86621 29.7607 7.85156 29.7754 7.85156C29.8584 7.85156 29.8999 7.91016 29.8999 8.02734V9.24316C29.9048 9.27246 29.9219 9.28711 29.9512 9.28711C29.9854 9.28711 30.0659 9.25293 30.1929 9.18457C30.3247 9.11621 30.4956 9.021 30.7056 8.89893C30.9155 8.77197 31.1914 8.62549 31.5332 8.45947C31.8799 8.29346 32.2461 8.21045 32.6318 8.21045C33.252 8.21045 33.6963 8.47656 33.9648 9.00879C34.0674 9.22363 34.1602 9.31641 34.2432 9.28711C34.3262 9.25293 34.4556 9.19189 34.6313 9.104C35.0464 8.89893 35.4663 8.69873 35.8911 8.50342C36.3159 8.30811 36.6675 8.21045 36.9458 8.21045C38.0737 8.21045 38.6377 9.23828 38.6377 11.2939L38.5718 13.4326V13.8574C38.5718 14.2383 38.7622 14.4873 39.1431 14.6045C39.3042 14.6582 39.458 14.6973 39.6045 14.7217C39.7559 14.7412 39.8535 14.7607 39.8975 14.7803C39.9463 14.7998 39.9707 14.8389 39.9707 14.8975C39.9707 14.9561 39.9463 14.9902 39.8975 15H36.3672C36.3184 14.9902 36.2939 14.9561 36.2939 14.8975C36.2939 14.8047 36.4087 14.7412 36.6382 14.707C37.1606 14.6338 37.4219 14.3311 37.4219 13.7988C37.4609 13.5547 37.4805 13.186 37.4805 12.6929Z" fill="black"/>
</svg>
