<svg width="80" height="11" viewBox="0 0 80 11" fill="none" xmlns="http://www.w3.org/2000/svg">
<path d="M10.4629 7.22461C10.3854 7.58008 10.3125 7.91276 10.2441 8.22266C10.1803 8.53255 10.1302 8.77409 10.0938 8.94727C10.0618 9.11589 10.0299 9.28223 9.99805 9.44629C9.9707 9.60579 9.94792 9.71289 9.92969 9.76758C9.91602 9.81771 9.89551 9.86784 9.86816 9.91797C9.84538 9.9681 9.79753 9.99316 9.72461 9.99316C9.65625 9.99316 9.59017 9.96582 9.52637 9.91113C9.46712 9.85645 9.4056 9.78809 9.3418 9.70605C9.28255 9.62402 9.22331 9.53743 9.16406 9.44629C9.10938 9.35059 8.89974 9.03841 8.53516 8.50977C8.17513 7.97656 7.7513 7.35449 7.26367 6.64355C6.7806 5.92806 6.36816 5.32422 6.02637 4.83203C5.68913 4.33529 5.41341 3.93197 5.19922 3.62207C4.98503 3.30762 4.81413 3.05697 4.68652 2.87012C4.55892 2.67871 4.46322 2.53743 4.39941 2.44629C4.33561 2.35059 4.2832 2.27083 4.24219 2.20703C4.08724 1.99284 3.98698 1.88574 3.94141 1.88574C3.87305 1.88574 3.81836 1.99056 3.77734 2.2002C3.60417 3.05241 3.42643 3.89095 3.24414 4.71582C3.06185 5.54069 2.91146 6.2334 2.79297 6.79395C2.67904 7.34993 2.62207 7.75326 2.62207 8.00391C2.62207 8.25 2.6403 8.47331 2.67676 8.67383C2.71322 8.87435 2.77246 9.05208 2.85449 9.20703C3.03678 9.55339 3.30566 9.72656 3.66113 9.72656C3.81608 9.72656 3.91406 9.7334 3.95508 9.74707C4.00065 9.76074 4.02344 9.79264 4.02344 9.84277V9.9043C4.02344 9.9681 3.97331 10 3.87305 10H0.790039C0.717122 10 0.662435 9.99316 0.625977 9.97949C0.589518 9.96582 0.571289 9.92708 0.571289 9.86328C0.571289 9.79492 0.584961 9.74707 0.612305 9.71973C0.639648 9.69238 0.673828 9.6696 0.714844 9.65137C0.755859 9.63314 0.799154 9.61947 0.844727 9.61035C0.894857 9.59668 0.95638 9.57617 1.0293 9.54883C1.10221 9.52148 1.19108 9.46908 1.2959 9.3916C1.40072 9.30957 1.4987 9.21615 1.58984 9.11133C1.78581 8.88346 1.91113 8.65332 1.96582 8.4209L3.4082 1.62598C3.41732 1.57129 3.43099 1.51204 3.44922 1.44824C3.46745 1.37988 3.47656 1.30469 3.47656 1.22266C3.47656 1.14062 3.43327 1.06087 3.34668 0.983398C3.26465 0.901367 3.16211 0.835286 3.03906 0.785156C2.8112 0.684896 2.60384 0.634766 2.41699 0.634766C2.2347 0.634766 2.11849 0.630208 2.06836 0.621094C2.01823 0.607422 1.99316 0.568685 1.99316 0.504883C1.99316 0.441081 2.01367 0.402344 2.05469 0.388672C2.0957 0.370443 2.16406 0.361328 2.25977 0.361328H3.97559C4.23535 0.361328 4.40397 0.384115 4.48145 0.429688C4.57715 0.479818 4.69336 0.607422 4.83008 0.8125L9.56738 7.77148C9.59473 7.8125 9.62435 7.86035 9.65625 7.91504C9.69271 7.96517 9.72461 7.99023 9.75195 7.99023C9.78385 7.99023 9.80664 7.96061 9.82031 7.90137C9.83398 7.83757 9.85221 7.76009 9.875 7.66895C9.90234 7.5778 9.92513 7.47754 9.94336 7.36816C9.96615 7.25423 9.99349 7.10612 10.0254 6.92383C10.0618 6.74154 10.1165 6.48177 10.1895 6.14453C10.2624 5.80729 10.3398 5.44499 10.4219 5.05762C10.6133 4.19173 10.7568 3.52865 10.8525 3.06836C10.9528 2.60352 11.028 2.26628 11.0781 2.05664C11.1283 1.84245 11.1533 1.6556 11.1533 1.49609C11.1533 1.1862 11.0371 0.940104 10.8047 0.757812C10.6999 0.675781 10.431 0.634766 9.99805 0.634766C9.93424 0.634766 9.89095 0.616536 9.86816 0.580078C9.84993 0.54362 9.84082 0.50944 9.84082 0.477539C9.84082 0.400065 9.9069 0.361328 10.0391 0.361328H13.0537C13.1585 0.361328 13.2109 0.406901 13.2109 0.498047C13.2109 0.589193 13.1585 0.634766 13.0537 0.634766H12.7803C12.4157 0.634766 12.1126 0.794271 11.8711 1.11328C11.7572 1.25911 11.6546 1.55306 11.5635 1.99512C11.4769 2.43717 11.4062 2.78581 11.3516 3.04102C11.2969 3.29622 11.2331 3.59245 11.1602 3.92969C11.0918 4.26237 11.0189 4.61328 10.9414 4.98242C10.8639 5.35156 10.7842 5.72754 10.7021 6.11035C10.6201 6.49316 10.5404 6.86458 10.4629 7.22461ZM14.4277 9.63086C14.8607 9.63086 15.3893 9.43945 16.0137 9.05664L16.1094 9.22754C15.6309 9.59668 15.0885 9.87467 14.4824 10.0615C14.2181 10.1436 13.9469 10.1846 13.6689 10.1846C13.3955 10.1846 13.1631 10.1253 12.9717 10.0068C12.7803 9.8929 12.623 9.73796 12.5 9.54199C12.2721 9.16829 12.1582 8.68522 12.1582 8.09277C12.2493 7.08105 12.6139 6.14453 13.252 5.2832C13.6849 4.69987 14.2044 4.28516 14.8105 4.03906C15.1204 3.91146 15.3984 3.84766 15.6445 3.84766C15.8952 3.84766 16.0889 3.87044 16.2256 3.91602C16.3623 3.95703 16.4831 4.02083 16.5879 4.10742C16.8203 4.29427 16.9365 4.53125 16.9365 4.81836C16.9365 5.10091 16.875 5.34473 16.752 5.5498C16.6335 5.75488 16.4762 5.93262 16.2803 6.08301C16.0843 6.2334 15.861 6.36328 15.6104 6.47266C15.3597 6.58203 15.1045 6.67773 14.8447 6.75977C14.5895 6.8418 14.3366 6.91699 14.0859 6.98535C13.8398 7.04915 13.6234 7.11523 13.4365 7.18359C13.2907 7.52539 13.2178 7.87402 13.2178 8.22949C13.2178 8.86751 13.4342 9.2959 13.8672 9.51465C14.0221 9.59212 14.209 9.63086 14.4277 9.63086ZM13.5322 6.77344C13.5322 6.85091 13.5938 6.88965 13.7168 6.88965C14.4049 6.68913 14.8971 6.48633 15.1934 6.28125C15.4896 6.07161 15.7129 5.85286 15.8633 5.625C16.0182 5.39714 16.0957 5.1237 16.0957 4.80469C16.0957 4.48112 15.9954 4.26921 15.7949 4.16895C15.7266 4.13249 15.6172 4.11426 15.4668 4.11426C15.321 4.11426 15.1637 4.15983 14.9951 4.25098C14.8265 4.33757 14.6738 4.45605 14.5371 4.60645C14.4004 4.75228 14.2773 4.91862 14.168 5.10547C14.0586 5.29232 13.9629 5.48372 13.8809 5.67969C13.7441 6.00781 13.6279 6.3724 13.5322 6.77344ZM22.5283 9.2207C22.5283 9.39844 22.5944 9.4873 22.7266 9.4873C22.918 9.4873 23.3008 9.17057 23.875 8.53711C24.4583 7.89909 24.8503 7.36589 25.0508 6.9375C25.2741 6.55924 25.4518 6.06478 25.584 5.4541C25.6204 5.27181 25.6387 5.14421 25.6387 5.07129C25.6387 4.99837 25.6204 4.94824 25.584 4.9209C25.5521 4.889 25.5156 4.85254 25.4746 4.81152C25.3607 4.70671 25.3037 4.60645 25.3037 4.51074C25.3037 4.41048 25.3219 4.31934 25.3584 4.2373C25.3994 4.15527 25.4518 4.08464 25.5156 4.02539C25.6569 3.90234 25.7913 3.84082 25.9189 3.84082C26.0465 3.84082 26.1491 3.86816 26.2266 3.92285C26.3086 3.97754 26.3838 4.05273 26.4521 4.14844C26.6117 4.36263 26.6914 4.55176 26.6914 4.71582C26.6914 4.87988 26.6777 5.0166 26.6504 5.12598C26.6276 5.23535 26.598 5.34701 26.5615 5.46094C26.4339 5.85286 26.2197 6.24479 25.9189 6.63672C25.6227 7.02865 25.3379 7.37728 25.0645 7.68262C24.7956 7.98796 24.5107 8.29102 24.21 8.5918C23.9137 8.89258 23.6243 9.16146 23.3418 9.39844C22.7174 9.92708 22.264 10.1914 21.9814 10.1914C21.6579 10.1914 21.4961 9.90658 21.4961 9.33691C21.4961 9.22298 21.5052 9.125 21.5234 9.04297L21.749 7.53906C21.749 7.48893 21.7285 7.46387 21.6875 7.46387C21.651 7.46387 21.6146 7.48438 21.5781 7.52539C21.5462 7.56185 21.4938 7.62109 21.4209 7.70312C21.348 7.78516 21.2386 7.91504 21.0928 8.09277C20.9469 8.26595 20.7897 8.44824 20.6211 8.63965C20.457 8.8265 20.2839 9.01335 20.1016 9.2002C19.9193 9.38704 19.737 9.55339 19.5547 9.69922C19.1536 10.0319 18.8164 10.1982 18.543 10.1982C18.4062 10.1982 18.2855 10.1436 18.1807 10.0342C18.0804 9.92936 18.0303 9.81999 18.0303 9.70605C18.0303 9.58757 18.0371 9.49642 18.0508 9.43262L18.7617 4.69531C18.7617 4.57682 18.7048 4.51758 18.5908 4.51758C18.3949 4.51758 18.0964 4.73405 17.6953 5.16699C17.6133 5.25814 17.554 5.31966 17.5176 5.35156L17.3877 5.22168C17.4788 5.04395 17.7363 4.7819 18.1602 4.43555C18.6478 4.04362 19.0146 3.84766 19.2607 3.84766C19.3975 3.84766 19.516 3.90234 19.6162 4.01172C19.721 4.11654 19.7734 4.22819 19.7734 4.34668C19.7734 4.46517 19.7666 4.55404 19.7529 4.61328L19.042 9.35059V9.37793C19.042 9.41895 19.0602 9.4554 19.0967 9.4873C19.1377 9.51465 19.1878 9.52832 19.2471 9.52832C19.3109 9.52832 19.4089 9.47363 19.541 9.36426C19.6777 9.25488 19.8258 9.11589 19.9854 8.94727C20.1449 8.77865 20.3112 8.5918 20.4844 8.38672C20.6576 8.18164 20.8239 7.97884 20.9834 7.77832C21.4528 7.19043 21.7194 6.84635 21.7832 6.74609C21.8516 6.64583 21.8994 6.52962 21.9268 6.39746L22.2549 4.12109C22.2549 4.02995 22.2799 3.96159 22.3301 3.91602C22.3802 3.87044 22.4235 3.84766 22.46 3.84766H23.1436C23.2438 3.86133 23.2939 3.92741 23.2939 4.0459L22.542 9.04297C22.5329 9.07943 22.5283 9.11133 22.5283 9.13867V9.2207ZM33.9307 4.6748C33.9307 4.79329 34.0241 4.85254 34.2109 4.85254H36.7402C37.1914 4.85254 37.5879 4.64062 37.9297 4.2168C38.0208 4.10286 38.0869 4.0026 38.1279 3.91602C38.1689 3.82943 38.2145 3.78613 38.2646 3.78613H38.3398C38.4082 3.78613 38.4424 3.80892 38.4424 3.85449C38.4424 3.85905 38.4401 3.86589 38.4355 3.875C38.4355 3.88411 38.431 3.91374 38.4219 3.96387C38.4128 4.014 38.3968 4.09147 38.374 4.19629C38.3512 4.30111 38.3216 4.44922 38.2852 4.64062C38.0299 5.86654 37.8887 6.49772 37.8613 6.53418C37.8385 6.57064 37.7998 6.58887 37.7451 6.58887C37.695 6.58887 37.6631 6.57747 37.6494 6.55469C37.6221 6.51367 37.6061 6.43392 37.6016 6.31543C37.597 6.19238 37.5811 6.07617 37.5537 5.9668C37.5264 5.85286 37.4808 5.75488 37.417 5.67285C37.3577 5.59082 37.2826 5.52702 37.1914 5.48145C37.041 5.40397 36.82 5.36523 36.5283 5.36523H34.0332C33.8691 5.36523 33.7666 5.43359 33.7256 5.57031C33.7119 5.60677 33.6891 5.69792 33.6572 5.84375C33.6299 5.98503 33.5934 6.1582 33.5479 6.36328C33.5068 6.5638 33.4613 6.78483 33.4111 7.02637C33.361 7.2679 33.3109 7.50716 33.2607 7.74414C33.0785 8.59635 32.9873 9.07715 32.9873 9.18652C32.9873 9.29134 33.026 9.38477 33.1035 9.4668C33.1855 9.54883 33.2881 9.60807 33.4111 9.64453C33.5798 9.69922 33.8623 9.72656 34.2588 9.72656C34.2861 9.72656 34.2998 9.74479 34.2998 9.78125L34.2656 9.94531C34.252 9.98177 34.2314 10 34.2041 10H30.54C30.5081 10 30.4922 9.98177 30.4922 9.94531L30.5264 9.78125C30.5446 9.74479 30.5993 9.72656 30.6904 9.72656C30.7861 9.72656 30.9001 9.71745 31.0322 9.69922C31.1689 9.67643 31.2897 9.63086 31.3945 9.5625C31.6178 9.41667 31.7705 9.14551 31.8525 8.74902C32.0485 7.83301 32.2194 7.02637 32.3652 6.3291C32.5156 5.62728 32.6455 5.01888 32.7549 4.50391C32.8688 3.98438 32.9622 3.54688 33.0352 3.19141C33.1126 2.83594 33.1742 2.54199 33.2197 2.30957C33.2699 2.07259 33.3086 1.8903 33.3359 1.7627C33.3633 1.63509 33.3815 1.53939 33.3906 1.47559C33.4089 1.38444 33.418 1.32975 33.418 1.31152C33.418 0.860352 32.9805 0.634766 32.1055 0.634766C32.0781 0.634766 32.0645 0.616536 32.0645 0.580078L32.0986 0.416016C32.1077 0.379557 32.1305 0.361328 32.167 0.361328H39.3174C39.4313 0.361328 39.5156 0.368164 39.5703 0.381836C39.6296 0.395508 39.6592 0.429688 39.6592 0.484375C39.6592 0.534505 39.6569 0.568685 39.6523 0.586914L39.2695 2.38477C39.2422 2.4987 39.1966 2.55566 39.1328 2.55566C39.0143 2.55566 38.946 2.50326 38.9277 2.39844C38.9141 2.33008 38.9072 2.2526 38.9072 2.16602C38.9072 2.07487 38.8981 1.97233 38.8799 1.8584C38.8662 1.73991 38.8275 1.60775 38.7637 1.46191C38.6999 1.31152 38.6156 1.18392 38.5107 1.0791C38.2829 0.851237 37.9889 0.737305 37.6289 0.737305H35.3115C35.0426 0.737305 34.8809 0.757812 34.8262 0.798828C34.7578 0.853516 34.6963 1.00391 34.6416 1.25L33.9375 4.59961C33.9329 4.61784 33.9307 4.6429 33.9307 4.6748ZM41.9219 8.96777C41.9401 8.88118 41.9583 8.80143 41.9766 8.72852C41.9948 8.65104 42.0062 8.57357 42.0107 8.49609C42.0153 8.41862 41.9993 8.37988 41.9629 8.37988C41.9128 8.37988 41.8011 8.45736 41.6279 8.6123C41.4548 8.7627 41.2952 8.90169 41.1494 9.0293C41.0036 9.1569 40.8486 9.28906 40.6846 9.42578C40.5251 9.5625 40.3678 9.68555 40.2129 9.79492C39.862 10.0547 39.6045 10.1846 39.4404 10.1846C39.2764 10.1846 39.1419 10.1162 39.0371 9.97949C38.9368 9.84277 38.8594 9.68099 38.8047 9.49414C38.7135 9.17513 38.668 8.86751 38.668 8.57129C38.668 7.62337 39.028 6.71419 39.748 5.84375C40.4362 5.02344 41.2816 4.44238 42.2842 4.10059C42.7809 3.93197 43.2868 3.84766 43.8018 3.84766C43.8792 3.84766 43.918 3.91146 43.918 4.03906L42.8857 8.76953C42.8812 8.80599 42.8766 8.84245 42.8721 8.87891C42.863 8.94271 42.8584 9.00423 42.8584 9.06348C42.8584 9.11816 42.8766 9.17285 42.9131 9.22754C42.9495 9.28223 42.9883 9.30957 43.0293 9.30957C43.0749 9.30957 43.1296 9.28451 43.1934 9.23438C43.2617 9.17969 43.3301 9.12044 43.3984 9.05664C43.5898 8.89258 43.7083 8.81055 43.7539 8.81055C43.8268 8.81055 43.8633 8.85156 43.8633 8.93359C43.8633 9.02018 43.6172 9.2526 43.125 9.63086C42.6283 10.0182 42.3161 10.2119 42.1885 10.2119C42.0472 10.2119 41.9492 10.1185 41.8945 9.93164C41.8672 9.83138 41.8535 9.71973 41.8535 9.59668C41.8535 9.46908 41.8604 9.35286 41.874 9.24805C41.8877 9.14323 41.9036 9.0498 41.9219 8.96777ZM42.8174 4.73633C42.8174 4.66341 42.7308 4.62695 42.5576 4.62695C42.3844 4.62695 42.1816 4.65885 41.9492 4.72266C41.7168 4.7819 41.4935 4.86849 41.2793 4.98242C40.4909 5.39714 39.985 6.09896 39.7617 7.08789C39.666 7.51628 39.6113 7.86035 39.5977 8.12012C39.5885 8.37988 39.5885 8.57129 39.5977 8.69434C39.6068 8.81738 39.6296 8.93359 39.666 9.04297C39.7572 9.29818 39.9258 9.42578 40.1719 9.42578C40.5 9.25716 40.8532 9.00195 41.2314 8.66016C41.6143 8.31836 41.9173 8.0472 42.1406 7.84668L42.8174 4.73633ZM46.4062 9.22754C46.4062 9.40527 46.4723 9.49414 46.6045 9.49414C46.8324 9.49414 47.222 9.17969 47.7734 8.55078C48.2975 7.94466 48.6689 7.40918 48.8877 6.94434C49.111 6.56608 49.2865 6.07161 49.4141 5.46094C49.4551 5.27865 49.4756 5.15104 49.4756 5.07812C49.4756 5.00521 49.4574 4.95508 49.4209 4.92773C49.389 4.89583 49.3503 4.85938 49.3047 4.81836C49.1953 4.71354 49.1406 4.61328 49.1406 4.51758C49.1406 4.41732 49.1589 4.32617 49.1953 4.24414C49.2363 4.16211 49.2887 4.09375 49.3525 4.03906C49.4938 3.91146 49.6283 3.84766 49.7559 3.84766C49.8835 3.84766 49.986 3.875 50.0635 3.92969C50.1455 3.98438 50.2207 4.05729 50.2891 4.14844C50.4486 4.36719 50.5283 4.55859 50.5283 4.72266C50.5283 4.88672 50.5146 5.02344 50.4873 5.13281C50.4645 5.24219 50.4349 5.35156 50.3984 5.46094C50.2708 5.84831 50.0589 6.24023 49.7627 6.63672C49.471 7.0332 49.193 7.38411 48.9287 7.68945C48.6689 7.99479 48.3932 8.29785 48.1016 8.59863C47.8145 8.89941 47.5342 9.16829 47.2607 9.40527C46.6501 9.93392 46.2057 10.1982 45.9277 10.1982C45.6042 10.1982 45.4424 9.91341 45.4424 9.34375C45.4424 9.22982 45.4515 9.13184 45.4697 9.0498L46.126 4.68164V4.6543C46.126 4.55859 46.0713 4.51074 45.9619 4.51074C45.8571 4.51074 45.7523 4.55176 45.6475 4.63379C45.5426 4.71126 45.4401 4.80241 45.3398 4.90723C45.2441 5.00749 45.1576 5.10775 45.0801 5.20801C45.0026 5.30827 44.9479 5.37663 44.916 5.41309L44.7725 5.29004C44.8636 5.10319 45.0368 4.88672 45.292 4.64062C45.5518 4.39453 45.7454 4.22591 45.873 4.13477C46.1602 3.91602 46.3857 3.80664 46.5498 3.80664C46.7139 3.80664 46.8483 3.86361 46.9531 3.97754C47.0625 4.09147 47.1172 4.23503 47.1172 4.4082C47.1172 4.44922 47.1126 4.49251 47.1035 4.53809L46.4199 9.0498C46.4108 9.12272 46.4062 9.18197 46.4062 9.22754ZM55.4639 3.84766C55.7327 3.84766 55.9902 4.08464 56.2363 4.55859C56.4961 5.05078 56.626 5.54525 56.626 6.04199C56.626 6.53418 56.569 6.95117 56.4551 7.29297C56.3411 7.63021 56.1862 7.94466 55.9902 8.23633C55.7988 8.52799 55.571 8.7946 55.3066 9.03613C55.0423 9.27311 54.7598 9.47591 54.459 9.64453C53.8346 10.0046 53.2126 10.1846 52.5928 10.1846C52.3467 10.1846 52.096 9.94531 51.8408 9.4668C51.5856 8.97917 51.458 8.52572 51.458 8.10645C51.458 7.68717 51.5127 7.29525 51.6221 6.93066C51.736 6.56152 51.8887 6.22201 52.0801 5.91211C52.276 5.59766 52.5039 5.31283 52.7637 5.05762C53.0234 4.80241 53.3014 4.58594 53.5977 4.4082C54.222 4.03451 54.8441 3.84766 55.4639 3.84766ZM52.7363 6.38379C52.6543 6.65267 52.5905 6.93066 52.5449 7.21777C52.5039 7.50033 52.4834 7.74186 52.4834 7.94238C52.4834 8.1429 52.5016 8.33887 52.5381 8.53027C52.5745 8.71712 52.6338 8.89714 52.7158 9.07031C52.9118 9.47591 53.1807 9.67871 53.5225 9.67871C54.1423 9.67871 54.6549 9.28223 55.0605 8.48926C55.4206 7.78288 55.6006 7.01042 55.6006 6.17188C55.6006 5.61133 55.4753 5.13281 55.2246 4.73633C55.0605 4.48112 54.8646 4.35352 54.6367 4.35352C54.4089 4.35352 54.1969 4.4082 54.001 4.51758C53.8096 4.62695 53.6341 4.77507 53.4746 4.96191C53.3197 5.14421 53.1784 5.3584 53.0508 5.60449C52.9277 5.85059 52.8229 6.11035 52.7363 6.38379ZM61.3838 4.94824L61.0488 4.89355C60.7708 4.89355 60.4837 5.03711 60.1875 5.32422C59.7956 5.71159 59.5449 6.13542 59.4355 6.5957C59.39 6.79622 59.3444 6.99902 59.2988 7.2041L58.7109 9.9248C58.6562 9.94759 58.5924 9.97493 58.5195 10.0068C58.4512 10.0387 58.3783 10.0684 58.3008 10.0957C58.1139 10.1641 57.9749 10.1982 57.8838 10.1982C57.7653 10.1982 57.7061 10.123 57.7061 9.97266C57.7061 9.89518 57.7539 9.63314 57.8496 9.18652C57.9453 8.73991 58.0501 8.25 58.1641 7.7168C58.278 7.17904 58.3714 6.73698 58.4443 6.39062C58.5218 6.04427 58.5788 5.77767 58.6152 5.59082C58.6562 5.39941 58.6882 5.26042 58.7109 5.17383C58.7337 5.06445 58.7451 5.00065 58.7451 4.98242C58.7451 4.90495 58.7178 4.86621 58.6631 4.86621C58.5719 4.86621 58.4808 4.91178 58.3896 5.00293L57.8154 5.56348C57.7926 5.58626 57.7721 5.59766 57.7539 5.59766C57.6536 5.59766 57.6035 5.5498 57.6035 5.4541C57.6035 5.36296 57.7083 5.22168 57.918 5.03027C58.1276 4.83431 58.2962 4.67936 58.4238 4.56543C58.556 4.4515 58.654 4.36491 58.7178 4.30566C58.7861 4.24642 58.8499 4.19173 58.9092 4.1416C58.973 4.09147 59.0391 4.04362 59.1074 3.99805C59.276 3.89323 59.4105 3.84082 59.5107 3.84082C59.6611 3.86361 59.7363 4.02311 59.7363 4.31934L59.6543 5.24219C59.6543 5.33789 59.6862 5.38574 59.75 5.38574C59.7865 5.38574 59.873 5.29232 60.0098 5.10547C60.151 4.91406 60.2604 4.77279 60.3379 4.68164C60.4199 4.58594 60.5042 4.48796 60.5908 4.3877C60.6774 4.28743 60.7708 4.19857 60.8711 4.12109C61.1035 3.93424 61.3314 3.84082 61.5547 3.84082C61.6868 3.84082 61.7734 3.94792 61.8145 4.16211C61.8281 4.22135 61.835 4.27832 61.835 4.33301C61.835 4.73405 61.6846 4.93913 61.3838 4.94824ZM64.6719 4.44922L63.6533 9.37109C63.6533 9.47135 63.708 9.52148 63.8174 9.52148C63.9997 9.52148 64.321 9.27995 64.7812 8.79688C64.8314 8.74674 64.8678 8.71029 64.8906 8.6875L65.0205 8.81738C64.9385 8.98145 64.7562 9.17969 64.4736 9.41211C64.1911 9.64453 63.9837 9.80404 63.8516 9.89062C63.5599 10.0866 63.3275 10.1846 63.1543 10.1846C62.9857 10.1846 62.8581 10.123 62.7715 10C62.6849 9.8724 62.6416 9.76302 62.6416 9.67188C62.6416 9.54427 62.653 9.43262 62.6758 9.33691L63.6602 4.69531V4.66797C63.6602 4.56771 63.6032 4.51758 63.4893 4.51758C63.2933 4.51758 62.9948 4.73405 62.5938 5.16699C62.5117 5.25814 62.4525 5.31966 62.416 5.35156L62.2861 5.22168C62.3773 5.04395 62.6348 4.7819 63.0586 4.43555C63.5462 4.04362 63.8926 3.84766 64.0977 3.84766C64.3027 3.84766 64.4486 3.91146 64.5352 4.03906C64.6263 4.16211 64.6719 4.29883 64.6719 4.44922ZM64.3916 2.06348C64.3369 1.98145 64.3005 1.91081 64.2822 1.85156C64.2686 1.78776 64.2617 1.7194 64.2617 1.64648C64.2617 1.57357 64.2754 1.46875 64.3027 1.33203C64.3346 1.19531 64.3802 1.06315 64.4395 0.935547C64.5762 0.634766 64.7562 0.484375 64.9795 0.484375C65.1846 0.484375 65.319 0.598307 65.3828 0.826172C65.401 0.889974 65.4102 0.958333 65.4102 1.03125C65.4102 1.10417 65.3919 1.20671 65.3555 1.33887C65.319 1.47103 65.2689 1.60091 65.2051 1.72852C65.041 2.0293 64.8587 2.17969 64.6582 2.17969C64.5397 2.17969 64.4508 2.14095 64.3916 2.06348ZM66.8662 10.1846C66.4606 10.1846 66.2578 10 66.2578 9.63086C66.2578 9.55339 66.2669 9.47591 66.2852 9.39844L67.3379 4.42871C67.347 4.38314 67.3516 4.34668 67.3516 4.31934C67.3516 4.25098 67.3174 4.2168 67.249 4.2168H66.9414C66.8229 4.2168 66.7637 4.17578 66.7637 4.09375C66.7637 4.00716 66.7956 3.95247 66.8594 3.92969C66.9277 3.9069 66.9847 3.89095 67.0303 3.88184C67.0758 3.87272 67.1305 3.85677 67.1943 3.83398C67.2627 3.80664 67.3516 3.75195 67.4609 3.66992C67.5703 3.58333 67.6797 3.48535 67.7891 3.37598C67.903 3.26204 68.0146 3.14355 68.124 3.02051C68.2334 2.89746 68.3359 2.77669 68.4316 2.6582C68.6777 2.36198 68.8304 2.18424 68.8896 2.125C68.9899 2.14779 69.0697 2.18424 69.1289 2.23438C69.0924 2.33008 69.0446 2.44173 68.9854 2.56934C68.9261 2.69694 68.8691 2.82682 68.8145 2.95898C68.6732 3.28255 68.5911 3.51953 68.5684 3.66992V3.69727C68.5684 3.79753 68.623 3.84766 68.7324 3.84766H69.6211L69.5459 4.2168H68.5547C68.4316 4.2168 68.3542 4.29655 68.3223 4.45605L67.3721 8.89941C67.3493 8.99512 67.3333 9.07259 67.3242 9.13184C67.3151 9.18652 67.306 9.22982 67.2969 9.26172C67.2923 9.29362 67.29 9.31641 67.29 9.33008V9.35742C67.29 9.46224 67.3402 9.51465 67.4404 9.51465C67.6136 9.51465 67.8073 9.40755 68.0215 9.19336L68.7803 8.43457L68.876 8.53711C68.8122 8.73307 68.5547 9.03841 68.1035 9.45312C67.5885 9.94076 67.1761 10.1846 66.8662 10.1846ZM72.2324 9.63086C72.6654 9.63086 73.194 9.43945 73.8184 9.05664L73.9141 9.22754C73.4355 9.59668 72.8932 9.87467 72.2871 10.0615C72.0228 10.1436 71.7516 10.1846 71.4736 10.1846C71.2002 10.1846 70.9678 10.1253 70.7764 10.0068C70.585 9.8929 70.4277 9.73796 70.3047 9.54199C70.0768 9.16829 69.9629 8.68522 69.9629 8.09277C70.054 7.08105 70.4186 6.14453 71.0566 5.2832C71.4896 4.69987 72.0091 4.28516 72.6152 4.03906C72.9251 3.91146 73.2031 3.84766 73.4492 3.84766C73.6999 3.84766 73.8936 3.87044 74.0303 3.91602C74.167 3.95703 74.2878 4.02083 74.3926 4.10742C74.625 4.29427 74.7412 4.53125 74.7412 4.81836C74.7412 5.10091 74.6797 5.34473 74.5566 5.5498C74.4382 5.75488 74.2809 5.93262 74.085 6.08301C73.889 6.2334 73.6657 6.36328 73.415 6.47266C73.1644 6.58203 72.9092 6.67773 72.6494 6.75977C72.3942 6.8418 72.1413 6.91699 71.8906 6.98535C71.6445 7.04915 71.4281 7.11523 71.2412 7.18359C71.0954 7.52539 71.0225 7.87402 71.0225 8.22949C71.0225 8.86751 71.2389 9.2959 71.6719 9.51465C71.8268 9.59212 72.0137 9.63086 72.2324 9.63086ZM71.3369 6.77344C71.3369 6.85091 71.3984 6.88965 71.5215 6.88965C72.2096 6.68913 72.7018 6.48633 72.998 6.28125C73.2943 6.07161 73.5176 5.85286 73.668 5.625C73.8229 5.39714 73.9004 5.1237 73.9004 4.80469C73.9004 4.48112 73.8001 4.26921 73.5996 4.16895C73.5312 4.13249 73.4219 4.11426 73.2715 4.11426C73.1257 4.11426 72.9684 4.15983 72.7998 4.25098C72.6312 4.33757 72.4785 4.45605 72.3418 4.60645C72.2051 4.75228 72.082 4.91862 71.9727 5.10547C71.8633 5.29232 71.7676 5.48372 71.6855 5.67969C71.5488 6.00781 71.4326 6.3724 71.3369 6.77344ZM77.4619 9.27539C77.3981 9.57617 77.332 9.77669 77.2637 9.87695C77.1178 10.082 76.9036 10.1846 76.6211 10.1846C76.3978 10.1846 76.2588 10.0137 76.2041 9.67188C76.1904 9.58529 76.1836 9.4987 76.1836 9.41211C76.1836 9.32552 76.2064 9.23665 76.252 9.14551C76.2975 9.0498 76.3568 8.96549 76.4297 8.89258C76.5801 8.73307 76.7533 8.65332 76.9492 8.65332C77.291 8.65332 77.4619 8.86068 77.4619 9.27539ZM78.0908 0.292969C78.1136 0.151693 78.182 0.078776 78.2959 0.0742188L79.0342 0.108398C79.0843 0.112956 79.1367 0.12207 79.1914 0.135742C79.2507 0.149414 79.2803 0.179036 79.2803 0.224609C79.2803 0.265625 79.278 0.295247 79.2734 0.313477L77.3867 7.41602H76.9834L78.0908 0.292969Z" fill="#BC1414"/>
</svg>
