<svg width="113" height="15" viewBox="0 0 113 15" fill="none" xmlns="http://www.w3.org/2000/svg">
<path d="M0.484375 8.61719H3.41406V5.57812H4.40625V8.61719H7.29688V9.60938H4.40625V12.6172H3.41406V9.60938H0.484375V8.61719ZM12.9766 10.9062C12.8516 10.9062 12.7891 10.8594 12.7891 10.7656C12.7891 10.6667 12.8099 10.5859 12.8516 10.5234L17.6953 3.40625C17.7734 3.28646 17.8646 3.22656 17.9688 3.22656C18.0729 3.22656 18.1536 3.23438 18.2109 3.25C18.2734 3.26562 18.3047 3.32552 18.3047 3.42969V9.85156C18.3047 9.9349 18.3177 9.98958 18.3438 10.0156C18.3698 10.0365 18.4219 10.0469 18.5 10.0469H19.7578C19.8151 10.0469 19.8698 10.0521 19.9219 10.0625C19.974 10.0729 20 10.1146 20 10.1875V10.7188C20 10.8438 19.9479 10.9062 19.8438 10.9062H18.5078C18.4089 10.9062 18.349 10.9193 18.3281 10.9453C18.3125 10.9714 18.3047 11.0208 18.3047 11.0938V14.1172C18.3047 14.2318 18.2604 14.2891 18.1719 14.2891H17.3281C17.224 14.2891 17.1719 14.2292 17.1719 14.1094V11.0938C17.1719 11.0208 17.1589 10.9714 17.1328 10.9453C17.112 10.9193 17.0573 10.9062 16.9688 10.9062H12.9766ZM17.1719 5.5625C17.1719 5.35938 17.1094 5.25781 16.9844 5.25781C16.9427 5.25781 16.8672 5.3125 16.7578 5.42188L13.7578 9.89062C13.737 9.91667 13.7266 9.95052 13.7266 9.99219C13.7266 10.0286 13.8073 10.0469 13.9688 10.0469H16.9688C17.0573 10.0469 17.112 10.0286 17.1328 9.99219C17.1589 9.95573 17.1719 9.90625 17.1719 9.84375V5.5625ZM31.4766 7.69531C31.4766 8.0599 31.2656 8.24219 30.8438 8.24219C30.6302 8.24219 30.4479 8.18229 30.2969 8.0625C30.151 7.9375 30.0365 7.83333 29.9531 7.75C29.875 7.66146 29.7917 7.58073 29.7031 7.50781C29.3281 7.20052 28.8698 7.16667 28.3281 7.40625C27.7917 7.64583 27.3776 8.15625 27.0859 8.9375C26.9245 9.36979 26.8438 9.79948 26.8438 10.2266C26.8438 11.1432 27.0521 11.8932 27.4688 12.4766C27.8854 13.0547 28.5234 13.3438 29.3828 13.3438C30.0234 13.3438 30.599 13.0573 31.1094 12.4844C31.2656 12.3125 31.3594 12.2266 31.3906 12.2266C31.4219 12.2266 31.4557 12.2422 31.4922 12.2734C31.5286 12.3047 31.5469 12.3516 31.5469 12.4141C31.5469 12.4714 31.5312 12.5156 31.5 12.5469C30.7031 13.6562 29.7005 14.2109 28.4922 14.2109C27.6172 14.2109 26.8984 13.8854 26.3359 13.2344C25.7786 12.5833 25.5 11.8385 25.5 11C25.5052 9.44792 25.8802 8.33073 26.625 7.64844C27.2812 7.04948 28.2161 6.75 29.4297 6.75C30.1797 6.75 30.6771 6.82552 30.9219 6.97656C31.1667 7.1276 31.3385 7.31771 31.4375 7.54688C31.4635 7.59896 31.4766 7.64844 31.4766 7.69531ZM32.6797 10.4922C32.6797 9.46615 33.0417 8.58594 33.7656 7.85156C34.4948 7.11198 35.3672 6.74219 36.3828 6.74219C37.3984 6.74219 38.2812 7.10156 39.0312 7.82031C39.7812 8.53385 40.1562 9.41667 40.1562 10.4688C40.1562 11.5208 39.7995 12.4089 39.0859 13.1328C38.3776 13.8516 37.487 14.2109 36.4141 14.2109C35.3411 14.2109 34.4505 13.8464 33.7422 13.1172C33.0339 12.388 32.6797 11.513 32.6797 10.4922ZM34.625 12.5C35.1354 13.3594 35.8307 13.7891 36.7109 13.7891C37.3932 13.7891 37.9141 13.5156 38.2734 12.9688C38.638 12.4219 38.8203 11.75 38.8203 10.9531C38.8203 10.1562 38.5651 9.33854 38.0547 8.5C37.5495 7.66146 36.8672 7.24219 36.0078 7.24219C35.3776 7.24219 34.8802 7.51562 34.5156 8.0625C34.1562 8.60417 33.9766 9.29427 33.9766 10.1328C33.9766 10.9661 34.1927 11.7552 34.625 12.5ZM44.1797 13.7031C44.4245 13.7344 44.5469 13.7969 44.5469 13.8906C44.5469 13.9531 44.5208 13.9896 44.4688 14H40.9844C40.9323 13.9896 40.9062 13.9531 40.9062 13.8906C40.9062 13.7969 41.0286 13.7344 41.2734 13.7031C41.8359 13.6198 42.1172 13.3229 42.1172 12.8125V3.07031C42.1172 2.85156 41.9974 2.70052 41.7578 2.61719C41.6536 2.58073 41.5417 2.55208 41.4219 2.53125C41.3021 2.50521 41.2057 2.48177 41.1328 2.46094C41.0651 2.4401 41.0208 2.42188 41 2.40625C40.9844 2.38542 40.9766 2.34635 40.9766 2.28906C40.9766 2.22656 41.0156 2.17448 41.0938 2.13281L43.0859 1.19531C43.1484 1.16406 43.1875 1.14844 43.2031 1.14844C43.2917 1.14844 43.3359 1.21094 43.3359 1.33594V12.8125C43.3359 13.3229 43.6172 13.6198 44.1797 13.7031ZM45.4141 10.4922C45.4141 9.46615 45.776 8.58594 46.5 7.85156C47.2292 7.11198 48.1016 6.74219 49.1172 6.74219C50.1328 6.74219 51.0156 7.10156 51.7656 7.82031C52.5156 8.53385 52.8906 9.41667 52.8906 10.4688C52.8906 11.5208 52.5339 12.4089 51.8203 13.1328C51.112 13.8516 50.2214 14.2109 49.1484 14.2109C48.0755 14.2109 47.1849 13.8464 46.4766 13.1172C45.7682 12.388 45.4141 11.513 45.4141 10.4922ZM47.3594 12.5C47.8698 13.3594 48.5651 13.7891 49.4453 13.7891C50.1276 13.7891 50.6484 13.5156 51.0078 12.9688C51.3724 12.4219 51.5547 11.75 51.5547 10.9531C51.5547 10.1562 51.2995 9.33854 50.7891 8.5C50.2839 7.66146 49.6016 7.24219 48.7422 7.24219C48.112 7.24219 47.6146 7.51562 47.25 8.0625C46.8906 8.60417 46.7109 9.29427 46.7109 10.1328C46.7109 10.9661 46.9271 11.7552 47.3594 12.5ZM58.7812 8.39844C58.7188 8.38802 58.6276 8.35417 58.5078 8.29688C58.0755 8.09896 57.737 8 57.4922 8C57.2474 8 56.9896 8.15365 56.7188 8.46094C56.4531 8.76302 56.3203 9.03646 56.3203 9.28125V12.8125C56.3203 13.2031 56.5469 13.4635 57 13.5938C57.1979 13.6458 57.3828 13.6849 57.5547 13.7109C57.7266 13.7318 57.8359 13.7526 57.8828 13.7734C57.9349 13.7943 57.9609 13.8359 57.9609 13.8984C57.9609 13.9557 57.9349 13.9896 57.8828 14H53.9688C53.9167 13.9896 53.8906 13.9531 53.8906 13.8906C53.8906 13.7969 54.013 13.7344 54.2578 13.7031C54.8203 13.6198 55.1016 13.3229 55.1016 12.8125V8.67969C55.1016 8.46094 54.9818 8.3099 54.7422 8.22656C54.638 8.1901 54.526 8.16146 54.4062 8.14062C54.2865 8.11458 54.1901 8.09115 54.1172 8.07031C54.0495 8.04948 54.0052 8.03125 53.9844 8.01562C53.9688 7.99479 53.9609 7.95573 53.9609 7.89844C53.9609 7.83594 54 7.78385 54.0781 7.74219L56.0703 6.80469C56.1328 6.77344 56.1719 6.75781 56.1875 6.75781C56.276 6.75781 56.3203 6.82031 56.3203 6.94531V8.21094C56.3203 8.27344 56.3359 8.30469 56.3672 8.30469C56.4089 8.30469 56.5156 8.18229 56.6875 7.9375C57.1823 7.24479 57.5911 6.89844 57.9141 6.89844C58.0964 6.89844 58.375 6.97135 58.75 7.11719C59.1302 7.26302 59.3203 7.38542 59.3203 7.48438C59.3203 7.60417 59.2604 7.78646 59.1406 8.03125C59.0208 8.27604 58.901 8.39844 58.7812 8.39844ZM69.8828 8.84375C69.8828 8.27604 69.599 7.99219 69.0312 7.99219H66.4688C66.401 7.99219 66.3672 8.01823 66.3672 8.07031V12.6562C66.3672 13.401 67.013 13.7734 68.3047 13.7734C68.3984 13.7839 68.4453 13.8177 68.4453 13.875C68.4453 13.9583 68.3984 14 68.3047 14H64.0156C63.9635 13.9896 63.9375 13.9531 63.9375 13.8906C63.9375 13.7969 64.0599 13.7344 64.3047 13.7031C64.8672 13.6198 65.1484 13.3229 65.1484 12.8125V8.07812C65.1484 8.02083 65.1172 7.99219 65.0547 7.99219H64.2031C64.1406 7.99219 64.0807 7.97396 64.0234 7.9375C63.9661 7.89583 63.9375 7.84375 63.9375 7.78125C63.9375 7.71354 63.9688 7.66146 64.0312 7.625C64.1198 7.57292 64.3281 7.5026 64.6562 7.41406C64.9844 7.32552 65.1484 7.17969 65.1484 6.97656V6.71875C65.1484 4.84375 65.5547 3.40104 66.3672 2.39062C66.8203 1.82292 67.5104 1.38542 68.4375 1.07812C68.7188 0.984375 68.9974 0.9375 69.2734 0.9375C69.5495 0.9375 69.8724 1.01042 70.2422 1.15625C70.612 1.29688 70.7969 1.46875 70.7969 1.67188C70.7969 1.71354 70.7891 1.75 70.7734 1.78125C70.763 1.8125 70.75 1.85156 70.7344 1.89844L70.4141 2.58594C70.3828 2.65885 70.3411 2.69531 70.2891 2.69531C70.237 2.69531 70.1172 2.61979 69.9297 2.46875C69.7474 2.31771 69.5339 2.16927 69.2891 2.02344C69.0443 1.8776 68.7656 1.80469 68.4531 1.80469C67.8438 1.80469 67.3828 1.96094 67.0703 2.27344C66.7578 2.58594 66.5625 2.9401 66.4844 3.33594C66.4062 3.72656 66.3672 4.15885 66.3672 4.63281V6.90625C66.3672 6.94792 66.3932 6.96875 66.4453 6.96875H70.3359C70.5755 6.96875 70.763 7.04167 70.8984 7.1875C71.0339 7.33333 71.1016 7.5026 71.1016 7.69531V12.8125C71.1016 13.3229 71.3828 13.6198 71.9453 13.7031C72.1901 13.7344 72.3125 13.7891 72.3125 13.8672C72.3125 13.9453 72.2865 13.9896 72.2344 14H68.75C68.6979 13.9896 68.6719 13.9531 68.6719 13.8906C68.6719 13.7969 68.7943 13.7344 69.0391 13.7031C69.6016 13.6198 69.8828 13.3229 69.8828 12.8125V8.84375ZM78.9219 11.5391L78.9062 9.89062C78.9062 9.21875 78.849 8.7474 78.7344 8.47656C78.6198 8.20573 78.474 8.0026 78.2969 7.86719C78.1198 7.72656 77.8802 7.65625 77.5781 7.65625C77.2812 7.65625 76.6484 7.89062 75.6797 8.35938C75.5495 8.4375 75.4818 8.51042 75.4766 8.57812V12.7812C75.4766 13.3073 75.7578 13.6094 76.3203 13.6875C76.5651 13.724 76.6875 13.7839 76.6875 13.8672C76.6875 13.9453 76.6615 13.9896 76.6094 14H73.125C73.0729 13.9896 73.0469 13.9531 73.0469 13.8906C73.0469 13.7917 73.1693 13.724 73.4141 13.6875C73.9766 13.6094 74.2578 13.3073 74.2578 12.7812V8.29688C74.2578 8.07812 74.138 7.92708 73.8984 7.84375C73.7943 7.80729 73.6823 7.77865 73.5625 7.75781C73.4427 7.73177 73.3464 7.70833 73.2734 7.6875C73.2057 7.66667 73.1615 7.64844 73.1406 7.63281C73.125 7.61198 73.1172 7.57292 73.1172 7.51562C73.1172 7.45312 73.1562 7.40104 73.2344 7.35938L75.2266 6.42188C75.2891 6.39062 75.3281 6.375 75.3438 6.375C75.4323 6.375 75.4766 6.4375 75.4766 6.5625V7.78125C75.4922 7.83333 75.513 7.85938 75.5391 7.85938C75.5703 7.85938 75.6823 7.8125 75.875 7.71875C76.3229 7.49479 76.7734 7.27865 77.2266 7.07031C77.6797 6.86198 78.0547 6.75781 78.3516 6.75781C79.5547 6.75781 80.1562 7.85417 80.1562 10.0469L80.0859 12.3281V12.7812C80.0859 13.1875 80.2891 13.4531 80.6953 13.5781C80.8672 13.6354 81.0312 13.6771 81.1875 13.7031C81.349 13.724 81.4531 13.7448 81.5 13.7656C81.5521 13.7865 81.5781 13.8281 81.5781 13.8906C81.5781 13.9531 81.5521 13.9896 81.5 14H77.7344C77.6823 13.9896 77.6562 13.9531 77.6562 13.8906C77.6562 13.7917 77.7786 13.724 78.0234 13.6875C78.5807 13.6094 78.8594 13.2865 78.8594 12.7188C78.901 12.4583 78.9219 12.0651 78.9219 11.5391ZM82.2812 14C82.2292 13.9896 82.2031 13.9531 82.2031 13.8906C82.2031 13.7969 82.3255 13.7344 82.5703 13.7031C83.1328 13.6198 83.4141 13.3229 83.4141 12.8125V8.67969C83.4141 8.46094 83.2943 8.3099 83.0547 8.22656C82.9505 8.1901 82.8385 8.16146 82.7188 8.14062C82.599 8.11458 82.5026 8.09115 82.4297 8.07031C82.362 8.04948 82.3177 8.03125 82.2969 8.01562C82.2812 7.99479 82.2734 7.95573 82.2734 7.89844C82.2734 7.83594 82.3125 7.78385 82.3906 7.74219L84.3828 6.80469C84.4453 6.77344 84.4844 6.75781 84.5 6.75781C84.5885 6.75781 84.6328 6.82031 84.6328 6.94531V12.8125C84.6328 13.3229 84.9141 13.6198 85.4766 13.7031C85.7214 13.7344 85.8438 13.7891 85.8438 13.8672C85.8438 13.9453 85.8177 13.9896 85.7656 14H82.2812ZM83.9062 4.5625C83.6927 4.5625 83.5026 4.49479 83.3359 4.35938C83.1745 4.22396 83.0938 4.03646 83.0938 3.79688C83.0938 3.55208 83.1719 3.35938 83.3281 3.21875C83.4844 3.07812 83.6693 3.00781 83.8828 3.00781C84.1016 3.00781 84.2839 3.09115 84.4297 3.25781C84.5807 3.42448 84.6562 3.60417 84.6562 3.79688C84.6562 3.98958 84.5859 4.16667 84.4453 4.32812C84.3047 4.48438 84.125 4.5625 83.9062 4.5625ZM90.5703 8.65625C90.5703 8.77083 90.526 8.82812 90.4375 8.82812C90.3542 8.82812 90.2891 8.76562 90.2422 8.64062C90.1172 8.29688 89.9297 7.99219 89.6797 7.72656C89.4349 7.46094 89.1302 7.32812 88.7656 7.32812C88.2865 7.32812 87.9635 7.56771 87.7969 8.04688C87.7448 8.20833 87.7188 8.375 87.7188 8.54688C87.7188 8.71875 87.8281 8.91146 88.0469 9.125C88.2656 9.33333 88.625 9.58333 89.125 9.875C89.625 10.1667 89.9896 10.4141 90.2188 10.6172C90.7396 11.0807 91 11.6172 91 12.2266C91 12.8359 90.776 13.3203 90.3281 13.6797C89.8802 14.0339 89.3594 14.2109 88.7656 14.2109C88.4479 14.2109 88.1589 14.1667 87.8984 14.0781C87.6432 13.9948 87.4948 13.9531 87.4531 13.9531C87.4167 13.9531 87.3542 13.9948 87.2656 14.0781C87.1823 14.1667 87.1146 14.2109 87.0625 14.2109H86.9297C86.8984 14.2109 86.8594 13.9297 86.8125 13.3672C86.7656 12.8047 86.7422 12.4714 86.7422 12.3672C86.7422 12.263 86.75 12.2057 86.7656 12.1953C86.7865 12.1849 86.8177 12.1797 86.8594 12.1797C86.901 12.1797 86.9349 12.1927 86.9609 12.2188C86.9922 12.2448 87.0182 12.2786 87.0391 12.3203C87.0599 12.3568 87.0755 12.3958 87.0859 12.4375C87.1016 12.4792 87.1354 12.5573 87.1875 12.6719C87.5417 13.4271 88.0885 13.8047 88.8281 13.8047C89.1562 13.8047 89.4193 13.6849 89.6172 13.4453C89.8151 13.2005 89.9141 12.9297 89.9141 12.6328C89.9141 12.3359 89.8359 12.0859 89.6797 11.8828C89.5234 11.6797 89.3281 11.4948 89.0938 11.3281C88.8646 11.1615 88.6146 11 88.3438 10.8438C87.2917 10.2292 86.7656 9.54948 86.7656 8.80469C86.7656 8.2474 87.0052 7.76823 87.4844 7.36719C87.9635 6.96094 88.4557 6.75781 88.9609 6.75781C89.4661 6.75781 89.8385 6.8125 90.0781 6.92188C90.3229 7.03125 90.4661 7.125 90.5078 7.20312C90.5495 7.27604 90.5703 7.52083 90.5703 7.9375V8.65625ZM94.2578 7.95312C94.2578 8.07812 94.276 8.14062 94.3125 8.14062C94.349 8.14062 94.375 8.13281 94.3906 8.11719C94.4062 8.09635 94.5156 7.97396 94.7188 7.75C95.3073 7.09375 95.9036 6.76562 96.5078 6.76562C97.2995 6.76562 97.8802 6.94271 98.25 7.29688C98.7031 7.74479 98.9297 8.4974 98.9297 9.55469V12.8125C98.9297 13.3229 99.2109 13.6198 99.7734 13.7031C100.018 13.7344 100.141 13.7891 100.141 13.8672C100.141 13.9453 100.115 13.9896 100.062 14H96.5781C96.526 13.9896 96.5 13.9531 96.5 13.8906C96.5 13.7969 96.6224 13.7344 96.8672 13.7031C97.4297 13.6198 97.7109 13.3229 97.7109 12.8125V9.63281C97.7109 8.86719 97.6562 8.36979 97.5469 8.14062C97.3385 7.68229 96.9036 7.45312 96.2422 7.45312C95.8359 7.45312 95.4036 7.6276 94.9453 7.97656C94.487 8.32031 94.2578 8.70052 94.2578 9.11719V12.8125C94.2578 13.3229 94.5391 13.6198 95.1016 13.7031C95.3464 13.7344 95.4688 13.7891 95.4688 13.8672C95.4688 13.9453 95.4427 13.9896 95.3906 14H91.9062C91.8542 13.9896 91.8281 13.9531 91.8281 13.8906C91.8281 13.7969 91.9505 13.7344 92.1953 13.7031C92.7578 13.6198 93.0391 13.3229 93.0391 12.8125V3.07031C93.0391 2.85156 92.9193 2.70052 92.6797 2.61719C92.5755 2.58073 92.4635 2.55208 92.3438 2.53125C92.224 2.50521 92.1276 2.48177 92.0547 2.46094C91.987 2.4401 91.9427 2.42188 91.9219 2.40625C91.9062 2.38542 91.8984 2.34635 91.8984 2.28906C91.8984 2.22656 91.9375 2.17448 92.0156 2.13281L94.0078 1.19531C94.0703 1.16406 94.1094 1.14844 94.125 1.14844C94.2135 1.14844 94.2578 1.21094 94.2578 1.33594V7.95312ZM102.18 9.88281C102.091 9.88281 102.047 10.0729 102.047 10.4531C102.047 11.2604 102.286 11.9375 102.766 12.4844C103.245 13.0312 103.839 13.3047 104.547 13.3047C105.26 13.3047 105.945 12.9974 106.602 12.3828C106.612 12.3724 106.625 12.3672 106.641 12.3672H106.68C106.711 12.3672 106.74 12.3932 106.766 12.4453C106.797 12.4922 106.826 12.5234 106.852 12.5391C106.247 13.2734 105.536 13.7812 104.719 14.0625C104.438 14.1615 104.12 14.2109 103.766 14.2109C103.411 14.2109 103.052 14.1146 102.688 13.9219C102.323 13.724 102.01 13.4661 101.75 13.1484C101.198 12.487 100.922 11.6641 100.922 10.6797C100.922 9.6901 101.221 8.78906 101.82 7.97656C102.424 7.16406 103.253 6.75781 104.305 6.75781C105.06 6.75781 105.677 7.09635 106.156 7.77344C106.635 8.44531 106.875 9.03646 106.875 9.54688C106.875 9.77083 106.82 9.88281 106.711 9.88281H102.18ZM102.266 9.13281C102.266 9.23177 102.312 9.28125 102.406 9.28125H105.352C105.487 9.28125 105.555 9.20052 105.555 9.03906C105.555 8.66406 105.385 8.28125 105.047 7.89062C104.714 7.49479 104.346 7.29688 103.945 7.29688C103.555 7.29688 103.198 7.47396 102.875 7.82812C102.557 8.18229 102.354 8.58594 102.266 9.03906V9.13281ZM111.977 8.65625C111.977 8.77083 111.932 8.82812 111.844 8.82812C111.76 8.82812 111.695 8.76562 111.648 8.64062C111.523 8.29688 111.336 7.99219 111.086 7.72656C110.841 7.46094 110.536 7.32812 110.172 7.32812C109.693 7.32812 109.37 7.56771 109.203 8.04688C109.151 8.20833 109.125 8.375 109.125 8.54688C109.125 8.71875 109.234 8.91146 109.453 9.125C109.672 9.33333 110.031 9.58333 110.531 9.875C111.031 10.1667 111.396 10.4141 111.625 10.6172C112.146 11.0807 112.406 11.6172 112.406 12.2266C112.406 12.8359 112.182 13.3203 111.734 13.6797C111.286 14.0339 110.766 14.2109 110.172 14.2109C109.854 14.2109 109.565 14.1667 109.305 14.0781C109.049 13.9948 108.901 13.9531 108.859 13.9531C108.823 13.9531 108.76 13.9948 108.672 14.0781C108.589 14.1667 108.521 14.2109 108.469 14.2109H108.336C108.305 14.2109 108.266 13.9297 108.219 13.3672C108.172 12.8047 108.148 12.4714 108.148 12.3672C108.148 12.263 108.156 12.2057 108.172 12.1953C108.193 12.1849 108.224 12.1797 108.266 12.1797C108.307 12.1797 108.341 12.1927 108.367 12.2188C108.398 12.2448 108.424 12.2786 108.445 12.3203C108.466 12.3568 108.482 12.3958 108.492 12.4375C108.508 12.4792 108.542 12.5573 108.594 12.6719C108.948 13.4271 109.495 13.8047 110.234 13.8047C110.562 13.8047 110.826 13.6849 111.023 13.4453C111.221 13.2005 111.32 12.9297 111.32 12.6328C111.32 12.3359 111.242 12.0859 111.086 11.8828C110.93 11.6797 110.734 11.4948 110.5 11.3281C110.271 11.1615 110.021 11 109.75 10.8438C108.698 10.2292 108.172 9.54948 108.172 8.80469C108.172 8.2474 108.411 7.76823 108.891 7.36719C109.37 6.96094 109.862 6.75781 110.367 6.75781C110.872 6.75781 111.245 6.8125 111.484 6.92188C111.729 7.03125 111.872 7.125 111.914 7.20312C111.956 7.27604 111.977 7.52083 111.977 7.9375V8.65625Z" fill="#54595F"/>
</svg>
