<svg width="82" height="25" viewBox="0 0 82 25" fill="none" xmlns="http://www.w3.org/2000/svg">
<path d="M15.5 19.3125H7.28125L5.71875 24H0.734375L9.20312 1.25H13.5469L22.0625 24H17.0781L15.5 19.3125ZM8.54688 15.5156H14.2344L11.375 7L8.54688 15.5156ZM28.6562 24H24.125V0H28.6562V24ZM42.1875 24C41.9792 23.5938 41.8281 23.0885 41.7344 22.4844C40.6406 23.7031 39.2188 24.3125 37.4688 24.3125C35.8125 24.3125 34.4375 23.8333 33.3438 22.875C32.2604 21.9167 31.7188 20.7083 31.7188 19.25C31.7188 17.4583 32.3802 16.0833 33.7031 15.125C35.0365 14.1667 36.9583 13.6823 39.4688 13.6719H41.5469V12.7031C41.5469 11.9219 41.3438 11.2969 40.9375 10.8281C40.5417 10.3594 39.9115 10.125 39.0469 10.125C38.2865 10.125 37.6875 10.3073 37.25 10.6719C36.8229 11.0365 36.6094 11.5365 36.6094 12.1719H32.0938C32.0938 11.1927 32.3958 10.2865 33 9.45312C33.6042 8.61979 34.4583 7.96875 35.5625 7.5C36.6667 7.02083 37.9062 6.78125 39.2812 6.78125C41.3646 6.78125 43.0156 7.30729 44.2344 8.35938C45.4635 9.40104 46.0781 10.8698 46.0781 12.7656V20.0938C46.0885 21.6979 46.3125 22.9115 46.75 23.7344V24H42.1875ZM38.4531 20.8594C39.1198 20.8594 39.7344 20.7135 40.2969 20.4219C40.8594 20.1198 41.276 19.7188 41.5469 19.2188V16.3125H39.8594C37.599 16.3125 36.3958 17.0938 36.25 18.6562L36.2344 18.9219C36.2344 19.4844 36.4323 19.9479 36.8281 20.3125C37.224 20.6771 37.7656 20.8594 38.4531 20.8594ZM48.8438 15.4219C48.8438 12.7865 49.4323 10.6875 50.6094 9.125C51.7969 7.5625 53.4167 6.78125 55.4688 6.78125C57.1146 6.78125 58.474 7.39583 59.5469 8.625V0H64.0781V24H60L59.7812 22.2031C58.6562 23.6094 57.2083 24.3125 55.4375 24.3125C53.4479 24.3125 51.849 23.5312 50.6406 21.9688C49.4427 20.3958 48.8438 18.2135 48.8438 15.4219ZM53.3594 15.75C53.3594 17.3333 53.6354 18.5469 54.1875 19.3906C54.7396 20.2344 55.5417 20.6562 56.5938 20.6562C57.9896 20.6562 58.974 20.0677 59.5469 18.8906V12.2188C58.9844 11.0417 58.0104 10.4531 56.625 10.4531C54.4479 10.4531 53.3594 12.2188 53.3594 15.75ZM77.375 24C77.1667 23.5938 77.0156 23.0885 76.9219 22.4844C75.8281 23.7031 74.4062 24.3125 72.6562 24.3125C71 24.3125 69.625 23.8333 68.5312 22.875C67.4479 21.9167 66.9062 20.7083 66.9062 19.25C66.9062 17.4583 67.5677 16.0833 68.8906 15.125C70.224 14.1667 72.1458 13.6823 74.6562 13.6719H76.7344V12.7031C76.7344 11.9219 76.5312 11.2969 76.125 10.8281C75.7292 10.3594 75.099 10.125 74.2344 10.125C73.474 10.125 72.875 10.3073 72.4375 10.6719C72.0104 11.0365 71.7969 11.5365 71.7969 12.1719H67.2812C67.2812 11.1927 67.5833 10.2865 68.1875 9.45312C68.7917 8.61979 69.6458 7.96875 70.75 7.5C71.8542 7.02083 73.0938 6.78125 74.4688 6.78125C76.5521 6.78125 78.2031 7.30729 79.4219 8.35938C80.651 9.40104 81.2656 10.8698 81.2656 12.7656V20.0938C81.276 21.6979 81.5 22.9115 81.9375 23.7344V24H77.375ZM73.6406 20.8594C74.3073 20.8594 74.9219 20.7135 75.4844 20.4219C76.0469 20.1198 76.4635 19.7188 76.7344 19.2188V16.3125H75.0469C72.7865 16.3125 71.5833 17.0938 71.4375 18.6562L71.4219 18.9219C71.4219 19.4844 71.6198 19.9479 72.0156 20.3125C72.4115 20.6771 72.9531 20.8594 73.6406 20.8594Z" fill="black"/>
</svg>
