<svg width="172" height="21" viewBox="0 0 172 21" fill="none" xmlns="http://www.w3.org/2000/svg">
<path d="M14.4297 4.96289V4.85742C14.4297 4.81641 14.4121 4.7959 14.377 4.7959C14.3242 4.7959 14.2568 4.86035 14.1748 4.98926L8.16309 14.4023C8.0459 14.5898 7.92871 14.7363 7.81152 14.8418C7.69434 14.9473 7.57422 15 7.45117 15C7.32812 15 7.24609 14.9824 7.20508 14.9473C7.16992 14.9121 7.14062 14.8711 7.11719 14.8242C7.09375 14.7656 7.04688 14.5166 6.97656 14.0771C6.90625 13.6318 6.80664 13.0049 6.67773 12.1963C6.54883 11.3877 6.41699 10.5674 6.28223 9.73535C6.15332 8.90332 6.02148 8.07129 5.88672 7.23926C5.75195 6.40137 5.65234 5.77441 5.58789 5.3584C5.52344 4.94238 5.48535 4.70215 5.47363 4.6377C5.46777 4.57324 5.45898 4.51172 5.44727 4.45312C5.41797 4.30078 5.38867 4.22461 5.35938 4.22461C5.33594 4.22461 5.30957 4.25098 5.28027 4.30371C5.25684 4.35645 5.23633 4.41504 5.21875 4.47949C5.16602 4.6377 5.07227 4.96582 4.9375 5.46387C4.80859 5.96191 4.60938 6.71484 4.33984 7.72266C4.07617 8.72461 3.8623 9.53027 3.69824 10.1396C3.54004 10.749 3.42578 11.1738 3.35547 11.4141C3.28516 11.6543 3.22656 11.877 3.17969 12.082C3.08594 12.4805 3.03906 12.8145 3.03906 13.084C3.03906 13.7168 3.21777 14.1855 3.5752 14.4902C3.7041 14.5957 3.87402 14.6484 4.08496 14.6484C4.2959 14.6484 4.40137 14.6895 4.40137 14.7715V14.8857C4.40137 14.9619 4.28418 15 4.0498 15H0.674805C0.563477 15 0.507812 14.9385 0.507812 14.8154C0.507812 14.7393 0.525391 14.6924 0.560547 14.6748C0.601562 14.6572 0.689453 14.6221 0.824219 14.5693C1.12891 14.4521 1.47168 14.1855 1.85254 13.7695C2.09277 13.5059 2.2832 13.0547 2.42383 12.416C2.47656 12.2051 2.59668 11.7568 2.78418 11.0713C2.97168 10.3799 3.11816 9.84082 3.22363 9.4541C3.46387 8.56934 3.6543 7.86035 3.79492 7.32715C4.09961 6.15527 4.28711 5.44629 4.35742 5.2002C4.42773 4.94824 4.48047 4.75781 4.51562 4.62891C4.5918 4.30078 4.62988 4.06055 4.62988 3.9082C4.62988 3.75 4.60059 3.6123 4.54199 3.49512C4.4834 3.37207 4.4043 3.26953 4.30469 3.1875C4.11719 3.03516 3.87988 2.95898 3.59277 2.95898H3.23242C3.13281 2.95898 3.07422 2.94141 3.05664 2.90625C3.03906 2.87109 3.03027 2.83008 3.03027 2.7832C3.03027 2.67188 3.09766 2.61035 3.23242 2.59863H6.51953C6.70703 2.59863 6.82129 2.74219 6.8623 3.0293C6.88574 3.23438 6.93555 3.55664 7.01172 3.99609C7.08789 4.43555 7.18457 5.03906 7.30176 5.80664C7.4248 6.56836 7.54492 7.33301 7.66211 8.10059C7.78516 8.8623 7.90234 9.61523 8.01367 10.3594C8.13086 11.1035 8.21875 11.6572 8.27734 12.0205C8.3418 12.3779 8.37988 12.5742 8.3916 12.6094C8.40918 12.6445 8.42969 12.6621 8.45312 12.6621C8.5 12.6621 8.54395 12.6328 8.58496 12.5742C9.04785 11.8418 9.54004 11.0684 10.0615 10.2539C10.583 9.43945 11.1133 8.61328 11.6523 7.77539C12.8184 5.94727 13.6357 4.66113 14.1045 3.91699C14.5791 3.17285 14.8486 2.76855 14.9131 2.7041C14.9775 2.63965 15.0684 2.60742 15.1855 2.60742H17.9717C18.0713 2.60742 18.1328 2.62207 18.1562 2.65137C18.1797 2.6748 18.1914 2.71875 18.1914 2.7832C18.1914 2.91211 18.0068 2.97656 17.6377 2.97656C17.2744 2.97656 16.9961 3.08203 16.8027 3.29297C16.5859 3.51562 16.4014 4.00781 16.249 4.76953C16.208 4.96875 16.167 5.16504 16.126 5.3584C16.0264 5.82715 15.9766 6.07031 15.9766 6.08789L14.4648 13.2334C14.4473 13.3213 14.4385 13.4238 14.4385 13.541C14.4385 13.6523 14.4619 13.7754 14.5088 13.9102C14.5557 14.0449 14.623 14.165 14.7109 14.2705C14.8926 14.499 15.1211 14.625 15.3965 14.6484H15.8096C15.9795 14.6484 16.0645 14.6982 16.0645 14.7979C16.0645 14.8975 16.0322 14.9561 15.9678 14.9736C15.9033 14.9912 15.8154 15 15.7041 15H10.9668C10.8496 15 10.791 14.959 10.791 14.877L10.7998 14.7891C10.7998 14.6953 10.8848 14.6484 11.0547 14.6484C11.2246 14.6484 11.3945 14.6074 11.5645 14.5254C11.7402 14.4434 11.9043 14.335 12.0566 14.2002C12.3906 13.9072 12.6045 13.5322 12.6982 13.0752C12.7979 12.6123 12.9062 12.1025 13.0234 11.5459C13.1465 10.9893 13.2725 10.4092 13.4014 9.80566C13.7295 8.27051 14.0137 6.94629 14.2539 5.83301L14.4121 5.06836C14.4238 5.02148 14.4297 4.98633 14.4297 4.96289ZM23.3857 7.08984C23.7314 7.08984 24.0625 7.39453 24.3789 8.00391C24.7129 8.63672 24.8799 9.27246 24.8799 9.91113C24.8799 10.5439 24.8066 11.0801 24.6602 11.5195C24.5137 11.9531 24.3145 12.3574 24.0625 12.7324C23.8164 13.1074 23.5234 13.4502 23.1836 13.7607C22.8438 14.0654 22.4805 14.3262 22.0938 14.543C21.291 15.0059 20.4912 15.2373 19.6943 15.2373C19.3779 15.2373 19.0557 14.9297 18.7275 14.3145C18.3994 13.6875 18.2354 13.1045 18.2354 12.5654C18.2354 12.0264 18.3057 11.5225 18.4463 11.0537C18.5928 10.5791 18.7891 10.1426 19.0352 9.74414C19.2871 9.33984 19.5801 8.97363 19.9141 8.64551C20.248 8.31738 20.6055 8.03906 20.9863 7.81055C21.7891 7.33008 22.5889 7.08984 23.3857 7.08984ZM19.8789 10.3506C19.7734 10.6963 19.6914 11.0537 19.6328 11.4229C19.5801 11.7861 19.5537 12.0967 19.5537 12.3545C19.5537 12.6123 19.5771 12.8643 19.624 13.1104C19.6709 13.3506 19.7471 13.582 19.8525 13.8047C20.1045 14.3262 20.4502 14.5869 20.8896 14.5869C21.6865 14.5869 22.3457 14.0771 22.8672 13.0576C23.3301 12.1494 23.5615 11.1562 23.5615 10.0781C23.5615 9.35742 23.4004 8.74219 23.0781 8.23242C22.8672 7.9043 22.6152 7.74023 22.3223 7.74023C22.0293 7.74023 21.7568 7.81055 21.5049 7.95117C21.2588 8.0918 21.0332 8.28223 20.8281 8.52246C20.6289 8.75684 20.4473 9.03223 20.2832 9.34863C20.125 9.66504 19.9902 9.99902 19.8789 10.3506ZM31.7002 1.88672C33.3525 0.990234 34.2344 0.541992 34.3457 0.541992C34.4629 0.541992 34.5215 0.638672 34.5215 0.832031C34.5215 0.896484 34.5156 0.987305 34.5039 1.10449L31.8232 13.418C31.8174 13.4648 31.8115 13.5117 31.8057 13.5586C31.7939 13.6406 31.7881 13.7197 31.7881 13.7959C31.7881 13.8662 31.8115 13.9365 31.8584 14.0068C31.9053 14.0771 31.9551 14.1123 32.0078 14.1123C32.0664 14.1123 32.1367 14.0801 32.2188 14.0156C32.3066 13.9453 32.3945 13.8691 32.4824 13.7871C32.7285 13.5762 32.8809 13.4707 32.9395 13.4707C33.0332 13.4707 33.0801 13.5234 33.0801 13.6289C33.0801 13.7402 32.7637 14.0391 32.1309 14.5254C31.4922 15.0234 31.0908 15.2725 30.9268 15.2725C30.7451 15.2725 30.6191 15.1523 30.5488 14.9121C30.5137 14.7832 30.4961 14.6396 30.4961 14.4814C30.4961 14.3174 30.5049 14.168 30.5225 14.0332C30.54 13.8984 30.5605 13.7783 30.584 13.6729C30.6074 13.5615 30.6309 13.459 30.6543 13.3652C30.6777 13.2656 30.6924 13.166 30.6982 13.0664C30.7041 12.9668 30.6836 12.917 30.6367 12.917C30.5723 12.917 30.4287 13.0166 30.2061 13.2158C29.9834 13.4092 29.7783 13.5879 29.5908 13.752C29.4033 13.916 29.2041 14.0859 28.9932 14.2617C28.7881 14.4375 28.5859 14.5957 28.3867 14.7363C27.9355 15.0703 27.6045 15.2373 27.3936 15.2373C27.1826 15.2373 27.0098 15.1494 26.875 14.9736C26.7461 14.7979 26.6465 14.5898 26.5762 14.3496C26.459 13.9395 26.4004 13.5264 26.4004 13.1104C26.4004 12.6885 26.4531 12.2666 26.5586 11.8447C26.6699 11.417 26.8223 10.9863 27.0156 10.5527C27.2148 10.1133 27.4492 9.68848 27.7188 9.27832C27.9941 8.8623 28.2988 8.49316 28.6328 8.1709C29.3711 7.45605 30.124 7.09863 30.8916 7.09863C31.0908 7.09863 31.2461 7.14258 31.3574 7.23047C31.5684 7.38867 31.7119 7.46777 31.7881 7.46777C31.8643 7.46777 31.9082 7.43555 31.9199 7.37109L33.0098 2.19434C33.0332 2.10059 33.0449 2.02441 33.0449 1.96582C33.0449 1.81934 32.9805 1.74609 32.8516 1.74609C32.7402 1.74609 32.5908 1.79004 32.4033 1.87793C32.2217 1.96582 32.0254 2.05957 31.8145 2.15918L31.7002 1.88672ZM28.4307 9.73535C27.7979 11.1123 27.5195 12.3076 27.5957 13.3213C27.625 13.6787 27.71 13.9248 27.8506 14.0596C27.9912 14.1943 28.1523 14.2617 28.334 14.2617C28.7559 14.0449 29.21 13.7168 29.6963 13.2773C30.1885 12.8379 30.5781 12.4893 30.8652 12.2314L31.6123 8.84766C31.6299 8.75391 31.6387 8.67188 31.6387 8.60156C31.6387 8.52539 31.6123 8.43164 31.5596 8.32031C31.5127 8.20898 31.4424 8.10352 31.3486 8.00391C31.1201 7.76367 30.8389 7.64355 30.5049 7.64355C30.1768 7.64355 29.8926 7.75195 29.6523 7.96875C29.1895 8.38477 28.7822 8.97363 28.4307 9.73535ZM42.5898 7.30078V7.35352C42.5898 7.37109 42.1416 9.47754 41.2451 13.6729C41.2451 13.8604 41.3125 13.9541 41.4473 13.9541C41.5352 13.9541 41.6787 13.8516 41.8779 13.6465C42.0771 13.4355 42.3438 13.1602 42.6777 12.8203L42.8887 13.04C42.8125 13.1924 42.584 13.4443 42.2031 13.7959C41.166 14.7568 40.4746 15.2373 40.1289 15.2373C39.9121 15.2373 39.8037 15.0527 39.8037 14.6836C39.8037 14.5078 39.8271 14.3115 39.874 14.0947L40.5156 11.1416C40.5156 11.0771 40.4893 11.0449 40.4365 11.0449C40.3896 11.0449 40.3428 11.0713 40.2959 11.124C40.2549 11.1709 40.1875 11.2471 40.0938 11.3525C40.0059 11.4521 39.8828 11.5869 39.7246 11.7568C39.5723 11.9209 39.417 12.0908 39.2588 12.2666C38.8135 12.7588 38.5352 13.0723 38.4238 13.207C38.3125 13.3359 38.1982 13.4678 38.0811 13.6025C37.9697 13.7314 37.8467 13.8691 37.7119 14.0156C37.5771 14.1621 37.4336 14.3086 37.2812 14.4551C37.1348 14.6016 36.9883 14.7305 36.8418 14.8418C36.5078 15.1055 36.2412 15.2373 36.042 15.2373C35.8486 15.2373 35.6963 15.1582 35.585 15C35.4736 14.8477 35.418 14.7129 35.418 14.5957V14.3848C35.418 14.3496 35.4238 14.3145 35.4355 14.2793L36.7275 8.19727V8.16211C36.7275 8.0332 36.6543 7.96875 36.5078 7.96875C36.2559 7.96875 35.875 8.24707 35.3652 8.80371C35.2539 8.9209 35.1748 9 35.1279 9.04102L34.9609 8.87402C35.0781 8.64551 35.4121 8.30859 35.9629 7.86328C36.584 7.35938 37.0527 7.10742 37.3691 7.10742C37.5449 7.10742 37.6973 7.17773 37.8262 7.31836C37.9609 7.45312 38.0283 7.59961 38.0283 7.75781C38.0283 7.91016 37.6152 9.93457 36.7891 13.8311V13.8662C36.7891 13.9951 36.8623 14.0596 37.0088 14.0596C37.2021 14.0596 37.5654 13.7432 38.0986 13.1104C38.2334 12.9521 38.377 12.7852 38.5293 12.6094C38.6816 12.4336 38.834 12.2578 38.9863 12.082C39.3145 11.6953 39.6074 11.3467 39.8652 11.0361C40.457 10.3154 40.8086 9.7002 40.9199 9.19043L41.2979 7.44141C41.3389 7.20703 41.4326 7.08984 41.5791 7.08984H42.3789C42.5195 7.08984 42.5898 7.16016 42.5898 7.30078ZM45.5957 14.1826C45.5957 14.3115 45.6689 14.376 45.8154 14.376C46.0498 14.376 46.4629 14.0654 47.0547 13.4443C47.1191 13.3799 47.166 13.333 47.1953 13.3037L47.3623 13.4707C47.2451 13.6992 46.9141 14.0361 46.3691 14.4814C45.7422 14.9854 45.2705 15.2373 44.9541 15.2373C44.7783 15.2373 44.623 15.167 44.4883 15.0264C44.3594 14.8916 44.2949 14.751 44.2949 14.6045C44.2949 14.4521 44.3037 14.335 44.3213 14.2529L46.9053 2.19434C46.9287 2.10059 46.9404 2.02441 46.9404 1.96582C46.9404 1.81934 46.876 1.74609 46.7471 1.74609C46.6357 1.74609 46.4863 1.79004 46.2988 1.87793C46.1172 1.96582 45.9209 2.05957 45.71 2.15918L45.5957 1.88672C47.248 0.990234 48.1299 0.541992 48.2412 0.541992C48.3584 0.541992 48.417 0.612305 48.417 0.75293C48.417 0.887695 48.3232 1.37988 48.1357 2.22949C47.9541 3.07324 47.7314 4.10742 47.4678 5.33203C47.21 6.55664 46.9814 7.62305 46.7822 8.53125C46.5889 9.43945 46.4248 10.21 46.29 10.8428C46.1553 11.4756 46.0439 12 45.9561 12.416C45.8682 12.832 45.7979 13.1572 45.7451 13.3916C45.6982 13.6201 45.6631 13.79 45.6396 13.9014C45.6221 14.0127 45.6074 14.0947 45.5957 14.1475V14.1826ZM53.1367 13.6729C53.1602 13.5615 53.1836 13.459 53.207 13.3652C53.2305 13.2656 53.2451 13.166 53.251 13.0664C53.2568 12.9668 53.2363 12.917 53.1895 12.917C53.125 12.917 52.9814 13.0166 52.7588 13.2158C52.5361 13.4092 52.3311 13.5879 52.1436 13.752C51.9561 13.916 51.7568 14.0859 51.5459 14.2617C51.3408 14.4375 51.1387 14.5957 50.9395 14.7363C50.4883 15.0703 50.1572 15.2373 49.9463 15.2373C49.7354 15.2373 49.5625 15.1494 49.4277 14.9736C49.2988 14.7979 49.1992 14.5898 49.1289 14.3496C49.0117 13.9395 48.9531 13.5439 48.9531 13.1631C48.9531 11.9443 49.416 10.7754 50.3418 9.65625C51.2266 8.60156 52.3135 7.85449 53.6025 7.41504C54.2412 7.19824 54.8916 7.08984 55.5537 7.08984C55.6533 7.08984 55.7031 7.17188 55.7031 7.33594L54.376 13.418C54.3701 13.4648 54.3643 13.5117 54.3584 13.5586C54.3467 13.6406 54.3408 13.7197 54.3408 13.7959C54.3408 13.8662 54.3643 13.9365 54.4111 14.0068C54.458 14.0771 54.5078 14.1123 54.5605 14.1123C54.6191 14.1123 54.6895 14.0801 54.7715 14.0156C54.8594 13.9453 54.9473 13.8691 55.0352 13.7871C55.2812 13.5762 55.4336 13.4707 55.4922 13.4707C55.5859 13.4707 55.6328 13.5234 55.6328 13.6289C55.6328 13.7402 55.3164 14.0391 54.6836 14.5254C54.0449 15.0234 53.6436 15.2725 53.4795 15.2725C53.2979 15.2725 53.1719 15.1523 53.1016 14.9121C53.0664 14.7832 53.0488 14.6396 53.0488 14.4814C53.0488 14.3174 53.0576 14.168 53.0752 14.0332C53.0928 13.8984 53.1133 13.7783 53.1367 13.6729ZM54.2881 8.23242C54.2881 8.13867 54.1768 8.0918 53.9541 8.0918C53.7314 8.0918 53.4707 8.13281 53.1719 8.21484C52.873 8.29102 52.5859 8.40234 52.3105 8.54883C51.2969 9.08203 50.6465 9.98438 50.3594 11.2559C50.2363 11.8066 50.166 12.249 50.1484 12.583C50.1367 12.917 50.1367 13.1631 50.1484 13.3213C50.1602 13.4795 50.1895 13.6289 50.2363 13.7695C50.3535 14.0977 50.5703 14.2617 50.8867 14.2617C51.3086 14.0449 51.7627 13.7168 52.249 13.2773C52.7412 12.8379 53.1309 12.4893 53.418 12.2314L54.2881 8.23242ZM61.8818 8.50488L61.4512 8.43457C61.0938 8.43457 60.7246 8.61914 60.3438 8.98828C59.8398 9.48633 59.5176 10.0312 59.377 10.623C59.3184 10.8809 59.2598 11.1416 59.2012 11.4053L58.4453 14.9033C58.375 14.9326 58.293 14.9678 58.1992 15.0088C58.1113 15.0498 58.0176 15.0879 57.918 15.123C57.6777 15.2109 57.499 15.2549 57.3818 15.2549C57.2295 15.2549 57.1533 15.1582 57.1533 14.9648C57.1533 14.8652 57.2148 14.5283 57.3379 13.9541C57.4609 13.3799 57.5957 12.75 57.7422 12.0645C57.8887 11.373 58.0088 10.8047 58.1025 10.3594C58.2021 9.91406 58.2754 9.57129 58.3223 9.33105C58.375 9.08496 58.416 8.90625 58.4453 8.79492C58.4746 8.6543 58.4893 8.57227 58.4893 8.54883C58.4893 8.44922 58.4541 8.39941 58.3838 8.39941C58.2666 8.39941 58.1494 8.45801 58.0322 8.5752L57.2939 9.2959C57.2646 9.3252 57.2383 9.33984 57.2148 9.33984C57.0859 9.33984 57.0215 9.27832 57.0215 9.15527C57.0215 9.03809 57.1562 8.85645 57.4258 8.61035C57.6953 8.3584 57.9121 8.15918 58.0762 8.0127C58.2461 7.86621 58.3721 7.75488 58.4541 7.67871C58.542 7.60254 58.624 7.53223 58.7002 7.46777C58.7822 7.40332 58.8672 7.3418 58.9551 7.2832C59.1719 7.14844 59.3447 7.08105 59.4736 7.08105C59.667 7.11035 59.7637 7.31543 59.7637 7.69629L59.6582 8.88281C59.6582 9.00586 59.6992 9.06738 59.7812 9.06738C59.8281 9.06738 59.9395 8.94727 60.1152 8.70703C60.2969 8.46094 60.4375 8.2793 60.5371 8.16211C60.6426 8.03906 60.751 7.91309 60.8623 7.78418C60.9736 7.65527 61.0938 7.54102 61.2227 7.44141C61.5215 7.20117 61.8145 7.08105 62.1016 7.08105C62.2715 7.08105 62.3828 7.21875 62.4355 7.49414C62.4531 7.57031 62.4619 7.64355 62.4619 7.71387C62.4619 8.22949 62.2686 8.49316 61.8818 8.50488ZM68.5439 11.1328C68.5439 12.2695 68.7988 13.1191 69.3086 13.6816C69.8184 14.2383 70.6123 14.5166 71.6904 14.5166C72.4287 14.5166 73.0703 14.3086 73.6152 13.8926C74.1953 13.4355 74.4854 12.8555 74.4854 12.1523C74.4854 11.5547 74.1836 10.9365 73.5801 10.2979C73.4102 10.1221 73.2344 9.95215 73.0527 9.78809C72.877 9.61816 72.6689 9.43652 72.4287 9.24316C72.1943 9.0498 71.957 8.85059 71.7168 8.64551C71.4824 8.43457 71.2539 8.21777 71.0312 7.99512C70.8145 7.77246 70.6211 7.53809 70.4512 7.29199C70.0703 6.75293 69.8799 6.2168 69.8799 5.68359C69.8799 5.14453 69.9824 4.66992 70.1875 4.25977C70.3926 3.84961 70.668 3.50391 71.0137 3.22266C71.7285 2.625 72.5811 2.32617 73.5713 2.32617C74.1162 2.32617 74.5322 2.38477 74.8193 2.50195C75.1064 2.61914 75.3145 2.7041 75.4434 2.75684C75.5723 2.80957 75.7012 2.83594 75.8301 2.83594C75.9648 2.83594 76.0674 2.82129 76.1377 2.79199C76.2139 2.7627 76.2812 2.7334 76.3398 2.7041C76.3984 2.66895 76.4541 2.63672 76.5068 2.60742C76.5596 2.57812 76.6123 2.56348 76.665 2.56348C76.7822 2.58105 76.8379 2.63965 76.832 2.73926C76.832 2.83301 76.8291 2.90918 76.8232 2.96777C76.8174 3.02637 76.8086 3.11719 76.7969 3.24023C76.7324 3.7793 76.6826 4.1748 76.6475 4.42676C76.6123 4.67871 76.5889 4.86621 76.5771 4.98926C76.5713 5.10645 76.5566 5.2207 76.5332 5.33203C76.4863 5.58398 76.3955 5.70996 76.2607 5.70996C76.0967 5.70996 76.0088 5.61914 75.9971 5.4375C75.9209 4.19531 75.3965 3.37793 74.4238 2.98535C74.0957 2.85059 73.75 2.7832 73.3867 2.7832C73.0234 2.7832 72.707 2.83887 72.4375 2.9502C72.1738 3.06152 71.9395 3.21094 71.7344 3.39844C71.2773 3.81445 71.0488 4.29199 71.0488 4.83105C71.0488 5.61035 71.5 6.37207 72.4023 7.11621C72.6484 7.31543 72.9004 7.5293 73.1582 7.75781C73.4219 7.98633 73.709 8.23242 74.0195 8.49609C74.3359 8.75391 74.623 9.03223 74.8809 9.33105C75.4785 10.0107 75.7773 10.6934 75.7773 11.3789C75.7773 12.0645 75.6514 12.627 75.3994 13.0664C75.1533 13.5059 74.8223 13.8691 74.4062 14.1562C73.5977 14.7129 72.5811 14.9912 71.3564 14.9912C70.3896 14.9912 69.4082 14.7363 68.4121 14.2266C68.0957 14.0625 67.873 13.9277 67.7441 13.8223C67.6035 13.6992 67.5332 13.6172 67.5332 13.5762C67.5801 13.2246 67.6445 12.8818 67.7266 12.5479C67.8086 12.2139 67.8672 11.9443 67.9023 11.7393C67.9434 11.5342 67.9697 11.3936 67.9814 11.3174C67.9932 11.2412 68.0137 11.168 68.043 11.0977C68.1016 10.916 68.1982 10.8252 68.333 10.8252C68.4736 10.8252 68.5439 10.9277 68.5439 11.1328ZM79.0205 15.2373C78.499 15.2373 78.2383 15 78.2383 14.5254C78.2383 14.4258 78.25 14.3262 78.2734 14.2266L79.627 7.83691C79.6387 7.77832 79.6445 7.73145 79.6445 7.69629C79.6445 7.6084 79.6006 7.56445 79.5127 7.56445H79.1172C78.9648 7.56445 78.8887 7.51172 78.8887 7.40625C78.8887 7.29492 78.9297 7.22461 79.0117 7.19531C79.0996 7.16602 79.1729 7.14551 79.2314 7.13379C79.29 7.12207 79.3604 7.10156 79.4424 7.07227C79.5303 7.03711 79.6445 6.9668 79.7852 6.86133C79.9258 6.75 80.0664 6.62402 80.207 6.4834C80.3535 6.33691 80.4971 6.18457 80.6377 6.02637C80.7783 5.86816 80.9102 5.71289 81.0332 5.56055C81.3496 5.17969 81.5459 4.95117 81.6221 4.875C81.751 4.9043 81.8535 4.95117 81.9297 5.01562C81.8828 5.13867 81.8213 5.28223 81.7451 5.44629C81.6689 5.61035 81.5957 5.77734 81.5254 5.94727C81.3438 6.36328 81.2383 6.66797 81.209 6.86133V6.89648C81.209 7.02539 81.2793 7.08984 81.4199 7.08984H82.5625L82.4658 7.56445H81.1914C81.0332 7.56445 80.9336 7.66699 80.8926 7.87207L79.6709 13.585C79.6416 13.708 79.6211 13.8076 79.6094 13.8838C79.5977 13.9541 79.5859 14.0098 79.5742 14.0508C79.5684 14.0918 79.5654 14.1211 79.5654 14.1387V14.1738C79.5654 14.3086 79.6299 14.376 79.7588 14.376C79.9814 14.376 80.2305 14.2383 80.5059 13.9629L81.4814 12.9873L81.6045 13.1191C81.5225 13.3711 81.1914 13.7637 80.6113 14.2969C79.9492 14.9238 79.4189 15.2373 79.0205 15.2373ZM88.6357 7.08984C88.9814 7.08984 89.3125 7.39453 89.6289 8.00391C89.9629 8.63672 90.1299 9.27246 90.1299 9.91113C90.1299 10.5439 90.0566 11.0801 89.9102 11.5195C89.7637 11.9531 89.5645 12.3574 89.3125 12.7324C89.0664 13.1074 88.7734 13.4502 88.4336 13.7607C88.0938 14.0654 87.7305 14.3262 87.3438 14.543C86.541 15.0059 85.7412 15.2373 84.9443 15.2373C84.6279 15.2373 84.3057 14.9297 83.9775 14.3145C83.6494 13.6875 83.4854 13.1045 83.4854 12.5654C83.4854 12.0264 83.5557 11.5225 83.6963 11.0537C83.8428 10.5791 84.0391 10.1426 84.2852 9.74414C84.5371 9.33984 84.8301 8.97363 85.1641 8.64551C85.498 8.31738 85.8555 8.03906 86.2363 7.81055C87.0391 7.33008 87.8389 7.08984 88.6357 7.08984ZM85.1289 10.3506C85.0234 10.6963 84.9414 11.0537 84.8828 11.4229C84.8301 11.7861 84.8037 12.0967 84.8037 12.3545C84.8037 12.6123 84.8271 12.8643 84.874 13.1104C84.9209 13.3506 84.9971 13.582 85.1025 13.8047C85.3545 14.3262 85.7002 14.5869 86.1396 14.5869C86.9365 14.5869 87.5957 14.0771 88.1172 13.0576C88.5801 12.1494 88.8115 11.1562 88.8115 10.0781C88.8115 9.35742 88.6504 8.74219 88.3281 8.23242C88.1172 7.9043 87.8652 7.74023 87.5723 7.74023C87.2793 7.74023 87.0068 7.81055 86.7549 7.95117C86.5088 8.0918 86.2832 8.28223 86.0781 8.52246C85.8789 8.75684 85.6973 9.03223 85.5332 9.34863C85.375 9.66504 85.2402 9.99902 85.1289 10.3506ZM96.2471 8.50488L95.8164 8.43457C95.459 8.43457 95.0898 8.61914 94.709 8.98828C94.2051 9.48633 93.8828 10.0312 93.7422 10.623C93.6836 10.8809 93.625 11.1416 93.5664 11.4053L92.8105 14.9033C92.7402 14.9326 92.6582 14.9678 92.5645 15.0088C92.4766 15.0498 92.3828 15.0879 92.2832 15.123C92.043 15.2109 91.8643 15.2549 91.7471 15.2549C91.5947 15.2549 91.5186 15.1582 91.5186 14.9648C91.5186 14.8652 91.5801 14.5283 91.7031 13.9541C91.8262 13.3799 91.9609 12.75 92.1074 12.0645C92.2539 11.373 92.374 10.8047 92.4678 10.3594C92.5674 9.91406 92.6406 9.57129 92.6875 9.33105C92.7402 9.08496 92.7812 8.90625 92.8105 8.79492C92.8398 8.6543 92.8545 8.57227 92.8545 8.54883C92.8545 8.44922 92.8193 8.39941 92.749 8.39941C92.6318 8.39941 92.5146 8.45801 92.3975 8.5752L91.6592 9.2959C91.6299 9.3252 91.6035 9.33984 91.5801 9.33984C91.4512 9.33984 91.3867 9.27832 91.3867 9.15527C91.3867 9.03809 91.5215 8.85645 91.791 8.61035C92.0605 8.3584 92.2773 8.15918 92.4414 8.0127C92.6113 7.86621 92.7373 7.75488 92.8193 7.67871C92.9072 7.60254 92.9893 7.53223 93.0654 7.46777C93.1475 7.40332 93.2324 7.3418 93.3203 7.2832C93.5371 7.14844 93.71 7.08105 93.8389 7.08105C94.0322 7.11035 94.1289 7.31543 94.1289 7.69629L94.0234 8.88281C94.0234 9.00586 94.0645 9.06738 94.1465 9.06738C94.1934 9.06738 94.3047 8.94727 94.4805 8.70703C94.6621 8.46094 94.8027 8.2793 94.9023 8.16211C95.0078 8.03906 95.1162 7.91309 95.2275 7.78418C95.3389 7.65527 95.459 7.54102 95.5879 7.44141C95.8867 7.20117 96.1797 7.08105 96.4668 7.08105C96.6367 7.08105 96.748 7.21875 96.8008 7.49414C96.8184 7.57031 96.8271 7.64355 96.8271 7.71387C96.8271 8.22949 96.6338 8.49316 96.2471 8.50488ZM100.738 13.6729C100.762 13.5615 100.785 13.459 100.809 13.3652C100.832 13.2656 100.847 13.166 100.853 13.0664C100.858 12.9668 100.838 12.917 100.791 12.917C100.727 12.917 100.583 13.0166 100.36 13.2158C100.138 13.4092 99.9326 13.5879 99.7451 13.752C99.5576 13.916 99.3584 14.0859 99.1475 14.2617C98.9424 14.4375 98.7402 14.5957 98.541 14.7363C98.0898 15.0703 97.7588 15.2373 97.5479 15.2373C97.3369 15.2373 97.1641 15.1494 97.0293 14.9736C96.9004 14.7979 96.8008 14.5898 96.7305 14.3496C96.6133 13.9395 96.5547 13.5439 96.5547 13.1631C96.5547 11.9443 97.0176 10.7754 97.9434 9.65625C98.8281 8.60156 99.915 7.85449 101.204 7.41504C101.843 7.19824 102.493 7.08984 103.155 7.08984C103.255 7.08984 103.305 7.17188 103.305 7.33594L101.978 13.418C101.972 13.4648 101.966 13.5117 101.96 13.5586C101.948 13.6406 101.942 13.7197 101.942 13.7959C101.942 13.8662 101.966 13.9365 102.013 14.0068C102.06 14.0771 102.109 14.1123 102.162 14.1123C102.221 14.1123 102.291 14.0801 102.373 14.0156C102.461 13.9453 102.549 13.8691 102.637 13.7871C102.883 13.5762 103.035 13.4707 103.094 13.4707C103.188 13.4707 103.234 13.5234 103.234 13.6289C103.234 13.7402 102.918 14.0391 102.285 14.5254C101.646 15.0234 101.245 15.2725 101.081 15.2725C100.899 15.2725 100.773 15.1523 100.703 14.9121C100.668 14.7832 100.65 14.6396 100.65 14.4814C100.65 14.3174 100.659 14.168 100.677 14.0332C100.694 13.8984 100.715 13.7783 100.738 13.6729ZM101.89 8.23242C101.89 8.13867 101.778 8.0918 101.556 8.0918C101.333 8.0918 101.072 8.13281 100.773 8.21484C100.475 8.29102 100.188 8.40234 99.9121 8.54883C98.8984 9.08203 98.248 9.98438 97.9609 11.2559C97.8379 11.8066 97.7676 12.249 97.75 12.583C97.7383 12.917 97.7383 13.1631 97.75 13.3213C97.7617 13.4795 97.791 13.6289 97.8379 13.7695C97.9551 14.0977 98.1719 14.2617 98.4883 14.2617C98.9102 14.0449 99.3643 13.7168 99.8506 13.2773C100.343 12.8379 100.732 12.4893 101.02 12.2314L101.89 8.23242ZM111.646 7.78418C111.646 7.87207 111.593 7.91602 111.487 7.91602H110.45C110.474 8.01562 110.503 8.12695 110.538 8.25C110.579 8.36719 110.617 8.50195 110.652 8.6543C110.734 9 110.775 9.37207 110.775 9.77051C110.775 10.1631 110.714 10.5322 110.591 10.8779C110.474 11.2236 110.315 11.543 110.116 11.8359C109.788 12.3164 109.29 12.8291 108.622 13.374C108.394 13.5615 108.051 13.7549 107.594 13.9541C107.143 14.1533 106.841 14.2998 106.688 14.3936C106.536 14.4873 106.46 14.6191 106.46 14.7891C106.46 14.9531 106.548 15.1377 106.724 15.3428C106.899 15.5479 107.119 15.75 107.383 15.9492C107.652 16.1484 107.939 16.3506 108.244 16.5557C108.555 16.7607 108.842 16.9746 109.105 17.1973C109.727 17.7129 110.037 18.2139 110.037 18.7002C110.037 19.5498 109.311 20.1328 107.857 20.4492C107.336 20.5664 106.806 20.625 106.267 20.625C105.728 20.625 105.218 20.6045 104.737 20.5635C104.257 20.5225 103.838 20.4434 103.48 20.3262C102.689 20.0801 102.294 19.6465 102.294 19.0254C102.294 18.5449 102.663 18.0498 103.401 17.54C103.8 17.2646 104.166 17.0361 104.5 16.8545C104.834 16.6729 105.057 16.5469 105.168 16.4766C105.496 16.2773 105.687 16.1514 105.739 16.0986C105.71 15.9873 105.672 15.873 105.625 15.7559C105.578 15.6445 105.555 15.5273 105.555 15.4043C105.555 15.2812 105.575 15.1729 105.616 15.0791C105.657 14.9854 105.71 14.8975 105.774 14.8154C105.845 14.7334 105.924 14.6484 106.012 14.5605C106.229 14.3555 106.337 14.2354 106.337 14.2002C106.337 14.165 106.305 14.1152 106.24 14.0508C106.182 13.9805 106.111 13.9043 106.029 13.8223C105.854 13.6699 105.707 13.5322 105.59 13.4092C105.479 13.2803 105.376 13.1279 105.282 12.9521C105.194 12.7764 105.121 12.5889 105.062 12.3896C104.957 12.0029 104.904 11.625 104.904 11.2559C104.904 10.8809 104.969 10.5293 105.098 10.2012C105.227 9.87305 105.402 9.55664 105.625 9.25195C105.848 8.94727 106.103 8.66309 106.39 8.39941C106.683 8.13574 106.993 7.90723 107.321 7.71387C108.024 7.29785 108.695 7.08984 109.334 7.08984C110.623 7.08984 111.376 7.1543 111.593 7.2832C111.628 7.30078 111.646 7.33301 111.646 7.37988V7.78418ZM103.938 17.7422C103.773 17.9062 103.642 18.0762 103.542 18.252C103.437 18.4336 103.384 18.6533 103.384 18.9111C103.384 19.1689 103.457 19.3975 103.604 19.5967C103.744 19.8018 103.949 19.9629 104.219 20.0801C104.676 20.2734 105.417 20.3701 106.442 20.3701C107.292 20.3701 107.998 20.2002 108.561 19.8604C108.93 19.6377 109.114 19.3564 109.114 19.0166C109.114 18.6299 108.73 18.1758 107.963 17.6543C107.752 17.5078 107.535 17.3613 107.312 17.2148L106.012 16.3359C105.918 16.4062 105.786 16.4883 105.616 16.582C105.452 16.6758 105.273 16.7812 105.08 16.8984C104.887 17.0215 104.688 17.1533 104.482 17.2939C104.283 17.4346 104.102 17.584 103.938 17.7422ZM109.633 9.33984C109.633 8.12695 109.237 7.52051 108.446 7.52051C108.013 7.52051 107.605 7.75781 107.225 8.23242C106.727 8.87695 106.393 9.74414 106.223 10.834C106.17 11.1562 106.144 11.4375 106.144 11.6777C106.144 11.9121 106.161 12.1406 106.196 12.3633C106.237 12.5801 106.305 12.7793 106.398 12.9609C106.615 13.3945 106.938 13.6113 107.365 13.6113C107.641 13.6113 107.928 13.459 108.227 13.1543C108.531 12.8438 108.763 12.5449 108.921 12.2578C109.085 11.9707 109.22 11.6689 109.325 11.3525C109.53 10.7373 109.633 10.0664 109.633 9.33984ZM114.889 14.5254C115.445 14.5254 116.125 14.2793 116.928 13.7871L117.051 14.0068C116.436 14.4814 115.738 14.8389 114.959 15.0791C114.619 15.1846 114.271 15.2373 113.913 15.2373C113.562 15.2373 113.263 15.1611 113.017 15.0088C112.771 14.8623 112.568 14.6631 112.41 14.4111C112.117 13.9307 111.971 13.3096 111.971 12.5479C112.088 11.2471 112.557 10.043 113.377 8.93555C113.934 8.18555 114.602 7.65234 115.381 7.33594C115.779 7.17188 116.137 7.08984 116.453 7.08984C116.775 7.08984 117.024 7.11914 117.2 7.17773C117.376 7.23047 117.531 7.3125 117.666 7.42383C117.965 7.66406 118.114 7.96875 118.114 8.33789C118.114 8.70117 118.035 9.01465 117.877 9.27832C117.725 9.54199 117.522 9.77051 117.271 9.96387C117.019 10.1572 116.731 10.3242 116.409 10.4648C116.087 10.6055 115.759 10.7285 115.425 10.834C115.097 10.9395 114.771 11.0361 114.449 11.124C114.133 11.2061 113.854 11.291 113.614 11.3789C113.427 11.8184 113.333 12.2666 113.333 12.7236C113.333 13.5439 113.611 14.0947 114.168 14.376C114.367 14.4756 114.607 14.5254 114.889 14.5254ZM113.737 10.8516C113.737 10.9512 113.816 11.001 113.975 11.001C114.859 10.7432 115.492 10.4824 115.873 10.2188C116.254 9.94922 116.541 9.66797 116.734 9.375C116.934 9.08203 117.033 8.73047 117.033 8.32031C117.033 7.9043 116.904 7.63184 116.646 7.50293C116.559 7.45605 116.418 7.43262 116.225 7.43262C116.037 7.43262 115.835 7.49121 115.618 7.6084C115.401 7.71973 115.205 7.87207 115.029 8.06543C114.854 8.25293 114.695 8.4668 114.555 8.70703C114.414 8.94727 114.291 9.19336 114.186 9.44531C114.01 9.86719 113.86 10.3359 113.737 10.8516ZM124.548 11.1328C124.548 12.2695 124.803 13.1191 125.312 13.6816C125.822 14.2383 126.616 14.5166 127.694 14.5166C128.433 14.5166 129.074 14.3086 129.619 13.8926C130.199 13.4355 130.489 12.8555 130.489 12.1523C130.489 11.5547 130.188 10.9365 129.584 10.2979C129.414 10.1221 129.238 9.95215 129.057 9.78809C128.881 9.61816 128.673 9.43652 128.433 9.24316C128.198 9.0498 127.961 8.85059 127.721 8.64551C127.486 8.43457 127.258 8.21777 127.035 7.99512C126.818 7.77246 126.625 7.53809 126.455 7.29199C126.074 6.75293 125.884 6.2168 125.884 5.68359C125.884 5.14453 125.986 4.66992 126.191 4.25977C126.396 3.84961 126.672 3.50391 127.018 3.22266C127.732 2.625 128.585 2.32617 129.575 2.32617C130.12 2.32617 130.536 2.38477 130.823 2.50195C131.11 2.61914 131.318 2.7041 131.447 2.75684C131.576 2.80957 131.705 2.83594 131.834 2.83594C131.969 2.83594 132.071 2.82129 132.142 2.79199C132.218 2.7627 132.285 2.7334 132.344 2.7041C132.402 2.66895 132.458 2.63672 132.511 2.60742C132.563 2.57812 132.616 2.56348 132.669 2.56348C132.786 2.58105 132.842 2.63965 132.836 2.73926C132.836 2.83301 132.833 2.90918 132.827 2.96777C132.821 3.02637 132.812 3.11719 132.801 3.24023C132.736 3.7793 132.687 4.1748 132.651 4.42676C132.616 4.67871 132.593 4.86621 132.581 4.98926C132.575 5.10645 132.561 5.2207 132.537 5.33203C132.49 5.58398 132.399 5.70996 132.265 5.70996C132.101 5.70996 132.013 5.61914 132.001 5.4375C131.925 4.19531 131.4 3.37793 130.428 2.98535C130.1 2.85059 129.754 2.7832 129.391 2.7832C129.027 2.7832 128.711 2.83887 128.441 2.9502C128.178 3.06152 127.943 3.21094 127.738 3.39844C127.281 3.81445 127.053 4.29199 127.053 4.83105C127.053 5.61035 127.504 6.37207 128.406 7.11621C128.652 7.31543 128.904 7.5293 129.162 7.75781C129.426 7.98633 129.713 8.23242 130.023 8.49609C130.34 8.75391 130.627 9.03223 130.885 9.33105C131.482 10.0107 131.781 10.6934 131.781 11.3789C131.781 12.0645 131.655 12.627 131.403 13.0664C131.157 13.5059 130.826 13.8691 130.41 14.1562C129.602 14.7129 128.585 14.9912 127.36 14.9912C126.394 14.9912 125.412 14.7363 124.416 14.2266C124.1 14.0625 123.877 13.9277 123.748 13.8223C123.607 13.6992 123.537 13.6172 123.537 13.5762C123.584 13.2246 123.648 12.8818 123.73 12.5479C123.812 12.2139 123.871 11.9443 123.906 11.7393C123.947 11.5342 123.974 11.3936 123.985 11.3174C123.997 11.2412 124.018 11.168 124.047 11.0977C124.105 10.916 124.202 10.8252 124.337 10.8252C124.478 10.8252 124.548 10.9277 124.548 11.1328ZM132.177 20.0801C132.329 20.0215 132.479 19.9189 132.625 19.7725C132.771 19.626 132.982 19.2539 133.258 18.6562C133.539 18.0645 133.738 17.6367 133.855 17.373C133.973 17.1094 134.084 16.8457 134.189 16.582C134.688 15.3398 134.937 14.3994 134.937 13.7607C134.937 12.5479 134.893 11.7012 134.805 11.2207C134.535 9.78516 134.351 8.95898 134.251 8.74219C134.157 8.51953 134.075 8.36426 134.005 8.27637C133.935 8.18262 133.853 8.12988 133.759 8.11816C133.647 8.13574 133.486 8.28516 133.275 8.56641C132.871 9.10547 132.631 9.375 132.555 9.375C132.52 9.375 132.484 9.36035 132.449 9.33105C132.414 9.30176 132.396 9.24609 132.396 9.16406C132.396 9.08203 132.458 8.95312 132.581 8.77734C132.704 8.60156 132.845 8.42578 133.003 8.25C133.167 8.06836 133.325 7.9043 133.478 7.75781C133.63 7.60547 133.724 7.50879 133.759 7.46777C133.794 7.4209 133.835 7.37988 133.882 7.34473C133.935 7.30371 133.993 7.26562 134.058 7.23047C134.21 7.13672 134.336 7.08984 134.436 7.08984C134.646 7.08984 134.781 7.14551 134.84 7.25684C135.689 8.71582 136.114 10.752 136.114 13.3652C136.114 13.5762 136.17 13.7197 136.281 13.7959L136.967 12.5918C137.652 11.4258 138.145 10.4092 138.443 9.54199C138.555 9.21973 138.61 8.98242 138.61 8.83008C138.61 8.67188 138.596 8.55762 138.566 8.4873C138.537 8.41113 138.502 8.34375 138.461 8.28516C138.367 8.12695 138.32 8.00098 138.32 7.90723C138.32 7.80762 138.338 7.71094 138.373 7.61719C138.408 7.51758 138.461 7.42969 138.531 7.35352C138.684 7.17773 138.856 7.08984 139.05 7.08984C139.249 7.08984 139.404 7.11914 139.516 7.17773C139.627 7.23047 139.715 7.30664 139.779 7.40625C139.896 7.58789 139.955 7.82227 139.955 8.10938C139.955 8.39648 139.882 8.69824 139.735 9.01465C139.595 9.33105 139.41 9.68262 139.182 10.0693C138.959 10.4502 138.707 10.8545 138.426 11.2822C138.145 11.7041 137.866 12.123 137.591 12.5391C136.894 13.5938 136.442 14.3174 136.237 14.71C136.032 15.1729 135.804 15.7236 135.552 16.3623C135.3 17.0068 134.992 17.7305 134.629 18.5332L134.295 19.2715C134.283 19.2949 134.271 19.3271 134.26 19.3682C134.248 19.4092 134.236 19.4531 134.225 19.5C134.189 19.5938 134.172 19.6846 134.172 19.7725C134.172 19.8662 134.192 19.9453 134.233 20.0098C134.31 20.1211 134.512 20.1738 134.84 20.168C134.893 20.1621 134.966 20.1592 135.06 20.1592C135.159 20.1592 135.291 20.1621 135.455 20.168L135.394 20.4492H131.271L131.333 20.168C131.749 20.168 132.03 20.1387 132.177 20.0801ZM140.913 15.0176C140.79 14.9473 140.685 14.8594 140.597 14.7539C140.515 14.6484 140.468 14.5166 140.456 14.3584C140.45 14.2002 140.509 14.0654 140.632 13.9541C140.761 13.8369 140.901 13.7783 141.054 13.7783C141.206 13.7783 141.379 13.8252 141.572 13.9189C141.766 14.0068 141.968 14.1064 142.179 14.2178C142.735 14.5107 143.148 14.6572 143.418 14.6572C143.688 14.6572 143.913 14.5518 144.095 14.3408C144.282 14.1299 144.376 13.8809 144.376 13.5938C144.376 13.3008 144.32 13.04 144.209 12.8115C144.098 12.583 143.957 12.3662 143.787 12.1611C143.623 11.9502 143.444 11.748 143.251 11.5547C143.058 11.3555 142.879 11.1504 142.715 10.9395C142.322 10.4473 142.126 10.0049 142.126 9.6123C142.126 9.21387 142.226 8.87109 142.425 8.58398C142.624 8.29688 142.876 8.04492 143.181 7.82812C143.831 7.36523 144.496 7.13379 145.176 7.13379C145.428 7.13379 145.621 7.21289 145.756 7.37109C146.002 7.6582 146.125 7.92188 146.125 8.16211C146.125 8.68945 145.932 8.95312 145.545 8.95312C145.381 8.95312 145.252 8.87695 145.158 8.72461C145.064 8.57227 144.994 8.44336 144.947 8.33789C144.9 8.22656 144.848 8.12695 144.789 8.03906C144.66 7.82227 144.514 7.71387 144.35 7.71387C144.191 7.71387 144.033 7.75488 143.875 7.83691C143.717 7.91309 143.576 8.0127 143.453 8.13574C143.166 8.41113 143.022 8.67773 143.022 8.93555C143.022 9.19336 143.075 9.41602 143.181 9.60352C143.292 9.79102 143.427 9.97559 143.585 10.1572C143.749 10.3389 143.925 10.5264 144.112 10.7197C144.3 10.9072 144.473 11.1094 144.631 11.3262C145.012 11.8359 145.202 12.3604 145.202 12.8994C145.202 13.6318 144.862 14.2207 144.183 14.666C143.978 14.8008 143.796 14.8945 143.638 14.9473C143.485 14.9941 143.368 15.0322 143.286 15.0615C143.21 15.0908 143.113 15.1172 142.996 15.1406C142.715 15.2051 142.41 15.2373 142.082 15.2373C141.754 15.2373 141.508 15.2168 141.344 15.1758C141.186 15.1406 141.042 15.0879 140.913 15.0176ZM148.296 15.2373C147.774 15.2373 147.514 15 147.514 14.5254C147.514 14.4258 147.525 14.3262 147.549 14.2266L148.902 7.83691C148.914 7.77832 148.92 7.73145 148.92 7.69629C148.92 7.6084 148.876 7.56445 148.788 7.56445H148.393C148.24 7.56445 148.164 7.51172 148.164 7.40625C148.164 7.29492 148.205 7.22461 148.287 7.19531C148.375 7.16602 148.448 7.14551 148.507 7.13379C148.565 7.12207 148.636 7.10156 148.718 7.07227C148.806 7.03711 148.92 6.9668 149.061 6.86133C149.201 6.75 149.342 6.62402 149.482 6.4834C149.629 6.33691 149.772 6.18457 149.913 6.02637C150.054 5.86816 150.186 5.71289 150.309 5.56055C150.625 5.17969 150.821 4.95117 150.897 4.875C151.026 4.9043 151.129 4.95117 151.205 5.01562C151.158 5.13867 151.097 5.28223 151.021 5.44629C150.944 5.61035 150.871 5.77734 150.801 5.94727C150.619 6.36328 150.514 6.66797 150.484 6.86133V6.89648C150.484 7.02539 150.555 7.08984 150.695 7.08984H151.838L151.741 7.56445H150.467C150.309 7.56445 150.209 7.66699 150.168 7.87207L148.946 13.585C148.917 13.708 148.896 13.8076 148.885 13.8838C148.873 13.9541 148.861 14.0098 148.85 14.0508C148.844 14.0918 148.841 14.1211 148.841 14.1387V14.1738C148.841 14.3086 148.905 14.376 149.034 14.376C149.257 14.376 149.506 14.2383 149.781 13.9629L150.757 12.9873L150.88 13.1191C150.798 13.3711 150.467 13.7637 149.887 14.2969C149.225 14.9238 148.694 15.2373 148.296 15.2373ZM155.195 14.5254C155.752 14.5254 156.432 14.2793 157.234 13.7871L157.357 14.0068C156.742 14.4814 156.045 14.8389 155.266 15.0791C154.926 15.1846 154.577 15.2373 154.22 15.2373C153.868 15.2373 153.569 15.1611 153.323 15.0088C153.077 14.8623 152.875 14.6631 152.717 14.4111C152.424 13.9307 152.277 13.3096 152.277 12.5479C152.395 11.2471 152.863 10.043 153.684 8.93555C154.24 8.18555 154.908 7.65234 155.688 7.33594C156.086 7.17188 156.443 7.08984 156.76 7.08984C157.082 7.08984 157.331 7.11914 157.507 7.17773C157.683 7.23047 157.838 7.3125 157.973 7.42383C158.271 7.66406 158.421 7.96875 158.421 8.33789C158.421 8.70117 158.342 9.01465 158.184 9.27832C158.031 9.54199 157.829 9.77051 157.577 9.96387C157.325 10.1572 157.038 10.3242 156.716 10.4648C156.394 10.6055 156.065 10.7285 155.731 10.834C155.403 10.9395 155.078 11.0361 154.756 11.124C154.439 11.2061 154.161 11.291 153.921 11.3789C153.733 11.8184 153.64 12.2666 153.64 12.7236C153.64 13.5439 153.918 14.0947 154.475 14.376C154.674 14.4756 154.914 14.5254 155.195 14.5254ZM154.044 10.8516C154.044 10.9512 154.123 11.001 154.281 11.001C155.166 10.7432 155.799 10.4824 156.18 10.2188C156.561 9.94922 156.848 9.66797 157.041 9.375C157.24 9.08203 157.34 8.73047 157.34 8.32031C157.34 7.9043 157.211 7.63184 156.953 7.50293C156.865 7.45605 156.725 7.43262 156.531 7.43262C156.344 7.43262 156.142 7.49121 155.925 7.6084C155.708 7.71973 155.512 7.87207 155.336 8.06543C155.16 8.25293 155.002 8.4668 154.861 8.70703C154.721 8.94727 154.598 9.19336 154.492 9.44531C154.316 9.86719 154.167 10.3359 154.044 10.8516ZM159.695 15C159.695 14.9238 159.71 14.8242 159.739 14.7012C159.792 14.4668 159.824 14.3174 159.836 14.2529L161.014 8.68066V8.64551C161.014 8.48145 160.946 8.39941 160.812 8.39941C160.724 8.39941 160.577 8.50488 160.372 8.71582C160.167 8.9209 159.897 9.19336 159.563 9.5332L159.353 9.31348C159.481 9.0498 159.953 8.57812 160.768 7.89844C161.406 7.35938 161.854 7.08984 162.112 7.08984C162.323 7.08984 162.429 7.29785 162.429 7.71387C162.429 7.88965 162.408 8.07129 162.367 8.25879L161.901 10.5088C161.901 10.5732 161.925 10.6055 161.972 10.6055C162.024 10.6055 162.071 10.582 162.112 10.5352C162.159 10.4824 162.262 10.3682 162.42 10.1924C162.578 10.0166 162.789 9.77051 163.053 9.4541C163.316 9.1377 163.551 8.87695 163.756 8.67188C163.967 8.46094 164.172 8.27051 164.371 8.10059C164.57 7.93066 164.775 7.76953 164.986 7.61719C165.496 7.26562 165.865 7.08984 166.094 7.08984C166.322 7.08984 166.504 7.16016 166.639 7.30078C166.779 7.43555 166.85 7.57031 166.85 7.70508C166.85 7.875 166.841 7.99512 166.823 8.06543L166.34 10.377C166.328 10.4355 166.322 10.4883 166.322 10.5352C166.322 10.582 166.346 10.6055 166.393 10.6055C166.51 10.6055 166.782 10.3359 167.21 9.79688C167.638 9.25195 167.954 8.87695 168.159 8.67188C168.37 8.46094 168.575 8.27051 168.774 8.10059C168.974 7.93066 169.182 7.76953 169.398 7.61719C169.902 7.26562 170.269 7.08984 170.497 7.08984C170.726 7.08984 170.904 7.16016 171.033 7.30078C171.168 7.43555 171.235 7.5791 171.235 7.73145C171.235 7.88379 171.227 7.99805 171.209 8.07422L169.917 14.1562V14.1914C169.917 14.3203 169.99 14.3848 170.137 14.3848C170.371 14.3848 170.787 14.0742 171.385 13.4531C171.443 13.3887 171.487 13.3418 171.517 13.3125L171.684 13.4795C171.566 13.708 171.232 14.0449 170.682 14.4902C170.061 14.9941 169.592 15.2461 169.275 15.2461C169.1 15.2461 168.944 15.1758 168.81 15.0352C168.681 14.9004 168.616 14.7598 168.616 14.6133C168.616 14.4609 168.625 14.3438 168.643 14.2617L169.935 8.17969V8.14453C169.935 8.01562 169.861 7.95117 169.715 7.95117C169.498 7.95117 169.202 8.14453 168.827 8.53125C168.077 9.31055 167.491 9.96094 167.069 10.4824C167.017 10.5352 166.952 10.6084 166.876 10.7021C166.8 10.79 166.721 10.8809 166.639 10.9746C166.486 11.1504 166.378 11.2852 166.313 11.3789C166.249 11.4668 166.188 11.5459 166.129 11.6162C166.07 11.6865 166.023 11.8066 165.988 11.9766L165.355 14.9033C164.951 15.1377 164.641 15.2549 164.424 15.2549C164.207 15.2549 164.099 15.1699 164.099 15C164.099 14.9238 164.113 14.8242 164.143 14.7012C164.195 14.4668 164.228 14.3174 164.239 14.2529L165.531 8.17969V8.14453C165.531 8.01562 165.458 7.95117 165.312 7.95117C165.095 7.95117 164.799 8.14453 164.424 8.53125C163.533 9.45117 162.997 10.0195 162.815 10.2363C162.64 10.4531 162.514 10.6084 162.438 10.7021C162.367 10.79 162.297 10.8809 162.227 10.9746C162.086 11.1445 161.98 11.2764 161.91 11.3701C161.846 11.4639 161.784 11.5459 161.726 11.6162C161.667 11.6865 161.62 11.8066 161.585 11.9766L160.952 14.9033C160.548 15.1377 160.237 15.2549 160.021 15.2549C159.804 15.2549 159.695 15.1699 159.695 15Z" fill="black"/>
</svg>
