<svg width="84" height="21" viewBox="0 0 84 21" fill="none" xmlns="http://www.w3.org/2000/svg">
<path d="M43.6714 6.67627C43.7935 6.66162 43.9448 6.6543 44.1255 6.6543C44.3062 6.6543 44.5063 6.67139 44.7261 6.70557V5.58496H45.1362V6.77881C45.9175 6.95459 46.4619 7.24023 46.7695 7.63574C46.8867 7.78223 46.9575 7.95068 46.9819 8.14111C46.9819 8.28271 46.9331 8.3999 46.8354 8.49268C46.7378 8.58545 46.6279 8.63184 46.5059 8.63184C46.3887 8.63184 46.2788 8.58301 46.1763 8.48535C46.0737 8.38281 45.9712 8.26318 45.8687 8.12646C45.7661 7.98486 45.6587 7.83838 45.5464 7.68701C45.4341 7.53076 45.3389 7.42578 45.2607 7.37207C45.1875 7.31836 45.146 7.28662 45.1362 7.27686V10.9316C45.2046 10.9707 45.3193 11.0342 45.4805 11.1221C45.9688 11.376 46.4058 11.7227 46.7915 12.1621C47.1772 12.5967 47.3701 13.0288 47.3701 13.4585C47.3701 14.2007 47.165 14.7842 46.7549 15.209C46.3496 15.6338 45.8101 15.9243 45.1362 16.0806V17.604H44.7261V16.1538C44.311 16.2075 43.9595 16.2173 43.6714 16.1831V17.604H43.2686V16.1099C42.4141 15.9194 41.7964 15.5557 41.4155 15.0186C41.2837 14.833 41.2129 14.6426 41.2031 14.4473C41.1934 14.2471 41.2446 14.0957 41.3569 13.9932C41.4741 13.8906 41.5986 13.8394 41.7305 13.8394C41.8623 13.8394 41.9648 13.8711 42.0381 13.9346C42.1455 14.0322 42.2554 14.2349 42.3677 14.5425C42.5679 15.0845 42.8682 15.458 43.2686 15.6631V11.188C42.7021 10.8364 42.3115 10.5337 42.0967 10.2798C41.6865 9.80615 41.4814 9.33496 41.4814 8.86621C41.4814 8.39258 41.6475 7.96045 41.9795 7.56982C42.3115 7.17432 42.7412 6.90332 43.2686 6.75684V5.58496H43.6714V6.67627ZM43.6714 15.8096C43.9692 15.8975 44.3208 15.9146 44.7261 15.8608V12.0449C44.5552 11.9424 44.3794 11.8423 44.1987 11.7446C44.0229 11.6421 43.8472 11.5371 43.6714 11.4297V15.8096ZM44.7261 7.07178C44.5454 7.01807 44.3159 6.99121 44.0376 6.99121C43.9009 6.99121 43.7788 6.99854 43.6714 7.01318V10.0088C43.9888 10.2383 44.3403 10.4678 44.7261 10.6973V7.07178ZM46.418 14.0371C46.418 13.5439 46.1592 13.0923 45.6416 12.6821C45.4854 12.5552 45.3169 12.4307 45.1362 12.3086V15.751C45.5122 15.6143 45.8125 15.397 46.0371 15.0991C46.2666 14.8013 46.3936 14.4473 46.418 14.0371ZM42.353 8.36084C42.353 8.61963 42.4141 8.83203 42.5361 8.99805C42.6631 9.16406 42.9072 9.40088 43.2686 9.7085V7.10107C42.6582 7.2915 42.353 7.71143 42.353 8.36084Z" fill="black"/>
<path d="M50.9678 8.46338C50.9336 8.46338 50.8848 8.3999 50.8213 8.27295C50.8213 8.2583 50.9092 8.19482 51.085 8.08252C51.2607 7.96533 51.6099 7.6748 52.1323 7.21094C52.6548 6.74707 53.0869 6.31006 53.4287 5.8999H53.8389C53.9023 5.8999 53.9414 5.90967 53.9561 5.9292C53.9707 5.94873 53.978 5.98535 53.978 6.03906V14.9746C53.978 15.2822 54.0098 15.4556 54.0732 15.4946C54.3125 15.6362 54.7983 15.707 55.5308 15.707C55.5698 15.707 55.5894 15.7266 55.5894 15.7656V15.9414C55.5894 15.9805 55.5698 16 55.5308 16H51.1216C51.0825 16 51.063 15.9805 51.063 15.9414V15.7656C51.063 15.7266 51.0825 15.707 51.1216 15.707C51.3657 15.6924 51.5781 15.6826 51.7588 15.6777C51.9395 15.668 52.1299 15.6533 52.3301 15.6338C52.5303 15.6143 52.6694 15.5825 52.7476 15.5386C52.8306 15.4946 52.8794 15.4287 52.894 15.3408C52.9087 15.2529 52.916 15.1382 52.916 14.9966V7.19629C52.9209 7.18652 52.8672 7.22559 52.7549 7.31348C52.1201 7.82129 51.5391 8.20215 51.0117 8.45605L50.9678 8.46338ZM58.0723 15.2676C58.0723 15.0039 58.165 14.7769 58.3506 14.5864C58.5361 14.3911 58.7607 14.2935 59.0244 14.2935C59.2832 14.2935 59.5054 14.3887 59.6909 14.5791C59.8813 14.7646 59.9766 14.9917 59.9766 15.2603C59.9766 15.5288 59.8838 15.7534 59.6982 15.9341C59.5127 16.1099 59.2881 16.1978 59.0244 16.1978C58.7656 16.1978 58.541 16.1074 58.3506 15.9268C58.165 15.7461 58.0723 15.5264 58.0723 15.2676ZM62.4668 8.46338C62.4326 8.46338 62.3838 8.3999 62.3203 8.27295C62.3203 8.2583 62.4082 8.19482 62.584 8.08252C62.7598 7.96533 63.1089 7.6748 63.6313 7.21094C64.1538 6.74707 64.5859 6.31006 64.9277 5.8999H65.3379C65.4014 5.8999 65.4404 5.90967 65.4551 5.9292C65.4697 5.94873 65.4771 5.98535 65.4771 6.03906V14.9746C65.4771 15.2822 65.5088 15.4556 65.5723 15.4946C65.8115 15.6362 66.2974 15.707 67.0298 15.707C67.0688 15.707 67.0884 15.7266 67.0884 15.7656V15.9414C67.0884 15.9805 67.0688 16 67.0298 16H62.6206C62.5815 16 62.562 15.9805 62.562 15.9414V15.7656C62.562 15.7266 62.5815 15.707 62.6206 15.707C62.8647 15.6924 63.0771 15.6826 63.2578 15.6777C63.4385 15.668 63.6289 15.6533 63.8291 15.6338C64.0293 15.6143 64.1685 15.5825 64.2466 15.5386C64.3296 15.4946 64.3784 15.4287 64.3931 15.3408C64.4077 15.2529 64.415 15.1382 64.415 14.9966V7.19629C64.4199 7.18652 64.3662 7.22559 64.2539 7.31348C63.6191 7.82129 63.0381 8.20215 62.5107 8.45605L62.4668 8.46338ZM75.5918 6.2002C75.7285 6.2002 75.7969 6.29541 75.7969 6.48584C75.7969 6.67627 75.7554 6.87646 75.6724 7.08643L71.5708 16.1978H70.7505V16.0293C71.2144 14.9941 71.6221 14.0811 71.9736 13.29C72.3252 12.499 72.6328 11.8105 72.8965 11.2246C73.8633 9.05176 74.3833 7.87012 74.4565 7.67969C74.5347 7.48438 74.5078 7.38672 74.376 7.38672H70.3477C70.25 7.38672 70.1572 7.42578 70.0693 7.50391C69.9863 7.58203 69.9302 7.66504 69.9009 7.75293L69.5054 8.88086C69.481 8.96875 69.4272 9.0127 69.3442 9.0127C69.2515 9.0127 69.2051 8.97607 69.2051 8.90283L69.6445 6.354C69.6836 6.25146 69.7227 6.2002 69.7617 6.2002H75.5918ZM82.9014 5.91455C82.9795 5.91455 83.0186 5.95117 83.0186 6.02441C83.0186 6.09766 82.8184 6.24414 82.418 6.46387C82.0176 6.67871 81.7686 6.82031 81.6709 6.88867C81.3535 7.10352 81.0361 7.33789 80.7188 7.5918C79.6738 8.43164 79.144 9.11768 79.1294 9.6499C79.1685 9.6499 79.2124 9.6377 79.2612 9.61328C79.3149 9.58887 79.4077 9.5498 79.5396 9.49609C79.6763 9.44238 79.918 9.41553 80.2646 9.41553C80.6162 9.41553 80.9922 9.50586 81.3926 9.68652C81.7979 9.8623 82.147 10.1016 82.4399 10.4043C83.0649 11.0586 83.3774 11.8594 83.3774 12.8066C83.3774 13.7539 83.0576 14.5571 82.418 15.2163C81.7832 15.8706 80.9922 16.1978 80.0449 16.1978C79.1025 16.1978 78.3408 15.8096 77.7598 15.0332C77.1836 14.2568 76.8955 13.3535 76.8955 12.3232C76.8955 11.0391 77.313 9.9209 78.1479 8.96875C78.8706 8.14355 80.1011 7.25488 81.8394 6.30273C82.0347 6.19531 82.2422 6.10498 82.4619 6.03174C82.6816 5.95361 82.8281 5.91455 82.9014 5.91455ZM78.1187 12.748C78.1187 13.5146 78.2627 14.186 78.5508 14.7622C78.9023 15.4604 79.4175 15.8096 80.0962 15.8096C80.7798 15.8096 81.2949 15.4995 81.6416 14.8794C81.9346 14.3618 82.0811 13.7344 82.0811 12.9971C82.0811 11.5566 81.6953 10.5947 80.9238 10.1113C80.6406 9.93555 80.3086 9.84766 79.9277 9.84766C79.2539 9.84766 78.7754 10.1211 78.4922 10.668C78.2529 11.1318 78.1284 11.7983 78.1187 12.6675V12.748Z" fill="black"/>
<path d="M11.4502 10.0747C12.1045 10.0747 12.4316 9.75488 12.4316 9.11523C12.4316 9.07617 12.4512 9.05664 12.4902 9.05664H12.666C12.7051 9.05664 12.7246 9.07617 12.7246 9.11523V11.8398C12.7246 11.8789 12.7051 11.8984 12.666 11.8984H12.4902C12.4512 11.8984 12.4316 11.8789 12.4316 11.8398C12.4316 11.3906 12.3047 11.0806 12.0508 10.9097C11.9141 10.8169 11.7188 10.7705 11.4648 10.7705H8.5791C8.46191 10.7705 8.40332 10.8364 8.40332 10.9683V14.7329C8.40332 15.0649 8.60107 15.3115 8.99658 15.4727C9.39697 15.6289 9.64844 15.707 9.75098 15.707C9.8584 15.707 9.91211 15.7266 9.91211 15.7656V15.9414C9.91211 15.9805 9.89258 16 9.85352 16H5.85449C5.81543 16 5.7959 15.9805 5.7959 15.9414V15.7656C5.7959 15.7266 5.8374 15.707 5.92041 15.707C6.00342 15.707 6.13281 15.668 6.30859 15.5898C6.48438 15.5117 6.63818 15.397 6.77002 15.2456C6.90674 15.0894 6.9751 14.9014 6.9751 14.6816V6.77148C6.9751 6.4541 6.80664 6.22705 6.46973 6.09033C6.27441 6.00732 6.08154 5.96582 5.89111 5.96582H5.86182C5.82275 5.96582 5.80322 5.94629 5.80322 5.90723V5.73145C5.80322 5.69238 5.82275 5.67285 5.86182 5.67285H12.7686C12.8271 5.68262 12.8711 5.69727 12.9004 5.7168C12.9297 5.73145 12.9443 5.77295 12.9443 5.84131V7.61377C12.9443 7.67236 12.9346 7.70898 12.915 7.72363C12.9004 7.73828 12.8711 7.74561 12.8271 7.74561H12.7393C12.7295 7.74072 12.6953 7.60889 12.6367 7.3501C12.583 7.08643 12.4976 6.88379 12.3804 6.74219C12.1802 6.52734 11.9531 6.40771 11.6992 6.3833C11.5967 6.37354 11.4722 6.36865 11.3257 6.36865H8.5498C8.45215 6.36865 8.40332 6.41748 8.40332 6.51514V9.90625C8.40332 10.0186 8.46191 10.0747 8.5791 10.0747H11.4502ZM18.6865 10.7485C18.6279 10.7388 18.5425 10.707 18.4302 10.6533C18.0249 10.4678 17.7075 10.375 17.478 10.375C17.2485 10.375 17.0068 10.519 16.7529 10.8071C16.5039 11.0903 16.3794 11.3467 16.3794 11.5762V14.8867C16.3794 15.2529 16.5918 15.4971 17.0166 15.6191C17.2021 15.668 17.3755 15.7046 17.5366 15.729C17.6978 15.7485 17.8003 15.7681 17.8442 15.7876C17.8931 15.8071 17.9175 15.8462 17.9175 15.9048C17.9175 15.9585 17.8931 15.9902 17.8442 16H14.1748C14.126 15.9902 14.1016 15.9561 14.1016 15.8975C14.1016 15.8096 14.2163 15.751 14.4458 15.7217C14.9731 15.6436 15.2368 15.3652 15.2368 14.8867V11.0122C15.2368 10.8071 15.1245 10.6655 14.8999 10.5874C14.8022 10.5532 14.6973 10.5264 14.585 10.5068C14.4727 10.4824 14.3823 10.4604 14.314 10.4409C14.2505 10.4214 14.209 10.4043 14.1895 10.3896C14.1748 10.3701 14.1675 10.3335 14.1675 10.2798C14.1675 10.2212 14.2041 10.1724 14.2773 10.1333L16.145 9.25439C16.2036 9.2251 16.2402 9.21045 16.2549 9.21045C16.3379 9.21045 16.3794 9.26904 16.3794 9.38623V10.5728C16.3794 10.6313 16.394 10.6606 16.4233 10.6606C16.4624 10.6606 16.5625 10.5459 16.7236 10.3164C17.1875 9.66699 17.5708 9.34229 17.8735 9.34229C18.0444 9.34229 18.3057 9.41064 18.6572 9.54736C19.0137 9.68408 19.1919 9.79883 19.1919 9.8916C19.1919 10.0039 19.1357 10.1748 19.0234 10.4043C18.9111 10.6338 18.7988 10.7485 18.6865 10.7485ZM19.7485 12.7114C19.7485 11.7495 20.0879 10.9243 20.7666 10.2358C21.4502 9.54248 22.2681 9.1958 23.2202 9.1958C24.1724 9.1958 25 9.53271 25.7031 10.2065C26.4062 10.8755 26.7578 11.7031 26.7578 12.6895C26.7578 13.6758 26.4233 14.5083 25.7544 15.187C25.0903 15.8608 24.2554 16.1978 23.2495 16.1978C22.2437 16.1978 21.4087 15.856 20.7446 15.1724C20.0806 14.4888 19.7485 13.6685 19.7485 12.7114ZM21.5723 14.5938C22.0508 15.3994 22.7026 15.8022 23.5278 15.8022C24.1675 15.8022 24.6558 15.5459 24.9927 15.0332C25.3345 14.5205 25.5054 13.8906 25.5054 13.1436C25.5054 12.3965 25.2661 11.6299 24.7876 10.8438C24.314 10.0576 23.6743 9.66455 22.8687 9.66455C22.2778 9.66455 21.8115 9.9209 21.4697 10.4336C21.1328 10.9414 20.9644 11.5884 20.9644 12.3745C20.9644 13.1558 21.167 13.8955 21.5723 14.5938ZM37.4805 13.6929L37.4658 12.1475C37.4658 11.5176 37.4121 11.0757 37.3047 10.8218C37.1973 10.5679 37.0605 10.3774 36.8945 10.2505C36.7285 10.1187 36.5039 10.0527 36.2207 10.0527C35.9424 10.0527 35.3491 10.2725 34.4409 10.7119C34.3188 10.7852 34.2554 10.8535 34.2505 10.917V14.8574C34.2505 15.3506 34.5142 15.6338 35.0415 15.707C35.271 15.7412 35.3857 15.7974 35.3857 15.8755C35.3857 15.9487 35.3613 15.9902 35.3125 16H32.0459C31.9971 15.9902 31.9727 15.9561 31.9727 15.8975C31.9727 15.8047 32.0874 15.7412 32.3169 15.707C32.8442 15.6338 33.1079 15.3506 33.1079 14.8574V11.21C33.1079 10.4434 32.6343 10.0601 31.687 10.0601C31.3403 10.0601 30.8594 10.2651 30.2441 10.6753C30.0879 10.7778 29.9731 10.873 29.8999 10.9609V14.8574C29.8999 15.3506 30.1636 15.6338 30.6909 15.707C30.9204 15.7412 31.0352 15.7974 31.0352 15.8755C31.0352 15.9487 31.0107 15.9902 30.9619 16H27.6953C27.6465 15.9902 27.6221 15.9561 27.6221 15.8975C27.6221 15.8047 27.7368 15.7412 27.9663 15.707C28.4937 15.6338 28.7573 15.3555 28.7573 14.8721V10.6533C28.7573 10.4482 28.645 10.3066 28.4204 10.2285C28.3228 10.1943 28.2178 10.1675 28.1055 10.1479C27.9932 10.1235 27.9028 10.1016 27.8345 10.082C27.771 10.0625 27.7295 10.0454 27.71 10.0308C27.6953 10.0112 27.688 9.97461 27.688 9.9209C27.688 9.8623 27.7246 9.81348 27.7979 9.77441L29.6655 8.89551C29.7241 8.86621 29.7607 8.85156 29.7754 8.85156C29.8584 8.85156 29.8999 8.91016 29.8999 9.02734V10.2432C29.9048 10.2725 29.9219 10.2871 29.9512 10.2871C29.9854 10.2871 30.0659 10.2529 30.1929 10.1846C30.3247 10.1162 30.4956 10.021 30.7056 9.89893C30.9155 9.77197 31.1914 9.62549 31.5332 9.45947C31.8799 9.29346 32.2461 9.21045 32.6318 9.21045C33.252 9.21045 33.6963 9.47656 33.9648 10.0088C34.0674 10.2236 34.1602 10.3164 34.2432 10.2871C34.3262 10.2529 34.4556 10.1919 34.6313 10.104C35.0464 9.89893 35.4663 9.69873 35.8911 9.50342C36.3159 9.30811 36.6675 9.21045 36.9458 9.21045C38.0737 9.21045 38.6377 10.2383 38.6377 12.2939L38.5718 14.4326V14.8574C38.5718 15.2383 38.7622 15.4873 39.1431 15.6045C39.3042 15.6582 39.458 15.6973 39.6045 15.7217C39.7559 15.7412 39.8535 15.7607 39.8975 15.7803C39.9463 15.7998 39.9707 15.8389 39.9707 15.8975C39.9707 15.9561 39.9463 15.9902 39.8975 16H36.3672C36.3184 15.9902 36.2939 15.9561 36.2939 15.8975C36.2939 15.8047 36.4087 15.7412 36.6382 15.707C37.1606 15.6338 37.4219 15.3311 37.4219 14.7988C37.4609 14.5547 37.4805 14.186 37.4805 13.6929Z" fill="black"/>
</svg>
