<svg width="66" height="26" viewBox="0 0 66 26" fill="none" xmlns="http://www.w3.org/2000/svg">
<path d="M19.6421 17.1851C19.4595 19.7095 18.5249 21.6968 16.8384 23.147C15.1626 24.5972 12.9497 25.3223 10.1997 25.3223C7.19189 25.3223 4.82324 24.3125 3.09375 22.293C1.375 20.2627 0.515625 17.4805 0.515625 13.9463V12.5122C0.515625 10.2563 0.913086 8.26904 1.70801 6.55029C2.50293 4.83154 3.63623 3.51562 5.10791 2.60254C6.59033 1.67871 8.30908 1.2168 10.2642 1.2168C12.9712 1.2168 15.1519 1.94189 16.8062 3.39209C18.4604 4.84229 19.4165 6.87793 19.6743 9.49902H14.8403C14.7222 7.98438 14.2979 6.88867 13.5674 6.21191C12.8477 5.52441 11.7466 5.18066 10.2642 5.18066C8.65283 5.18066 7.44434 5.76074 6.63867 6.9209C5.84375 8.07031 5.43555 9.85889 5.41406 12.2866V14.0591C5.41406 16.5942 5.79541 18.4473 6.55811 19.6182C7.33154 20.7891 8.54541 21.3745 10.1997 21.3745C11.6929 21.3745 12.8047 21.0361 13.5352 20.3594C14.2764 19.6719 14.7007 18.6138 14.8081 17.1851H19.6421ZM27.4248 25H22.752V0.25H27.4248V25ZM30.5508 16.1216C30.5508 14.3921 30.8838 12.8506 31.5498 11.4971C32.2158 10.1436 33.1719 9.09619 34.418 8.35498C35.6748 7.61377 37.1304 7.24316 38.7847 7.24316C41.1372 7.24316 43.0547 7.96289 44.5371 9.40234C46.0303 10.8418 46.8628 12.7969 47.0347 15.2676L47.0669 16.46C47.0669 19.1348 46.3203 21.2832 44.8271 22.9053C43.334 24.5166 41.3306 25.3223 38.8169 25.3223C36.3032 25.3223 34.2944 24.5166 32.7905 22.9053C31.2974 21.2939 30.5508 19.1025 30.5508 16.3311V16.1216ZM35.2075 16.46C35.2075 18.1143 35.519 19.3818 36.1421 20.2627C36.7651 21.1328 37.6567 21.5679 38.8169 21.5679C39.9448 21.5679 40.8257 21.1382 41.4595 20.2788C42.0933 19.4087 42.4102 18.0229 42.4102 16.1216C42.4102 14.4995 42.0933 13.2427 41.4595 12.3511C40.8257 11.4595 39.9341 11.0137 38.7847 11.0137C37.646 11.0137 36.7651 11.4595 36.1421 12.3511C35.519 13.2319 35.2075 14.6016 35.2075 16.46ZM57.9595 25.3223C55.4028 25.3223 53.3188 24.5381 51.7075 22.9697C50.1069 21.4014 49.3066 19.312 49.3066 16.7017V16.2505C49.3066 14.4995 49.645 12.9365 50.3218 11.5615C50.9985 10.1758 51.9546 9.1123 53.1899 8.37109C54.436 7.61914 55.854 7.24316 57.4438 7.24316C59.8286 7.24316 61.7031 7.99512 63.0674 9.49902C64.4424 11.0029 65.1299 13.1353 65.1299 15.896V17.7974H54.0278C54.1782 18.936 54.6294 19.8491 55.3813 20.5366C56.144 21.2241 57.1055 21.5679 58.2656 21.5679C60.0596 21.5679 61.4614 20.918 62.4712 19.6182L64.7593 22.1802C64.061 23.1685 63.1157 23.9419 61.9233 24.5005C60.731 25.0483 59.4097 25.3223 57.9595 25.3223ZM57.4277 11.0137C56.5039 11.0137 55.752 11.3252 55.1719 11.9482C54.6025 12.5713 54.2373 13.4629 54.0762 14.623H60.5537V14.2524C60.5322 13.2212 60.2529 12.4263 59.7158 11.8677C59.1787 11.2983 58.416 11.0137 57.4277 11.0137Z" fill="black"/>
</svg>
